M48
; DRILL file {KiCad 9.0.1} date 2025-05-18T00:22:21-0500
; FORMAT={-:-/ absolute / inch / decimal}
; #@! TF.CreationDate,2025-05-18T00:22:21-05:00
; #@! TF.GenerationSoftware,Kicad,Pcbnew,9.0.1
; #@! TF.FileFunction,Plated,1,2,PTH
FMAT,2
INCH
; #@! TA.AperFunction,Plated,PTH,ViaDrill
T1C0.0157
; #@! TA.AperFunction,Plated,PTH,ViaDrill
T2C0.0197
; #@! TA.AperFunction,Plated,PTH,ComponentDrill
T3C0.0315
; #@! TA.AperFunction,Plated,PTH,ComponentDrill
T4C0.0394
%
G90
G05
T1
X5.8Y-2.2
X5.8117Y-2.5137
X6.182Y-2.288
X6.26Y-2.398
X6.282Y-2.25
X6.348Y-2.08
X6.486Y-2.024
X6.5396Y-2.4
X6.56Y-2.07
X6.56Y-2.238
X6.592Y-2.29
X6.602Y-1.976
X6.628Y-2.186
X6.748Y-2.398
X6.7884Y-2.5047
X6.978Y-2.186
T2
X5.924Y-2.358
X6.008Y-2.252
T3
X5.9586Y-2.1209
X6.2586Y-2.1209
T4
X5.7963Y-2.2736
X5.7963Y-2.3736
X5.8Y-2.0
X5.8Y-2.1
X7.0723Y-2.157
X7.0723Y-2.257
M30
