%TF.GenerationSoftware,KiCad,Pcbnew,9.0.1*%
%TF.CreationDate,2025-05-18T00:30:22-05:00*%
%TF.ProjectId,Tiny_Solar_Supply,54696e79-5f53-46f6-9c61-725f53757070,rev?*%
%TF.SameCoordinates,Original*%
%TF.FileFunction,Legend,Bot*%
%TF.FilePolarity,Positive*%
%FSLAX46Y46*%
G04 Gerber Fmt 4.6, Leading zero omitted, Abs format (unit mm)*
G04 Created by KiCad (PCBNEW 9.0.1) date 2025-05-18 00:30:22*
%MOMM*%
%LPD*%
G01*
G04 APERTURE LIST*
%ADD10C,0.100000*%
%ADD11C,0.000000*%
%ADD12C,0.010000*%
G04 APERTURE END LIST*
D10*
X163380044Y-61305633D02*
X163146711Y-62005633D01*
X163146711Y-62005633D02*
X162913377Y-61305633D01*
X162413377Y-61972300D02*
X162480044Y-62005633D01*
X162480044Y-62005633D02*
X162613377Y-62005633D01*
X162613377Y-62005633D02*
X162680044Y-61972300D01*
X162680044Y-61972300D02*
X162713377Y-61905633D01*
X162713377Y-61905633D02*
X162713377Y-61638966D01*
X162713377Y-61638966D02*
X162680044Y-61572300D01*
X162680044Y-61572300D02*
X162613377Y-61538966D01*
X162613377Y-61538966D02*
X162480044Y-61538966D01*
X162480044Y-61538966D02*
X162413377Y-61572300D01*
X162413377Y-61572300D02*
X162380044Y-61638966D01*
X162380044Y-61638966D02*
X162380044Y-61705633D01*
X162380044Y-61705633D02*
X162713377Y-61772300D01*
X162080044Y-62005633D02*
X162080044Y-61538966D01*
X162080044Y-61672300D02*
X162046711Y-61605633D01*
X162046711Y-61605633D02*
X162013377Y-61572300D01*
X162013377Y-61572300D02*
X161946711Y-61538966D01*
X161946711Y-61538966D02*
X161880044Y-61538966D01*
X161680044Y-61972300D02*
X161613378Y-62005633D01*
X161613378Y-62005633D02*
X161480044Y-62005633D01*
X161480044Y-62005633D02*
X161413378Y-61972300D01*
X161413378Y-61972300D02*
X161380044Y-61905633D01*
X161380044Y-61905633D02*
X161380044Y-61872300D01*
X161380044Y-61872300D02*
X161413378Y-61805633D01*
X161413378Y-61805633D02*
X161480044Y-61772300D01*
X161480044Y-61772300D02*
X161580044Y-61772300D01*
X161580044Y-61772300D02*
X161646711Y-61738966D01*
X161646711Y-61738966D02*
X161680044Y-61672300D01*
X161680044Y-61672300D02*
X161680044Y-61638966D01*
X161680044Y-61638966D02*
X161646711Y-61572300D01*
X161646711Y-61572300D02*
X161580044Y-61538966D01*
X161580044Y-61538966D02*
X161480044Y-61538966D01*
X161480044Y-61538966D02*
X161413378Y-61572300D01*
X161080044Y-62005633D02*
X161080044Y-61538966D01*
X161080044Y-61305633D02*
X161113377Y-61338966D01*
X161113377Y-61338966D02*
X161080044Y-61372300D01*
X161080044Y-61372300D02*
X161046711Y-61338966D01*
X161046711Y-61338966D02*
X161080044Y-61305633D01*
X161080044Y-61305633D02*
X161080044Y-61372300D01*
X160646711Y-62005633D02*
X160713378Y-61972300D01*
X160713378Y-61972300D02*
X160746711Y-61938966D01*
X160746711Y-61938966D02*
X160780044Y-61872300D01*
X160780044Y-61872300D02*
X160780044Y-61672300D01*
X160780044Y-61672300D02*
X160746711Y-61605633D01*
X160746711Y-61605633D02*
X160713378Y-61572300D01*
X160713378Y-61572300D02*
X160646711Y-61538966D01*
X160646711Y-61538966D02*
X160546711Y-61538966D01*
X160546711Y-61538966D02*
X160480044Y-61572300D01*
X160480044Y-61572300D02*
X160446711Y-61605633D01*
X160446711Y-61605633D02*
X160413378Y-61672300D01*
X160413378Y-61672300D02*
X160413378Y-61872300D01*
X160413378Y-61872300D02*
X160446711Y-61938966D01*
X160446711Y-61938966D02*
X160480044Y-61972300D01*
X160480044Y-61972300D02*
X160546711Y-62005633D01*
X160546711Y-62005633D02*
X160646711Y-62005633D01*
X160113378Y-61538966D02*
X160113378Y-62005633D01*
X160113378Y-61605633D02*
X160080045Y-61572300D01*
X160080045Y-61572300D02*
X160013378Y-61538966D01*
X160013378Y-61538966D02*
X159913378Y-61538966D01*
X159913378Y-61538966D02*
X159846711Y-61572300D01*
X159846711Y-61572300D02*
X159813378Y-61638966D01*
X159813378Y-61638966D02*
X159813378Y-62005633D01*
X159480045Y-61938966D02*
X159446712Y-61972300D01*
X159446712Y-61972300D02*
X159480045Y-62005633D01*
X159480045Y-62005633D02*
X159513378Y-61972300D01*
X159513378Y-61972300D02*
X159480045Y-61938966D01*
X159480045Y-61938966D02*
X159480045Y-62005633D01*
X159480045Y-61572300D02*
X159446712Y-61605633D01*
X159446712Y-61605633D02*
X159480045Y-61638966D01*
X159480045Y-61638966D02*
X159513378Y-61605633D01*
X159513378Y-61605633D02*
X159480045Y-61572300D01*
X159480045Y-61572300D02*
X159480045Y-61638966D01*
X158246712Y-62005633D02*
X158646712Y-62005633D01*
X158446712Y-62005633D02*
X158446712Y-61305633D01*
X158446712Y-61305633D02*
X158513379Y-61405633D01*
X158513379Y-61405633D02*
X158580046Y-61472300D01*
X158580046Y-61472300D02*
X158646712Y-61505633D01*
X157946712Y-61938966D02*
X157913379Y-61972300D01*
X157913379Y-61972300D02*
X157946712Y-62005633D01*
X157946712Y-62005633D02*
X157980045Y-61972300D01*
X157980045Y-61972300D02*
X157946712Y-61938966D01*
X157946712Y-61938966D02*
X157946712Y-62005633D01*
X157480046Y-61305633D02*
X157413379Y-61305633D01*
X157413379Y-61305633D02*
X157346712Y-61338966D01*
X157346712Y-61338966D02*
X157313379Y-61372300D01*
X157313379Y-61372300D02*
X157280046Y-61438966D01*
X157280046Y-61438966D02*
X157246712Y-61572300D01*
X157246712Y-61572300D02*
X157246712Y-61738966D01*
X157246712Y-61738966D02*
X157280046Y-61872300D01*
X157280046Y-61872300D02*
X157313379Y-61938966D01*
X157313379Y-61938966D02*
X157346712Y-61972300D01*
X157346712Y-61972300D02*
X157413379Y-62005633D01*
X157413379Y-62005633D02*
X157480046Y-62005633D01*
X157480046Y-62005633D02*
X157546712Y-61972300D01*
X157546712Y-61972300D02*
X157580046Y-61938966D01*
X157580046Y-61938966D02*
X157613379Y-61872300D01*
X157613379Y-61872300D02*
X157646712Y-61738966D01*
X157646712Y-61738966D02*
X157646712Y-61572300D01*
X157646712Y-61572300D02*
X157613379Y-61438966D01*
X157613379Y-61438966D02*
X157580046Y-61372300D01*
X157580046Y-61372300D02*
X157546712Y-61338966D01*
X157546712Y-61338966D02*
X157480046Y-61305633D01*
X163380044Y-62432594D02*
X162980044Y-62432594D01*
X163180044Y-63132594D02*
X163180044Y-62432594D01*
X162746711Y-63132594D02*
X162746711Y-62665927D01*
X162746711Y-62432594D02*
X162780044Y-62465927D01*
X162780044Y-62465927D02*
X162746711Y-62499261D01*
X162746711Y-62499261D02*
X162713378Y-62465927D01*
X162713378Y-62465927D02*
X162746711Y-62432594D01*
X162746711Y-62432594D02*
X162746711Y-62499261D01*
X162413378Y-62665927D02*
X162413378Y-63132594D01*
X162413378Y-62732594D02*
X162380045Y-62699261D01*
X162380045Y-62699261D02*
X162313378Y-62665927D01*
X162313378Y-62665927D02*
X162213378Y-62665927D01*
X162213378Y-62665927D02*
X162146711Y-62699261D01*
X162146711Y-62699261D02*
X162113378Y-62765927D01*
X162113378Y-62765927D02*
X162113378Y-63132594D01*
X161846712Y-62665927D02*
X161680045Y-63132594D01*
X161513378Y-62665927D02*
X161680045Y-63132594D01*
X161680045Y-63132594D02*
X161746712Y-63299261D01*
X161746712Y-63299261D02*
X161780045Y-63332594D01*
X161780045Y-63332594D02*
X161846712Y-63365927D01*
X160746712Y-63099261D02*
X160646712Y-63132594D01*
X160646712Y-63132594D02*
X160480046Y-63132594D01*
X160480046Y-63132594D02*
X160413379Y-63099261D01*
X160413379Y-63099261D02*
X160380046Y-63065927D01*
X160380046Y-63065927D02*
X160346712Y-62999261D01*
X160346712Y-62999261D02*
X160346712Y-62932594D01*
X160346712Y-62932594D02*
X160380046Y-62865927D01*
X160380046Y-62865927D02*
X160413379Y-62832594D01*
X160413379Y-62832594D02*
X160480046Y-62799261D01*
X160480046Y-62799261D02*
X160613379Y-62765927D01*
X160613379Y-62765927D02*
X160680046Y-62732594D01*
X160680046Y-62732594D02*
X160713379Y-62699261D01*
X160713379Y-62699261D02*
X160746712Y-62632594D01*
X160746712Y-62632594D02*
X160746712Y-62565927D01*
X160746712Y-62565927D02*
X160713379Y-62499261D01*
X160713379Y-62499261D02*
X160680046Y-62465927D01*
X160680046Y-62465927D02*
X160613379Y-62432594D01*
X160613379Y-62432594D02*
X160446712Y-62432594D01*
X160446712Y-62432594D02*
X160346712Y-62465927D01*
X159946712Y-63132594D02*
X160013379Y-63099261D01*
X160013379Y-63099261D02*
X160046712Y-63065927D01*
X160046712Y-63065927D02*
X160080045Y-62999261D01*
X160080045Y-62999261D02*
X160080045Y-62799261D01*
X160080045Y-62799261D02*
X160046712Y-62732594D01*
X160046712Y-62732594D02*
X160013379Y-62699261D01*
X160013379Y-62699261D02*
X159946712Y-62665927D01*
X159946712Y-62665927D02*
X159846712Y-62665927D01*
X159846712Y-62665927D02*
X159780045Y-62699261D01*
X159780045Y-62699261D02*
X159746712Y-62732594D01*
X159746712Y-62732594D02*
X159713379Y-62799261D01*
X159713379Y-62799261D02*
X159713379Y-62999261D01*
X159713379Y-62999261D02*
X159746712Y-63065927D01*
X159746712Y-63065927D02*
X159780045Y-63099261D01*
X159780045Y-63099261D02*
X159846712Y-63132594D01*
X159846712Y-63132594D02*
X159946712Y-63132594D01*
X159313379Y-63132594D02*
X159380046Y-63099261D01*
X159380046Y-63099261D02*
X159413379Y-63032594D01*
X159413379Y-63032594D02*
X159413379Y-62432594D01*
X158746712Y-63132594D02*
X158746712Y-62765927D01*
X158746712Y-62765927D02*
X158780045Y-62699261D01*
X158780045Y-62699261D02*
X158846712Y-62665927D01*
X158846712Y-62665927D02*
X158980045Y-62665927D01*
X158980045Y-62665927D02*
X159046712Y-62699261D01*
X158746712Y-63099261D02*
X158813379Y-63132594D01*
X158813379Y-63132594D02*
X158980045Y-63132594D01*
X158980045Y-63132594D02*
X159046712Y-63099261D01*
X159046712Y-63099261D02*
X159080045Y-63032594D01*
X159080045Y-63032594D02*
X159080045Y-62965927D01*
X159080045Y-62965927D02*
X159046712Y-62899261D01*
X159046712Y-62899261D02*
X158980045Y-62865927D01*
X158980045Y-62865927D02*
X158813379Y-62865927D01*
X158813379Y-62865927D02*
X158746712Y-62832594D01*
X158413379Y-63132594D02*
X158413379Y-62665927D01*
X158413379Y-62799261D02*
X158380046Y-62732594D01*
X158380046Y-62732594D02*
X158346712Y-62699261D01*
X158346712Y-62699261D02*
X158280046Y-62665927D01*
X158280046Y-62665927D02*
X158213379Y-62665927D01*
X157446713Y-63132594D02*
X157446713Y-62432594D01*
X157446713Y-62432594D02*
X157180046Y-62432594D01*
X157180046Y-62432594D02*
X157113380Y-62465927D01*
X157113380Y-62465927D02*
X157080046Y-62499261D01*
X157080046Y-62499261D02*
X157046713Y-62565927D01*
X157046713Y-62565927D02*
X157046713Y-62665927D01*
X157046713Y-62665927D02*
X157080046Y-62732594D01*
X157080046Y-62732594D02*
X157113380Y-62765927D01*
X157113380Y-62765927D02*
X157180046Y-62799261D01*
X157180046Y-62799261D02*
X157446713Y-62799261D01*
X156646713Y-63132594D02*
X156713380Y-63099261D01*
X156713380Y-63099261D02*
X156746713Y-63065927D01*
X156746713Y-63065927D02*
X156780046Y-62999261D01*
X156780046Y-62999261D02*
X156780046Y-62799261D01*
X156780046Y-62799261D02*
X156746713Y-62732594D01*
X156746713Y-62732594D02*
X156713380Y-62699261D01*
X156713380Y-62699261D02*
X156646713Y-62665927D01*
X156646713Y-62665927D02*
X156546713Y-62665927D01*
X156546713Y-62665927D02*
X156480046Y-62699261D01*
X156480046Y-62699261D02*
X156446713Y-62732594D01*
X156446713Y-62732594D02*
X156413380Y-62799261D01*
X156413380Y-62799261D02*
X156413380Y-62999261D01*
X156413380Y-62999261D02*
X156446713Y-63065927D01*
X156446713Y-63065927D02*
X156480046Y-63099261D01*
X156480046Y-63099261D02*
X156546713Y-63132594D01*
X156546713Y-63132594D02*
X156646713Y-63132594D01*
X156180047Y-62665927D02*
X156046713Y-63132594D01*
X156046713Y-63132594D02*
X155913380Y-62799261D01*
X155913380Y-62799261D02*
X155780047Y-63132594D01*
X155780047Y-63132594D02*
X155646713Y-62665927D01*
X155113380Y-63099261D02*
X155180047Y-63132594D01*
X155180047Y-63132594D02*
X155313380Y-63132594D01*
X155313380Y-63132594D02*
X155380047Y-63099261D01*
X155380047Y-63099261D02*
X155413380Y-63032594D01*
X155413380Y-63032594D02*
X155413380Y-62765927D01*
X155413380Y-62765927D02*
X155380047Y-62699261D01*
X155380047Y-62699261D02*
X155313380Y-62665927D01*
X155313380Y-62665927D02*
X155180047Y-62665927D01*
X155180047Y-62665927D02*
X155113380Y-62699261D01*
X155113380Y-62699261D02*
X155080047Y-62765927D01*
X155080047Y-62765927D02*
X155080047Y-62832594D01*
X155080047Y-62832594D02*
X155413380Y-62899261D01*
X154780047Y-63132594D02*
X154780047Y-62665927D01*
X154780047Y-62799261D02*
X154746714Y-62732594D01*
X154746714Y-62732594D02*
X154713380Y-62699261D01*
X154713380Y-62699261D02*
X154646714Y-62665927D01*
X154646714Y-62665927D02*
X154580047Y-62665927D01*
X153846714Y-63099261D02*
X153746714Y-63132594D01*
X153746714Y-63132594D02*
X153580048Y-63132594D01*
X153580048Y-63132594D02*
X153513381Y-63099261D01*
X153513381Y-63099261D02*
X153480048Y-63065927D01*
X153480048Y-63065927D02*
X153446714Y-62999261D01*
X153446714Y-62999261D02*
X153446714Y-62932594D01*
X153446714Y-62932594D02*
X153480048Y-62865927D01*
X153480048Y-62865927D02*
X153513381Y-62832594D01*
X153513381Y-62832594D02*
X153580048Y-62799261D01*
X153580048Y-62799261D02*
X153713381Y-62765927D01*
X153713381Y-62765927D02*
X153780048Y-62732594D01*
X153780048Y-62732594D02*
X153813381Y-62699261D01*
X153813381Y-62699261D02*
X153846714Y-62632594D01*
X153846714Y-62632594D02*
X153846714Y-62565927D01*
X153846714Y-62565927D02*
X153813381Y-62499261D01*
X153813381Y-62499261D02*
X153780048Y-62465927D01*
X153780048Y-62465927D02*
X153713381Y-62432594D01*
X153713381Y-62432594D02*
X153546714Y-62432594D01*
X153546714Y-62432594D02*
X153446714Y-62465927D01*
X152846714Y-62665927D02*
X152846714Y-63132594D01*
X153146714Y-62665927D02*
X153146714Y-63032594D01*
X153146714Y-63032594D02*
X153113381Y-63099261D01*
X153113381Y-63099261D02*
X153046714Y-63132594D01*
X153046714Y-63132594D02*
X152946714Y-63132594D01*
X152946714Y-63132594D02*
X152880047Y-63099261D01*
X152880047Y-63099261D02*
X152846714Y-63065927D01*
X152513381Y-62665927D02*
X152513381Y-63365927D01*
X152513381Y-62699261D02*
X152446714Y-62665927D01*
X152446714Y-62665927D02*
X152313381Y-62665927D01*
X152313381Y-62665927D02*
X152246714Y-62699261D01*
X152246714Y-62699261D02*
X152213381Y-62732594D01*
X152213381Y-62732594D02*
X152180048Y-62799261D01*
X152180048Y-62799261D02*
X152180048Y-62999261D01*
X152180048Y-62999261D02*
X152213381Y-63065927D01*
X152213381Y-63065927D02*
X152246714Y-63099261D01*
X152246714Y-63099261D02*
X152313381Y-63132594D01*
X152313381Y-63132594D02*
X152446714Y-63132594D01*
X152446714Y-63132594D02*
X152513381Y-63099261D01*
X151880048Y-62665927D02*
X151880048Y-63365927D01*
X151880048Y-62699261D02*
X151813381Y-62665927D01*
X151813381Y-62665927D02*
X151680048Y-62665927D01*
X151680048Y-62665927D02*
X151613381Y-62699261D01*
X151613381Y-62699261D02*
X151580048Y-62732594D01*
X151580048Y-62732594D02*
X151546715Y-62799261D01*
X151546715Y-62799261D02*
X151546715Y-62999261D01*
X151546715Y-62999261D02*
X151580048Y-63065927D01*
X151580048Y-63065927D02*
X151613381Y-63099261D01*
X151613381Y-63099261D02*
X151680048Y-63132594D01*
X151680048Y-63132594D02*
X151813381Y-63132594D01*
X151813381Y-63132594D02*
X151880048Y-63099261D01*
X151146715Y-63132594D02*
X151213382Y-63099261D01*
X151213382Y-63099261D02*
X151246715Y-63032594D01*
X151246715Y-63032594D02*
X151246715Y-62432594D01*
X150946715Y-62665927D02*
X150780048Y-63132594D01*
X150613381Y-62665927D02*
X150780048Y-63132594D01*
X150780048Y-63132594D02*
X150846715Y-63299261D01*
X150846715Y-63299261D02*
X150880048Y-63332594D01*
X150880048Y-63332594D02*
X150946715Y-63365927D01*
X163280044Y-64259555D02*
X163280044Y-63559555D01*
X162880044Y-64259555D02*
X163180044Y-63859555D01*
X162880044Y-63559555D02*
X163280044Y-63959555D01*
X162580044Y-64259555D02*
X162580044Y-63792888D01*
X162580044Y-63559555D02*
X162613377Y-63592888D01*
X162613377Y-63592888D02*
X162580044Y-63626222D01*
X162580044Y-63626222D02*
X162546711Y-63592888D01*
X162546711Y-63592888D02*
X162580044Y-63559555D01*
X162580044Y-63559555D02*
X162580044Y-63626222D01*
X161846711Y-64192888D02*
X161880044Y-64226222D01*
X161880044Y-64226222D02*
X161980044Y-64259555D01*
X161980044Y-64259555D02*
X162046711Y-64259555D01*
X162046711Y-64259555D02*
X162146711Y-64226222D01*
X162146711Y-64226222D02*
X162213378Y-64159555D01*
X162213378Y-64159555D02*
X162246711Y-64092888D01*
X162246711Y-64092888D02*
X162280044Y-63959555D01*
X162280044Y-63959555D02*
X162280044Y-63859555D01*
X162280044Y-63859555D02*
X162246711Y-63726222D01*
X162246711Y-63726222D02*
X162213378Y-63659555D01*
X162213378Y-63659555D02*
X162146711Y-63592888D01*
X162146711Y-63592888D02*
X162046711Y-63559555D01*
X162046711Y-63559555D02*
X161980044Y-63559555D01*
X161980044Y-63559555D02*
X161880044Y-63592888D01*
X161880044Y-63592888D02*
X161846711Y-63626222D01*
X161246711Y-64259555D02*
X161246711Y-63892888D01*
X161246711Y-63892888D02*
X161280044Y-63826222D01*
X161280044Y-63826222D02*
X161346711Y-63792888D01*
X161346711Y-63792888D02*
X161480044Y-63792888D01*
X161480044Y-63792888D02*
X161546711Y-63826222D01*
X161246711Y-64226222D02*
X161313378Y-64259555D01*
X161313378Y-64259555D02*
X161480044Y-64259555D01*
X161480044Y-64259555D02*
X161546711Y-64226222D01*
X161546711Y-64226222D02*
X161580044Y-64159555D01*
X161580044Y-64159555D02*
X161580044Y-64092888D01*
X161580044Y-64092888D02*
X161546711Y-64026222D01*
X161546711Y-64026222D02*
X161480044Y-63992888D01*
X161480044Y-63992888D02*
X161313378Y-63992888D01*
X161313378Y-63992888D02*
X161246711Y-63959555D01*
X160613378Y-64259555D02*
X160613378Y-63559555D01*
X160613378Y-64226222D02*
X160680045Y-64259555D01*
X160680045Y-64259555D02*
X160813378Y-64259555D01*
X160813378Y-64259555D02*
X160880045Y-64226222D01*
X160880045Y-64226222D02*
X160913378Y-64192888D01*
X160913378Y-64192888D02*
X160946711Y-64126222D01*
X160946711Y-64126222D02*
X160946711Y-63926222D01*
X160946711Y-63926222D02*
X160913378Y-63859555D01*
X160913378Y-63859555D02*
X160880045Y-63826222D01*
X160880045Y-63826222D02*
X160813378Y-63792888D01*
X160813378Y-63792888D02*
X160680045Y-63792888D01*
X160680045Y-63792888D02*
X160613378Y-63826222D01*
X159713379Y-64259555D02*
X159580045Y-64259555D01*
X159580045Y-64259555D02*
X159513379Y-64226222D01*
X159513379Y-64226222D02*
X159480045Y-64192888D01*
X159480045Y-64192888D02*
X159413379Y-64092888D01*
X159413379Y-64092888D02*
X159380045Y-63959555D01*
X159380045Y-63959555D02*
X159380045Y-63692888D01*
X159380045Y-63692888D02*
X159413379Y-63626222D01*
X159413379Y-63626222D02*
X159446712Y-63592888D01*
X159446712Y-63592888D02*
X159513379Y-63559555D01*
X159513379Y-63559555D02*
X159646712Y-63559555D01*
X159646712Y-63559555D02*
X159713379Y-63592888D01*
X159713379Y-63592888D02*
X159746712Y-63626222D01*
X159746712Y-63626222D02*
X159780045Y-63692888D01*
X159780045Y-63692888D02*
X159780045Y-63859555D01*
X159780045Y-63859555D02*
X159746712Y-63926222D01*
X159746712Y-63926222D02*
X159713379Y-63959555D01*
X159713379Y-63959555D02*
X159646712Y-63992888D01*
X159646712Y-63992888D02*
X159513379Y-63992888D01*
X159513379Y-63992888D02*
X159446712Y-63959555D01*
X159446712Y-63959555D02*
X159413379Y-63926222D01*
X159413379Y-63926222D02*
X159380045Y-63859555D01*
X159080045Y-64192888D02*
X159046712Y-64226222D01*
X159046712Y-64226222D02*
X159080045Y-64259555D01*
X159080045Y-64259555D02*
X159113378Y-64226222D01*
X159113378Y-64226222D02*
X159080045Y-64192888D01*
X159080045Y-64192888D02*
X159080045Y-64259555D01*
X158613379Y-63559555D02*
X158546712Y-63559555D01*
X158546712Y-63559555D02*
X158480045Y-63592888D01*
X158480045Y-63592888D02*
X158446712Y-63626222D01*
X158446712Y-63626222D02*
X158413379Y-63692888D01*
X158413379Y-63692888D02*
X158380045Y-63826222D01*
X158380045Y-63826222D02*
X158380045Y-63992888D01*
X158380045Y-63992888D02*
X158413379Y-64126222D01*
X158413379Y-64126222D02*
X158446712Y-64192888D01*
X158446712Y-64192888D02*
X158480045Y-64226222D01*
X158480045Y-64226222D02*
X158546712Y-64259555D01*
X158546712Y-64259555D02*
X158613379Y-64259555D01*
X158613379Y-64259555D02*
X158680045Y-64226222D01*
X158680045Y-64226222D02*
X158713379Y-64192888D01*
X158713379Y-64192888D02*
X158746712Y-64126222D01*
X158746712Y-64126222D02*
X158780045Y-63992888D01*
X158780045Y-63992888D02*
X158780045Y-63826222D01*
X158780045Y-63826222D02*
X158746712Y-63692888D01*
X158746712Y-63692888D02*
X158713379Y-63626222D01*
X158713379Y-63626222D02*
X158680045Y-63592888D01*
X158680045Y-63592888D02*
X158613379Y-63559555D01*
X158080045Y-64192888D02*
X158046712Y-64226222D01*
X158046712Y-64226222D02*
X158080045Y-64259555D01*
X158080045Y-64259555D02*
X158113378Y-64226222D01*
X158113378Y-64226222D02*
X158080045Y-64192888D01*
X158080045Y-64192888D02*
X158080045Y-64259555D01*
X157380045Y-64259555D02*
X157780045Y-64259555D01*
X157580045Y-64259555D02*
X157580045Y-63559555D01*
X157580045Y-63559555D02*
X157646712Y-63659555D01*
X157646712Y-63659555D02*
X157713379Y-63726222D01*
X157713379Y-63726222D02*
X157780045Y-63759555D01*
X148590000Y-60325000D02*
X164465000Y-60325000D01*
X164465000Y-64770000D01*
X148590000Y-64770000D01*
X148590000Y-60325000D01*
D11*
%TO.C,G\u002A\u002A\u002A*%
G36*
X164253634Y-54777341D02*
G01*
X164253634Y-54934575D01*
X164222187Y-54934575D01*
X164190740Y-54934575D01*
X164190740Y-54885158D01*
X164190740Y-54835742D01*
X164154512Y-54835742D01*
X164126165Y-54833642D01*
X164082155Y-54820110D01*
X164048904Y-54795938D01*
X164028193Y-54763355D01*
X164021804Y-54724591D01*
X164022829Y-54720085D01*
X164092232Y-54720085D01*
X164096126Y-54747092D01*
X164111876Y-54767847D01*
X164133885Y-54777511D01*
X164161293Y-54781833D01*
X164190740Y-54781833D01*
X164190740Y-54727924D01*
X164190740Y-54674016D01*
X164155443Y-54674016D01*
X164152221Y-54674067D01*
X164124811Y-54678471D01*
X164106026Y-54688135D01*
X164100762Y-54694552D01*
X164092232Y-54720085D01*
X164022829Y-54720085D01*
X164031521Y-54681875D01*
X164034415Y-54675513D01*
X164053637Y-54649818D01*
X164082891Y-54632666D01*
X164124519Y-54623085D01*
X164180867Y-54620107D01*
X164253634Y-54620107D01*
X164253634Y-54727924D01*
X164253634Y-54777341D01*
G37*
G36*
X163921196Y-54777341D02*
G01*
X163921196Y-54934575D01*
X163889750Y-54934575D01*
X163858303Y-54934575D01*
X163858303Y-54880666D01*
X163858298Y-54872679D01*
X163857641Y-54846235D01*
X163854412Y-54832590D01*
X163846541Y-54827510D01*
X163831957Y-54826757D01*
X163818899Y-54828083D01*
X163806082Y-54835153D01*
X163792988Y-54851512D01*
X163775974Y-54880666D01*
X163771121Y-54889446D01*
X163756178Y-54914495D01*
X163744200Y-54928008D01*
X163731020Y-54933522D01*
X163712472Y-54934575D01*
X163706282Y-54934530D01*
X163686558Y-54933621D01*
X163678607Y-54931911D01*
X163678639Y-54931730D01*
X163683185Y-54921936D01*
X163693932Y-54900912D01*
X163708727Y-54872874D01*
X163738847Y-54816501D01*
X163713219Y-54790873D01*
X163703013Y-54779646D01*
X163690810Y-54756656D01*
X163687592Y-54726122D01*
X163687612Y-54723432D01*
X163750485Y-54723432D01*
X163755128Y-54737091D01*
X163768455Y-54754879D01*
X163785164Y-54765166D01*
X163810579Y-54772071D01*
X163835554Y-54773006D01*
X163852313Y-54766859D01*
X163854245Y-54762595D01*
X163857157Y-54744059D01*
X163858303Y-54717442D01*
X163858303Y-54674016D01*
X163822364Y-54674016D01*
X163809717Y-54674894D01*
X163779987Y-54684374D01*
X163758655Y-54701645D01*
X163750485Y-54723432D01*
X163687612Y-54723432D01*
X163687615Y-54723067D01*
X163693551Y-54683631D01*
X163710881Y-54654506D01*
X163740920Y-54634803D01*
X163784981Y-54623633D01*
X163844380Y-54620107D01*
X163921196Y-54620107D01*
X163921196Y-54717442D01*
X163921196Y-54777341D01*
G37*
G36*
X163588180Y-54781720D02*
G01*
X163578552Y-54836647D01*
X163573998Y-54848050D01*
X163554475Y-54880289D01*
X163529103Y-54908443D01*
X163503404Y-54925954D01*
X163495266Y-54928370D01*
X163470006Y-54932230D01*
X163439593Y-54934005D01*
X163398018Y-54929197D01*
X163355834Y-54909825D01*
X163323987Y-54877044D01*
X163303862Y-54832376D01*
X163296845Y-54777341D01*
X163297308Y-54772748D01*
X163364140Y-54772748D01*
X163366215Y-54805474D01*
X163377486Y-54843111D01*
X163399300Y-54869149D01*
X163413765Y-54876000D01*
X163442598Y-54879452D01*
X163471957Y-54874382D01*
X163488293Y-54864413D01*
X163506016Y-54839154D01*
X163515869Y-54805634D01*
X163517774Y-54768605D01*
X163511655Y-54732819D01*
X163497434Y-54703031D01*
X163475036Y-54683991D01*
X163446188Y-54675117D01*
X163418148Y-54679514D01*
X163390403Y-54700279D01*
X163388918Y-54701775D01*
X163373198Y-54721127D01*
X163365916Y-54742089D01*
X163364140Y-54772748D01*
X163297308Y-54772748D01*
X163301379Y-54732355D01*
X163319130Y-54685371D01*
X163349098Y-54650057D01*
X163389989Y-54627831D01*
X163440510Y-54620107D01*
X163454464Y-54620609D01*
X163501448Y-54631888D01*
X163539191Y-54658406D01*
X163568543Y-54700700D01*
X163579885Y-54728048D01*
X163586153Y-54768605D01*
X163588180Y-54781720D01*
G37*
G36*
X163202413Y-54647061D02*
G01*
X163202413Y-54647474D01*
X163201533Y-54662705D01*
X163195952Y-54670597D01*
X163181247Y-54673563D01*
X163152997Y-54674016D01*
X163103581Y-54674016D01*
X163103581Y-54804295D01*
X163103581Y-54934575D01*
X163072134Y-54934575D01*
X163040687Y-54934575D01*
X163040687Y-54804295D01*
X163040687Y-54674016D01*
X162991271Y-54674016D01*
X162990515Y-54674016D01*
X162962592Y-54673535D01*
X162948122Y-54670491D01*
X162942684Y-54662471D01*
X162941854Y-54647061D01*
X162941854Y-54620107D01*
X163072134Y-54620107D01*
X163202413Y-54620107D01*
X163202413Y-54647061D01*
G37*
G36*
X162847422Y-54777341D02*
G01*
X162847279Y-54786322D01*
X162838830Y-54839006D01*
X162816625Y-54881246D01*
X162779642Y-54915115D01*
X162769539Y-54921574D01*
X162749557Y-54930370D01*
X162725855Y-54933588D01*
X162691419Y-54932619D01*
X162659624Y-54929845D01*
X162637933Y-54924284D01*
X162620495Y-54912967D01*
X162600361Y-54892859D01*
X162595113Y-54886949D01*
X162568992Y-54843981D01*
X162556813Y-54796309D01*
X162557161Y-54782628D01*
X162625385Y-54782628D01*
X162627393Y-54816030D01*
X162635565Y-54839682D01*
X162651161Y-54858633D01*
X162657340Y-54863799D01*
X162688171Y-54877753D01*
X162720701Y-54877680D01*
X162749744Y-54864441D01*
X162770118Y-54838896D01*
X162773093Y-54830316D01*
X162778135Y-54803091D01*
X162780128Y-54771735D01*
X162778235Y-54741305D01*
X162770497Y-54720200D01*
X162753865Y-54700279D01*
X162729410Y-54681146D01*
X162701675Y-54674810D01*
X162669228Y-54683993D01*
X162656168Y-54691893D01*
X162635390Y-54719280D01*
X162626381Y-54759371D01*
X162625385Y-54782628D01*
X162557161Y-54782628D01*
X162558052Y-54747668D01*
X162572179Y-54701790D01*
X162598670Y-54662410D01*
X162636996Y-54633261D01*
X162659154Y-54624982D01*
X162701572Y-54619983D01*
X162744706Y-54625238D01*
X162780560Y-54640353D01*
X162785963Y-54644133D01*
X162820667Y-54678809D01*
X162840874Y-54722638D01*
X162846751Y-54771735D01*
X162847422Y-54777341D01*
G37*
G36*
X162333135Y-54622107D02*
G01*
X162461168Y-54624599D01*
X162464011Y-54649308D01*
X162464065Y-54649780D01*
X162464722Y-54663636D01*
X162459831Y-54670848D01*
X162445250Y-54673585D01*
X162416841Y-54674016D01*
X162366828Y-54674016D01*
X162366828Y-54804295D01*
X162366828Y-54934575D01*
X162335381Y-54934575D01*
X162303934Y-54934575D01*
X162303934Y-54804295D01*
X162303934Y-54674016D01*
X162254518Y-54674016D01*
X162253465Y-54674016D01*
X162225671Y-54673530D01*
X162211295Y-54670458D01*
X162205913Y-54662365D01*
X162205102Y-54646815D01*
X162205102Y-54619614D01*
X162333135Y-54622107D01*
G37*
G36*
X162087971Y-54620182D02*
G01*
X162107361Y-54623296D01*
X162115254Y-54629565D01*
X162111054Y-54640491D01*
X162099482Y-54663557D01*
X162082319Y-54695331D01*
X162061345Y-54732417D01*
X162051150Y-54750164D01*
X162031218Y-54786188D01*
X162018454Y-54812889D01*
X162011284Y-54834582D01*
X162008136Y-54855579D01*
X162007436Y-54880193D01*
X162007436Y-54934575D01*
X161975990Y-54934575D01*
X161944543Y-54934575D01*
X161944543Y-54879205D01*
X161944432Y-54867267D01*
X161942865Y-54844592D01*
X161938229Y-54823604D01*
X161928996Y-54800020D01*
X161913640Y-54769555D01*
X161890634Y-54727924D01*
X161889656Y-54726184D01*
X161869065Y-54689051D01*
X161852239Y-54657830D01*
X161840889Y-54635756D01*
X161836725Y-54626060D01*
X161837451Y-54624852D01*
X161849467Y-54621467D01*
X161871574Y-54620107D01*
X161891436Y-54621263D01*
X161906834Y-54628212D01*
X161916751Y-54644815D01*
X161922062Y-54656384D01*
X161936073Y-54683570D01*
X161952552Y-54712959D01*
X161978026Y-54756394D01*
X162015425Y-54688251D01*
X162030726Y-54660837D01*
X162044893Y-54638325D01*
X162056401Y-54626118D01*
X162068400Y-54621088D01*
X162084039Y-54620107D01*
X162087971Y-54620182D01*
G37*
G36*
X161737893Y-54777341D02*
G01*
X161737893Y-54934575D01*
X161706446Y-54934575D01*
X161674999Y-54934575D01*
X161674999Y-54885158D01*
X161674999Y-54835742D01*
X161641306Y-54835692D01*
X161617700Y-54834706D01*
X161568619Y-54824204D01*
X161533118Y-54802443D01*
X161511555Y-54769710D01*
X161506396Y-54738883D01*
X161569700Y-54738883D01*
X161585151Y-54763864D01*
X161601860Y-54774151D01*
X161627275Y-54781056D01*
X161652250Y-54781990D01*
X161669009Y-54775843D01*
X161671285Y-54769953D01*
X161673958Y-54749896D01*
X161674999Y-54721935D01*
X161674999Y-54674016D01*
X161639060Y-54674016D01*
X161609507Y-54678396D01*
X161583878Y-54692817D01*
X161569942Y-54714090D01*
X161569700Y-54738883D01*
X161506396Y-54738883D01*
X161504288Y-54726290D01*
X161504314Y-54723015D01*
X161510282Y-54683581D01*
X161527620Y-54654469D01*
X161557651Y-54634782D01*
X161601696Y-54623627D01*
X161661076Y-54620107D01*
X161737893Y-54620107D01*
X161737893Y-54721935D01*
X161737893Y-54777341D01*
G37*
G36*
X161295392Y-54622068D02*
G01*
X161400963Y-54624599D01*
X161403421Y-54779587D01*
X161405880Y-54934575D01*
X161297850Y-54934575D01*
X161189820Y-54934575D01*
X161189820Y-54907620D01*
X161189820Y-54880666D01*
X161261699Y-54880666D01*
X161333577Y-54880666D01*
X161333577Y-54840234D01*
X161333577Y-54799803D01*
X161265594Y-54799803D01*
X161197612Y-54799803D01*
X161200455Y-54775095D01*
X161201527Y-54767291D01*
X161205388Y-54757588D01*
X161215146Y-54752175D01*
X161234822Y-54749434D01*
X161268437Y-54747747D01*
X161333577Y-54745107D01*
X161333577Y-54709561D01*
X161333577Y-54674016D01*
X161261699Y-54674016D01*
X161189820Y-54674016D01*
X161189820Y-54646776D01*
X161189820Y-54619537D01*
X161295392Y-54622068D01*
G37*
G36*
X160984433Y-54620432D02*
G01*
X161010208Y-54623543D01*
X161029685Y-54631934D01*
X161050244Y-54647992D01*
X161067551Y-54664990D01*
X161079056Y-54685020D01*
X161082003Y-54710087D01*
X161081427Y-54723023D01*
X161073976Y-54746533D01*
X161054356Y-54767560D01*
X161050584Y-54770608D01*
X161025547Y-54786694D01*
X161002694Y-54795935D01*
X160990270Y-54798744D01*
X160946734Y-54812526D01*
X160920487Y-54828711D01*
X160911723Y-54847133D01*
X160920635Y-54867620D01*
X160925918Y-54872459D01*
X160947400Y-54880085D01*
X160974097Y-54879804D01*
X161000270Y-54872873D01*
X161020182Y-54860547D01*
X161028094Y-54844085D01*
X161028365Y-54842992D01*
X161038753Y-54837838D01*
X161059541Y-54835742D01*
X161074889Y-54836434D01*
X161087785Y-54841680D01*
X161090988Y-54854610D01*
X161089354Y-54862226D01*
X161078025Y-54882799D01*
X161059461Y-54905004D01*
X161046578Y-54917585D01*
X161032478Y-54928317D01*
X161016965Y-54933443D01*
X160994529Y-54934515D01*
X160959659Y-54933083D01*
X160951920Y-54932677D01*
X160918719Y-54930062D01*
X160897408Y-54925605D01*
X160882846Y-54917677D01*
X160869890Y-54904649D01*
X160856975Y-54885028D01*
X160847744Y-54849886D01*
X160852736Y-54815135D01*
X160871862Y-54786184D01*
X160880068Y-54778717D01*
X160892437Y-54769185D01*
X160906761Y-54762137D01*
X160928198Y-54755291D01*
X160961908Y-54746364D01*
X160974090Y-54742900D01*
X161002903Y-54729689D01*
X161014789Y-54713162D01*
X161010432Y-54692560D01*
X161007152Y-54687848D01*
X160987575Y-54676216D01*
X160961375Y-54672997D01*
X160935824Y-54678239D01*
X160918192Y-54691985D01*
X160906048Y-54703656D01*
X160877684Y-54709955D01*
X160857899Y-54707155D01*
X160848911Y-54696420D01*
X160855926Y-54677601D01*
X160878947Y-54650655D01*
X160894330Y-54636233D01*
X160911352Y-54625587D01*
X160932224Y-54621055D01*
X160963990Y-54620107D01*
X160984433Y-54620432D01*
G37*
G36*
X164379421Y-53829004D02*
G01*
X164379421Y-53882746D01*
X164282834Y-53885297D01*
X164186248Y-53887847D01*
X164183864Y-54146159D01*
X164181480Y-54404472D01*
X164118862Y-54404472D01*
X164056244Y-54404472D01*
X164053860Y-54146159D01*
X164051476Y-53887847D01*
X163954450Y-53885292D01*
X163857425Y-53882737D01*
X163860110Y-53831383D01*
X163862795Y-53780029D01*
X164121108Y-53777645D01*
X164379421Y-53775261D01*
X164379421Y-53829004D01*
G37*
G36*
X163660638Y-54090004D02*
G01*
X163660638Y-54404472D01*
X163597744Y-54404472D01*
X163534851Y-54404472D01*
X163534851Y-54090004D01*
X163534851Y-53775537D01*
X163597744Y-53775537D01*
X163660638Y-53775537D01*
X163660638Y-54090004D01*
G37*
G36*
X162914900Y-53975127D02*
G01*
X162915009Y-54034703D01*
X162915461Y-54085431D01*
X162916385Y-54121796D01*
X162917905Y-54145695D01*
X162920148Y-54159024D01*
X162923240Y-54163681D01*
X162927308Y-54161562D01*
X162932970Y-54154359D01*
X162948094Y-54133520D01*
X162970616Y-54101684D01*
X162999008Y-54061030D01*
X163031744Y-54013733D01*
X163067298Y-53961971D01*
X163194880Y-53775537D01*
X163252555Y-53775537D01*
X163310231Y-53775537D01*
X163310231Y-54090004D01*
X163310231Y-54404472D01*
X163242845Y-54404472D01*
X163175459Y-54404472D01*
X163175459Y-54210769D01*
X163175405Y-54187015D01*
X163174847Y-54133046D01*
X163173761Y-54086997D01*
X163172242Y-54051382D01*
X163170386Y-54028711D01*
X163168288Y-54021497D01*
X163163076Y-54027692D01*
X163148770Y-54047027D01*
X163126998Y-54077453D01*
X163099198Y-54116940D01*
X163066809Y-54163455D01*
X163031270Y-54214968D01*
X162901423Y-54404008D01*
X162845268Y-54404240D01*
X162789113Y-54404472D01*
X162789113Y-54090004D01*
X162789113Y-53775537D01*
X162852007Y-53775537D01*
X162914900Y-53775537D01*
X162914900Y-53975127D01*
G37*
G36*
X162310094Y-53916336D02*
G01*
X162425229Y-54057135D01*
X162427703Y-53916336D01*
X162430178Y-53775537D01*
X162497335Y-53775537D01*
X162564493Y-53775537D01*
X162564493Y-54090004D01*
X162564493Y-54404472D01*
X162497107Y-54404472D01*
X162429721Y-54404472D01*
X162429721Y-54314097D01*
X162429708Y-54299086D01*
X162429184Y-54262442D01*
X162427123Y-54237665D01*
X162422480Y-54220131D01*
X162414209Y-54205220D01*
X162401263Y-54188310D01*
X162390744Y-54175727D01*
X162375317Y-54159320D01*
X162366607Y-54152898D01*
X162362352Y-54156961D01*
X162349370Y-54173750D01*
X162329643Y-54201277D01*
X162304928Y-54237077D01*
X162276980Y-54278685D01*
X162193550Y-54404472D01*
X162117502Y-54404472D01*
X162091124Y-54404204D01*
X162062618Y-54402524D01*
X162048289Y-54398990D01*
X162045838Y-54393241D01*
X162046928Y-54391130D01*
X162056313Y-54376009D01*
X162073776Y-54349239D01*
X162097765Y-54313161D01*
X162126727Y-54270118D01*
X162159109Y-54222449D01*
X162171467Y-54204308D01*
X162202290Y-54158764D01*
X162228827Y-54119129D01*
X162249605Y-54087631D01*
X162263152Y-54066492D01*
X162267995Y-54057939D01*
X162262750Y-54050096D01*
X162247727Y-54030656D01*
X162224727Y-54001907D01*
X162195553Y-53966102D01*
X162162010Y-53925495D01*
X162129626Y-53886398D01*
X162099077Y-53849228D01*
X162074179Y-53818629D01*
X162056892Y-53797007D01*
X162049170Y-53786768D01*
X162048812Y-53782162D01*
X162058116Y-53778225D01*
X162080598Y-53776145D01*
X162118637Y-53775537D01*
X162194958Y-53775537D01*
X162310094Y-53916336D01*
G37*
G36*
X161854695Y-54090004D02*
G01*
X161854695Y-54404472D01*
X161643552Y-54404472D01*
X161432410Y-54404472D01*
X161432410Y-54350563D01*
X161432410Y-54296655D01*
X161576166Y-54296655D01*
X161719923Y-54296655D01*
X161719923Y-54220284D01*
X161719923Y-54143913D01*
X161589644Y-54143913D01*
X161459364Y-54143913D01*
X161459364Y-54090004D01*
X161459364Y-54036096D01*
X161589644Y-54036096D01*
X161719923Y-54036096D01*
X161719923Y-53959725D01*
X161719923Y-53883354D01*
X161576166Y-53883354D01*
X161432410Y-53883354D01*
X161432410Y-53829446D01*
X161432410Y-53775537D01*
X161643552Y-53775537D01*
X161854695Y-53775537D01*
X161854695Y-54090004D01*
G37*
G36*
X161216775Y-54090004D02*
G01*
X161216775Y-54404472D01*
X161149389Y-54404472D01*
X161082003Y-54404472D01*
X161082003Y-54292162D01*
X161082003Y-54179852D01*
X161034358Y-54179852D01*
X160986713Y-54179852D01*
X160928787Y-54288763D01*
X160922676Y-54300171D01*
X160901286Y-54338846D01*
X160882668Y-54370646D01*
X160868643Y-54392539D01*
X160861035Y-54401494D01*
X160860782Y-54401585D01*
X160846734Y-54403082D01*
X160820465Y-54403465D01*
X160787453Y-54402648D01*
X160723696Y-54399980D01*
X160785796Y-54287670D01*
X160794147Y-54272484D01*
X160815293Y-54233216D01*
X160832331Y-54200395D01*
X160843690Y-54177091D01*
X160847801Y-54166375D01*
X160847402Y-54164672D01*
X160837654Y-54153219D01*
X160818966Y-54139310D01*
X160818239Y-54138849D01*
X160783370Y-54106625D01*
X160759722Y-54064078D01*
X160747373Y-54014917D01*
X160746451Y-53965655D01*
X160882668Y-53965655D01*
X160882862Y-54004057D01*
X160895832Y-54036502D01*
X160920249Y-54058543D01*
X160932070Y-54063164D01*
X160967260Y-54069722D01*
X161014171Y-54072035D01*
X161082003Y-54072035D01*
X161082003Y-53977695D01*
X161082003Y-53883354D01*
X161021356Y-53883368D01*
X160976258Y-53886026D01*
X160933484Y-53897101D01*
X160904232Y-53917426D01*
X160887083Y-53947679D01*
X160882668Y-53965655D01*
X160746451Y-53965655D01*
X160746398Y-53962851D01*
X160756875Y-53911588D01*
X160778881Y-53864836D01*
X160812491Y-53826305D01*
X160832980Y-53811373D01*
X160862177Y-53797045D01*
X160898178Y-53786832D01*
X160943748Y-53780200D01*
X161001650Y-53776613D01*
X161074649Y-53775537D01*
X161216775Y-53775537D01*
X161216775Y-53977695D01*
X161216775Y-54090004D01*
G37*
G36*
X164520343Y-49763377D02*
G01*
X164507346Y-49919172D01*
X164478504Y-50069311D01*
X164476031Y-50079015D01*
X164432298Y-50220765D01*
X164375603Y-50355344D01*
X164304353Y-50486088D01*
X164216954Y-50616331D01*
X164194267Y-50645375D01*
X164160449Y-50685725D01*
X164118785Y-50733474D01*
X164071722Y-50785863D01*
X164021704Y-50840133D01*
X163971180Y-50893525D01*
X163965064Y-50899896D01*
X163896550Y-50971732D01*
X163839260Y-51032907D01*
X163791735Y-51085219D01*
X163752512Y-51130468D01*
X163720131Y-51170451D01*
X163693129Y-51206967D01*
X163670045Y-51241816D01*
X163649419Y-51276796D01*
X163629788Y-51313704D01*
X163583847Y-51414068D01*
X163549349Y-51514466D01*
X163525793Y-51618234D01*
X163512221Y-51729599D01*
X163507674Y-51852792D01*
X163507596Y-51870130D01*
X163505581Y-51968127D01*
X163505332Y-51980217D01*
X163499777Y-52074930D01*
X163490554Y-52156337D01*
X163477284Y-52226504D01*
X163459590Y-52287499D01*
X163437094Y-52341389D01*
X163409418Y-52390241D01*
X163401545Y-52402124D01*
X163350961Y-52465416D01*
X163291450Y-52517889D01*
X163218601Y-52563549D01*
X163168482Y-52592121D01*
X163116858Y-52627830D01*
X163078260Y-52665127D01*
X163050699Y-52707236D01*
X163032188Y-52757379D01*
X163020738Y-52818779D01*
X163014363Y-52894659D01*
X163011747Y-52940114D01*
X163008696Y-52977896D01*
X163004698Y-53005747D01*
X162998894Y-53027914D01*
X162990423Y-53048642D01*
X162978426Y-53072177D01*
X162933127Y-53144941D01*
X162869364Y-53220446D01*
X162796285Y-53283300D01*
X162716288Y-53331131D01*
X162690007Y-53342647D01*
X162665368Y-53349483D01*
X162637590Y-53351607D01*
X162599334Y-53350218D01*
X162586382Y-53349315D01*
X162541005Y-53343139D01*
X162501112Y-53331237D01*
X162462476Y-53311575D01*
X162420868Y-53282117D01*
X162372059Y-53240827D01*
X162325229Y-53196361D01*
X162262218Y-53124136D01*
X162215421Y-53052299D01*
X162185624Y-52981941D01*
X162180818Y-52965457D01*
X162173942Y-52935760D01*
X162170598Y-52906370D01*
X162170283Y-52871233D01*
X162172491Y-52824296D01*
X162174374Y-52770222D01*
X162171132Y-52727669D01*
X162160555Y-52695004D01*
X162140574Y-52668263D01*
X162109120Y-52643484D01*
X162064126Y-52616704D01*
X161991786Y-52573187D01*
X161920473Y-52520176D01*
X161862027Y-52462898D01*
X161813696Y-52398591D01*
X161772725Y-52324493D01*
X161764505Y-52307096D01*
X161748097Y-52270073D01*
X161735169Y-52235701D01*
X161725205Y-52201034D01*
X161717686Y-52163127D01*
X161712096Y-52119033D01*
X161707917Y-52065808D01*
X161705338Y-52014518D01*
X161837276Y-52014518D01*
X161838047Y-52049087D01*
X161850879Y-52147709D01*
X161878897Y-52237942D01*
X161921342Y-52318771D01*
X161977458Y-52389180D01*
X162046486Y-52448153D01*
X162127670Y-52494677D01*
X162220250Y-52527734D01*
X162237340Y-52532020D01*
X162258274Y-52536349D01*
X162281352Y-52539790D01*
X162308834Y-52542475D01*
X162342983Y-52544532D01*
X162386057Y-52546093D01*
X162440319Y-52547287D01*
X162508029Y-52548244D01*
X162591448Y-52549094D01*
X162646470Y-52549523D01*
X162729664Y-52549775D01*
X162797427Y-52549357D01*
X162851368Y-52548228D01*
X162893095Y-52546348D01*
X162924218Y-52543676D01*
X162946347Y-52540172D01*
X162962816Y-52536393D01*
X163057924Y-52505047D01*
X163141293Y-52460128D01*
X163212686Y-52401865D01*
X163271865Y-52330485D01*
X163318593Y-52246217D01*
X163352633Y-52149290D01*
X163352957Y-52148056D01*
X163359304Y-52114168D01*
X163364057Y-52070224D01*
X163367170Y-52020214D01*
X163368596Y-51968127D01*
X163368290Y-51917951D01*
X163366203Y-51873676D01*
X163362289Y-51839289D01*
X163356503Y-51818780D01*
X163345197Y-51798246D01*
X162660593Y-51800811D01*
X162547013Y-51801243D01*
X162434746Y-51801707D01*
X162338072Y-51802181D01*
X162255730Y-51802703D01*
X162186461Y-51803311D01*
X162129004Y-51804041D01*
X162082099Y-51804931D01*
X162044488Y-51806018D01*
X162014908Y-51807340D01*
X161992102Y-51808934D01*
X161974808Y-51810837D01*
X161961766Y-51813086D01*
X161951718Y-51815720D01*
X161943401Y-51818774D01*
X161935558Y-51822287D01*
X161906157Y-51838573D01*
X161874104Y-51867098D01*
X161852874Y-51904103D01*
X161841066Y-51952328D01*
X161837276Y-52014518D01*
X161705338Y-52014518D01*
X161704633Y-52000504D01*
X161701725Y-51920178D01*
X161701418Y-51910922D01*
X161697621Y-51817315D01*
X161692800Y-51738327D01*
X161686542Y-51670893D01*
X161678432Y-51611945D01*
X161668054Y-51558420D01*
X161654995Y-51507250D01*
X161638839Y-51455370D01*
X161620404Y-51403477D01*
X161594114Y-51340281D01*
X161564200Y-51281449D01*
X161528894Y-51224425D01*
X161486429Y-51166653D01*
X161435034Y-51105578D01*
X161372944Y-51038645D01*
X161298389Y-50963298D01*
X161276672Y-50941758D01*
X161217999Y-50882425D01*
X161170679Y-50832486D01*
X161133068Y-50790109D01*
X161103518Y-50753460D01*
X161080382Y-50720708D01*
X161014309Y-50618334D01*
X160956499Y-50526212D01*
X160907508Y-50444719D01*
X160866392Y-50371926D01*
X160832208Y-50305907D01*
X160804010Y-50244732D01*
X160780855Y-50186473D01*
X160761797Y-50129204D01*
X160745892Y-50070995D01*
X160732197Y-50009920D01*
X160720169Y-49944980D01*
X160700199Y-49772821D01*
X160697683Y-49623657D01*
X160826654Y-49623657D01*
X160835739Y-49790889D01*
X160862144Y-49962906D01*
X160875855Y-50026699D01*
X160902031Y-50126075D01*
X160933167Y-50215826D01*
X160971458Y-50301205D01*
X161019099Y-50387464D01*
X161078288Y-50479855D01*
X161114076Y-50532207D01*
X161161599Y-50599173D01*
X161207265Y-50659763D01*
X161254100Y-50717677D01*
X161305128Y-50776615D01*
X161363372Y-50840277D01*
X161431857Y-50912360D01*
X161465598Y-50947772D01*
X161511697Y-50997246D01*
X161554543Y-51044429D01*
X161591797Y-51086693D01*
X161621115Y-51121413D01*
X161640157Y-51145965D01*
X161679840Y-51206107D01*
X161732580Y-51305322D01*
X161769630Y-51405796D01*
X161792209Y-51510454D01*
X161796775Y-51537339D01*
X161810862Y-51588334D01*
X161830698Y-51625198D01*
X161857370Y-51650270D01*
X161859114Y-51651293D01*
X161866116Y-51653968D01*
X161877074Y-51656277D01*
X161893261Y-51658254D01*
X161915952Y-51659932D01*
X161946421Y-51661344D01*
X161985941Y-51662523D01*
X162035787Y-51663501D01*
X162097232Y-51664313D01*
X162171551Y-51664990D01*
X162260017Y-51665567D01*
X162363905Y-51666076D01*
X162484488Y-51666551D01*
X162497631Y-51666598D01*
X162635755Y-51667035D01*
X162757153Y-51667281D01*
X162862967Y-51667304D01*
X162954338Y-51667075D01*
X163032409Y-51666562D01*
X163098321Y-51665737D01*
X163153216Y-51664568D01*
X163198234Y-51663025D01*
X163234518Y-51661078D01*
X163263210Y-51658697D01*
X163285451Y-51655850D01*
X163302382Y-51652509D01*
X163315146Y-51648641D01*
X163324884Y-51644218D01*
X163348047Y-51628458D01*
X163374171Y-51602961D01*
X163392906Y-51575962D01*
X163400079Y-51552549D01*
X163400614Y-51542694D01*
X163406619Y-51507578D01*
X163418137Y-51462723D01*
X163433725Y-51412890D01*
X163451941Y-51362844D01*
X163471340Y-51317347D01*
X163497605Y-51264770D01*
X163530626Y-51207166D01*
X163568866Y-51149116D01*
X163613767Y-51088791D01*
X163666772Y-51024362D01*
X163729323Y-50954001D01*
X163802864Y-50875879D01*
X163888838Y-50788167D01*
X163936646Y-50739381D01*
X163992821Y-50679973D01*
X164042196Y-50625361D01*
X164082597Y-50577964D01*
X164111847Y-50540202D01*
X164129524Y-50514555D01*
X164176972Y-50437863D01*
X164223159Y-50352928D01*
X164264537Y-50266524D01*
X164297562Y-50185424D01*
X164299529Y-50179959D01*
X164334797Y-50062806D01*
X164361273Y-49936012D01*
X164378195Y-49805367D01*
X164384804Y-49676662D01*
X164380336Y-49555687D01*
X164360415Y-49402831D01*
X164322458Y-49234046D01*
X164268485Y-49073373D01*
X164198528Y-48920881D01*
X164112619Y-48776639D01*
X164010790Y-48640716D01*
X163893074Y-48513180D01*
X163871526Y-48492249D01*
X163789166Y-48416982D01*
X163708930Y-48352330D01*
X163625875Y-48294800D01*
X163535054Y-48240900D01*
X163431525Y-48187136D01*
X163385481Y-48165115D01*
X163213642Y-48094130D01*
X163041090Y-48040725D01*
X162866519Y-48004611D01*
X162688621Y-47985501D01*
X162506092Y-47983107D01*
X162368999Y-47991875D01*
X162234648Y-48011072D01*
X162106561Y-48041592D01*
X161979994Y-48084579D01*
X161850202Y-48141177D01*
X161729964Y-48204053D01*
X161576429Y-48300621D01*
X161432739Y-48410174D01*
X161300527Y-48531315D01*
X161181427Y-48662648D01*
X161077071Y-48802774D01*
X161041075Y-48859008D01*
X160963540Y-49002430D01*
X160903331Y-49150598D01*
X160860448Y-49303520D01*
X160834889Y-49461204D01*
X160826654Y-49623657D01*
X160697683Y-49623657D01*
X160697330Y-49602708D01*
X160710945Y-49435488D01*
X160740426Y-49272010D01*
X160785159Y-49113120D01*
X160844525Y-48959667D01*
X160917909Y-48812496D01*
X161004694Y-48672456D01*
X161104264Y-48540395D01*
X161216001Y-48417159D01*
X161339291Y-48303595D01*
X161473515Y-48200552D01*
X161618057Y-48108876D01*
X161772302Y-48029415D01*
X161935632Y-47963017D01*
X162107432Y-47910528D01*
X162287083Y-47872796D01*
X162341130Y-47864778D01*
X162490207Y-47851593D01*
X162641945Y-47851546D01*
X162799452Y-47864722D01*
X162965834Y-47891205D01*
X163070967Y-47914105D01*
X163246010Y-47964272D01*
X163413574Y-48027610D01*
X163572272Y-48103350D01*
X163720717Y-48190723D01*
X163857522Y-48288959D01*
X163981300Y-48397288D01*
X164090662Y-48514943D01*
X164110146Y-48538776D01*
X164207035Y-48672204D01*
X164291829Y-48815002D01*
X164364059Y-48965292D01*
X164423256Y-49121196D01*
X164468951Y-49280834D01*
X164500677Y-49442330D01*
X164517963Y-49603803D01*
X164519050Y-49676662D01*
X164520343Y-49763377D01*
G37*
G36*
X162984196Y-50427191D02*
G01*
X163012039Y-50442530D01*
X163014510Y-50444888D01*
X163020664Y-50452149D01*
X163025144Y-50461729D01*
X163028213Y-50476236D01*
X163030138Y-50498278D01*
X163031184Y-50530464D01*
X163031617Y-50575403D01*
X163031702Y-50635703D01*
X163031702Y-50640444D01*
X163031568Y-50699865D01*
X163031028Y-50744099D01*
X163029838Y-50775748D01*
X163027756Y-50797414D01*
X163024539Y-50811697D01*
X163019946Y-50821201D01*
X163013733Y-50828526D01*
X163011479Y-50830659D01*
X162984194Y-50844351D01*
X162953422Y-50843514D01*
X162925579Y-50828176D01*
X162923107Y-50825818D01*
X162916953Y-50818557D01*
X162912474Y-50808977D01*
X162909405Y-50794470D01*
X162907480Y-50772428D01*
X162906434Y-50740241D01*
X162906001Y-50695302D01*
X162905915Y-50635003D01*
X162905916Y-50630262D01*
X162906049Y-50570841D01*
X162906590Y-50526606D01*
X162907780Y-50494957D01*
X162909862Y-50473292D01*
X162913079Y-50459009D01*
X162917672Y-50449505D01*
X162923885Y-50442180D01*
X162926138Y-50440047D01*
X162953423Y-50426355D01*
X162984196Y-50427191D01*
G37*
G36*
X162714652Y-50427191D02*
G01*
X162742495Y-50442530D01*
X162744966Y-50444888D01*
X162751121Y-50452149D01*
X162755600Y-50461729D01*
X162758669Y-50476236D01*
X162760594Y-50498278D01*
X162761640Y-50530464D01*
X162762073Y-50575403D01*
X162762159Y-50635703D01*
X162762158Y-50640444D01*
X162762025Y-50699865D01*
X162761484Y-50744099D01*
X162760294Y-50775748D01*
X162758212Y-50797414D01*
X162754995Y-50811697D01*
X162750402Y-50821201D01*
X162744189Y-50828526D01*
X162741936Y-50830659D01*
X162714651Y-50844351D01*
X162683878Y-50843514D01*
X162656035Y-50828176D01*
X162653564Y-50825818D01*
X162647409Y-50818557D01*
X162642930Y-50808977D01*
X162639861Y-50794470D01*
X162637936Y-50772428D01*
X162636890Y-50740241D01*
X162636457Y-50695302D01*
X162636372Y-50635003D01*
X162636372Y-50630262D01*
X162636505Y-50570841D01*
X162637046Y-50526606D01*
X162638236Y-50494957D01*
X162640318Y-50473292D01*
X162643535Y-50459009D01*
X162648128Y-50449505D01*
X162654341Y-50442180D01*
X162656595Y-50440047D01*
X162683880Y-50426355D01*
X162714652Y-50427191D01*
G37*
G36*
X162445109Y-50427191D02*
G01*
X162472951Y-50442530D01*
X162475423Y-50444888D01*
X162481577Y-50452149D01*
X162486056Y-50461729D01*
X162489125Y-50476236D01*
X162491050Y-50498278D01*
X162492097Y-50530464D01*
X162492530Y-50575403D01*
X162492615Y-50635703D01*
X162492615Y-50640444D01*
X162492481Y-50699865D01*
X162491940Y-50744099D01*
X162490750Y-50775748D01*
X162488668Y-50797414D01*
X162485452Y-50811697D01*
X162480858Y-50821201D01*
X162474645Y-50828526D01*
X162472392Y-50830659D01*
X162445107Y-50844351D01*
X162414334Y-50843514D01*
X162386492Y-50828176D01*
X162384020Y-50825818D01*
X162377866Y-50818557D01*
X162373387Y-50808977D01*
X162370317Y-50794470D01*
X162368392Y-50772428D01*
X162367346Y-50740241D01*
X162366913Y-50695302D01*
X162366828Y-50635003D01*
X162366828Y-50630262D01*
X162366962Y-50570841D01*
X162367502Y-50526606D01*
X162368692Y-50494957D01*
X162370775Y-50473292D01*
X162373991Y-50459009D01*
X162378585Y-50449505D01*
X162384797Y-50442180D01*
X162387051Y-50440047D01*
X162414336Y-50426355D01*
X162445109Y-50427191D01*
G37*
G36*
X162175565Y-50427191D02*
G01*
X162203408Y-50442530D01*
X162205879Y-50444888D01*
X162212033Y-50452149D01*
X162216512Y-50461729D01*
X162219582Y-50476236D01*
X162221507Y-50498278D01*
X162222553Y-50530464D01*
X162222986Y-50575403D01*
X162223071Y-50635703D01*
X162223071Y-50640444D01*
X162222937Y-50699865D01*
X162222397Y-50744099D01*
X162221207Y-50775748D01*
X162219125Y-50797414D01*
X162215908Y-50811697D01*
X162211315Y-50821201D01*
X162205102Y-50828526D01*
X162202848Y-50830659D01*
X162175563Y-50844351D01*
X162144791Y-50843514D01*
X162116948Y-50828176D01*
X162114476Y-50825818D01*
X162108322Y-50818557D01*
X162103843Y-50808977D01*
X162100774Y-50794470D01*
X162098849Y-50772428D01*
X162097803Y-50740241D01*
X162097370Y-50695302D01*
X162097284Y-50635003D01*
X162097285Y-50630262D01*
X162097418Y-50570841D01*
X162097959Y-50526606D01*
X162099149Y-50494957D01*
X162101231Y-50473292D01*
X162104447Y-50459009D01*
X162109041Y-50449505D01*
X162115254Y-50442180D01*
X162117507Y-50440047D01*
X162144792Y-50426355D01*
X162175565Y-50427191D01*
G37*
G36*
X162621840Y-49112432D02*
G01*
X162723885Y-49112487D01*
X162810244Y-49112715D01*
X162882367Y-49113238D01*
X162941702Y-49114177D01*
X162989701Y-49115653D01*
X163027812Y-49117789D01*
X163057485Y-49120705D01*
X163080171Y-49124524D01*
X163097318Y-49129367D01*
X163110377Y-49135355D01*
X163120797Y-49142610D01*
X163130028Y-49151254D01*
X163139520Y-49161409D01*
X163161982Y-49185748D01*
X163164432Y-49723184D01*
X163166883Y-50260619D01*
X163142416Y-50289697D01*
X163138530Y-50294092D01*
X163114530Y-50315728D01*
X163090549Y-50330709D01*
X163083131Y-50332933D01*
X163067997Y-50335279D01*
X163044988Y-50337251D01*
X163012844Y-50338877D01*
X162970303Y-50340186D01*
X162916102Y-50341207D01*
X162848980Y-50341969D01*
X162767675Y-50342502D01*
X162670924Y-50342835D01*
X162557466Y-50342996D01*
X162487453Y-50343043D01*
X162385724Y-50343056D01*
X162299639Y-50342883D01*
X162227752Y-50342404D01*
X162168617Y-50341499D01*
X162120786Y-50340048D01*
X162082812Y-50337930D01*
X162053250Y-50335027D01*
X162030652Y-50331216D01*
X162013573Y-50326380D01*
X162000564Y-50320397D01*
X161990179Y-50313148D01*
X161980973Y-50304512D01*
X161971497Y-50294369D01*
X161949035Y-50270030D01*
X161946585Y-49732595D01*
X161944134Y-49195159D01*
X161968627Y-49166050D01*
X161975372Y-49158032D01*
X161984350Y-49148121D01*
X161993977Y-49139761D01*
X162005697Y-49132820D01*
X162020951Y-49127166D01*
X162041185Y-49122667D01*
X162067842Y-49119191D01*
X162102364Y-49116606D01*
X162146195Y-49114781D01*
X162200779Y-49113583D01*
X162267559Y-49112881D01*
X162347978Y-49112543D01*
X162443480Y-49112437D01*
X162555508Y-49112431D01*
X162621840Y-49112432D01*
G37*
G36*
X163500605Y-50055942D02*
G01*
X163545340Y-50056452D01*
X163577363Y-50057625D01*
X163599356Y-50059721D01*
X163614002Y-50063001D01*
X163623985Y-50067725D01*
X163631989Y-50074154D01*
X163640954Y-50085051D01*
X163651086Y-50114511D01*
X163648705Y-50146177D01*
X163633683Y-50172636D01*
X163626799Y-50178554D01*
X163617363Y-50183300D01*
X163603235Y-50186610D01*
X163581760Y-50188741D01*
X163550282Y-50189947D01*
X163506146Y-50190484D01*
X163446697Y-50190606D01*
X163389401Y-50190498D01*
X163344665Y-50189987D01*
X163312642Y-50188815D01*
X163290650Y-50186719D01*
X163276003Y-50183439D01*
X163266020Y-50178715D01*
X163258016Y-50172286D01*
X163249052Y-50161388D01*
X163238920Y-50131928D01*
X163241301Y-50100262D01*
X163256322Y-50073804D01*
X163263207Y-50067886D01*
X163272642Y-50063140D01*
X163286770Y-50059829D01*
X163308245Y-50057699D01*
X163339723Y-50056493D01*
X163383859Y-50055956D01*
X163443308Y-50055834D01*
X163500605Y-50055942D01*
G37*
G36*
X161721616Y-50055942D02*
G01*
X161766352Y-50056452D01*
X161798375Y-50057625D01*
X161820367Y-50059721D01*
X161835014Y-50063001D01*
X161844997Y-50067725D01*
X161853001Y-50074154D01*
X161861965Y-50085051D01*
X161872097Y-50114511D01*
X161869716Y-50146177D01*
X161854695Y-50172636D01*
X161847810Y-50178554D01*
X161838375Y-50183300D01*
X161824247Y-50186610D01*
X161802772Y-50188741D01*
X161771294Y-50189947D01*
X161727158Y-50190484D01*
X161667708Y-50190606D01*
X161610412Y-50190498D01*
X161565676Y-50189987D01*
X161533654Y-50188815D01*
X161511661Y-50186719D01*
X161497015Y-50183439D01*
X161487032Y-50178715D01*
X161479028Y-50172286D01*
X161470063Y-50161388D01*
X161459931Y-50131928D01*
X161462312Y-50100262D01*
X161477334Y-50073804D01*
X161484218Y-50067886D01*
X161493654Y-50063140D01*
X161507782Y-50059829D01*
X161529257Y-50057699D01*
X161560735Y-50056493D01*
X161604871Y-50055956D01*
X161664320Y-50055834D01*
X161721616Y-50055942D01*
G37*
G36*
X163500605Y-49786398D02*
G01*
X163545340Y-49786909D01*
X163577363Y-49788081D01*
X163599356Y-49790177D01*
X163614002Y-49793457D01*
X163623985Y-49798181D01*
X163631989Y-49804610D01*
X163640954Y-49815508D01*
X163651086Y-49844968D01*
X163648705Y-49876634D01*
X163633683Y-49903093D01*
X163626799Y-49909010D01*
X163617363Y-49913756D01*
X163603235Y-49917067D01*
X163581760Y-49919197D01*
X163550282Y-49920404D01*
X163506146Y-49920940D01*
X163446697Y-49921062D01*
X163389401Y-49920954D01*
X163344665Y-49920444D01*
X163312642Y-49919271D01*
X163290650Y-49917175D01*
X163276003Y-49913895D01*
X163266020Y-49909171D01*
X163258016Y-49902743D01*
X163249052Y-49891845D01*
X163238920Y-49862385D01*
X163241301Y-49830719D01*
X163256322Y-49804260D01*
X163263207Y-49798342D01*
X163272642Y-49793596D01*
X163286770Y-49790286D01*
X163308245Y-49788155D01*
X163339723Y-49786949D01*
X163383859Y-49786412D01*
X163443308Y-49786290D01*
X163500605Y-49786398D01*
G37*
G36*
X161721616Y-49786398D02*
G01*
X161766352Y-49786909D01*
X161798375Y-49788081D01*
X161820367Y-49790177D01*
X161835014Y-49793457D01*
X161844997Y-49798181D01*
X161853001Y-49804610D01*
X161861965Y-49815508D01*
X161872097Y-49844968D01*
X161869716Y-49876634D01*
X161854695Y-49903093D01*
X161847810Y-49909010D01*
X161838375Y-49913756D01*
X161824247Y-49917067D01*
X161802772Y-49919197D01*
X161771294Y-49920404D01*
X161727158Y-49920940D01*
X161667708Y-49921062D01*
X161610412Y-49920954D01*
X161565676Y-49920444D01*
X161533654Y-49919271D01*
X161511661Y-49917175D01*
X161497015Y-49913895D01*
X161487032Y-49909171D01*
X161479028Y-49902743D01*
X161470063Y-49891845D01*
X161459931Y-49862385D01*
X161462312Y-49830719D01*
X161477334Y-49804260D01*
X161484218Y-49798342D01*
X161493654Y-49793596D01*
X161507782Y-49790286D01*
X161529257Y-49788155D01*
X161560735Y-49786949D01*
X161604871Y-49786412D01*
X161664320Y-49786290D01*
X161721616Y-49786398D01*
G37*
G36*
X163500605Y-49516855D02*
G01*
X163545340Y-49517365D01*
X163577363Y-49518538D01*
X163599356Y-49520634D01*
X163614002Y-49523913D01*
X163623985Y-49528637D01*
X163631989Y-49535066D01*
X163640954Y-49545964D01*
X163651086Y-49575424D01*
X163648705Y-49607090D01*
X163633683Y-49633549D01*
X163626799Y-49639467D01*
X163617363Y-49644212D01*
X163603235Y-49647523D01*
X163581760Y-49649654D01*
X163550282Y-49650860D01*
X163506146Y-49651396D01*
X163446697Y-49651518D01*
X163389401Y-49651410D01*
X163344665Y-49650900D01*
X163312642Y-49649727D01*
X163290650Y-49647631D01*
X163276003Y-49644352D01*
X163266020Y-49639628D01*
X163258016Y-49633199D01*
X163249052Y-49622301D01*
X163238920Y-49592841D01*
X163241301Y-49561175D01*
X163256322Y-49534716D01*
X163263207Y-49528798D01*
X163272642Y-49524053D01*
X163286770Y-49520742D01*
X163308245Y-49518611D01*
X163339723Y-49517405D01*
X163383859Y-49516869D01*
X163443308Y-49516747D01*
X163500605Y-49516855D01*
G37*
G36*
X161721616Y-49516855D02*
G01*
X161766352Y-49517365D01*
X161798375Y-49518538D01*
X161820367Y-49520634D01*
X161835014Y-49523913D01*
X161844997Y-49528637D01*
X161853001Y-49535066D01*
X161861965Y-49545964D01*
X161872097Y-49575424D01*
X161869716Y-49607090D01*
X161854695Y-49633549D01*
X161847810Y-49639467D01*
X161838375Y-49644212D01*
X161824247Y-49647523D01*
X161802772Y-49649654D01*
X161771294Y-49650860D01*
X161727158Y-49651396D01*
X161667708Y-49651518D01*
X161610412Y-49651410D01*
X161565676Y-49650900D01*
X161533654Y-49649727D01*
X161511661Y-49647631D01*
X161497015Y-49644352D01*
X161487032Y-49639628D01*
X161479028Y-49633199D01*
X161470063Y-49622301D01*
X161459931Y-49592841D01*
X161462312Y-49561175D01*
X161477334Y-49534716D01*
X161484218Y-49528798D01*
X161493654Y-49524053D01*
X161507782Y-49520742D01*
X161529257Y-49518611D01*
X161560735Y-49517405D01*
X161604871Y-49516869D01*
X161664320Y-49516747D01*
X161721616Y-49516855D01*
G37*
G36*
X163500605Y-49247311D02*
G01*
X163545340Y-49247821D01*
X163577363Y-49248994D01*
X163599356Y-49251090D01*
X163614002Y-49254370D01*
X163623985Y-49259094D01*
X163631989Y-49265522D01*
X163640954Y-49276420D01*
X163651086Y-49305880D01*
X163648705Y-49337546D01*
X163633683Y-49364005D01*
X163626799Y-49369923D01*
X163617363Y-49374669D01*
X163603235Y-49377979D01*
X163581760Y-49380110D01*
X163550282Y-49381316D01*
X163506146Y-49381853D01*
X163446697Y-49381975D01*
X163389401Y-49381867D01*
X163344665Y-49381356D01*
X163312642Y-49380184D01*
X163290650Y-49378088D01*
X163276003Y-49374808D01*
X163266020Y-49370084D01*
X163258016Y-49363655D01*
X163249052Y-49352757D01*
X163238920Y-49323297D01*
X163241301Y-49291631D01*
X163256322Y-49265172D01*
X163263207Y-49259255D01*
X163272642Y-49254509D01*
X163286770Y-49251198D01*
X163308245Y-49249067D01*
X163339723Y-49247861D01*
X163383859Y-49247325D01*
X163443308Y-49247203D01*
X163500605Y-49247311D01*
G37*
G36*
X161721616Y-49247311D02*
G01*
X161766352Y-49247821D01*
X161798375Y-49248994D01*
X161820367Y-49251090D01*
X161835014Y-49254370D01*
X161844997Y-49259094D01*
X161853001Y-49265522D01*
X161861965Y-49276420D01*
X161872097Y-49305880D01*
X161869716Y-49337546D01*
X161854695Y-49364005D01*
X161847810Y-49369923D01*
X161838375Y-49374669D01*
X161824247Y-49377979D01*
X161802772Y-49380110D01*
X161771294Y-49381316D01*
X161727158Y-49381853D01*
X161667708Y-49381975D01*
X161610412Y-49381867D01*
X161565676Y-49381356D01*
X161533654Y-49380184D01*
X161511661Y-49378088D01*
X161497015Y-49374808D01*
X161487032Y-49370084D01*
X161479028Y-49363655D01*
X161470063Y-49352757D01*
X161459931Y-49323297D01*
X161462312Y-49291631D01*
X161477334Y-49265172D01*
X161484218Y-49259255D01*
X161493654Y-49254509D01*
X161507782Y-49251198D01*
X161529257Y-49249067D01*
X161560735Y-49247861D01*
X161604871Y-49247325D01*
X161664320Y-49247203D01*
X161721616Y-49247311D01*
G37*
G36*
X162984196Y-48612264D02*
G01*
X163012039Y-48627602D01*
X163014510Y-48629960D01*
X163020664Y-48637222D01*
X163025144Y-48646802D01*
X163028213Y-48661308D01*
X163030138Y-48683351D01*
X163031184Y-48715537D01*
X163031617Y-48760476D01*
X163031702Y-48820775D01*
X163031702Y-48825516D01*
X163031568Y-48884938D01*
X163031028Y-48929172D01*
X163029838Y-48960821D01*
X163027756Y-48982486D01*
X163024539Y-48996770D01*
X163019946Y-49006273D01*
X163013733Y-49013598D01*
X163011479Y-49015731D01*
X162984194Y-49029423D01*
X162953422Y-49028587D01*
X162925579Y-49013248D01*
X162923107Y-49010890D01*
X162916953Y-49003629D01*
X162912474Y-48994049D01*
X162909405Y-48979542D01*
X162907480Y-48957500D01*
X162906434Y-48925314D01*
X162906001Y-48880375D01*
X162905915Y-48820075D01*
X162905916Y-48815334D01*
X162906049Y-48755913D01*
X162906590Y-48711679D01*
X162907780Y-48680030D01*
X162909862Y-48658365D01*
X162913079Y-48644081D01*
X162917672Y-48634578D01*
X162923885Y-48627252D01*
X162926138Y-48625119D01*
X162953423Y-48611428D01*
X162984196Y-48612264D01*
G37*
G36*
X162714652Y-48612264D02*
G01*
X162742495Y-48627602D01*
X162744966Y-48629960D01*
X162751121Y-48637222D01*
X162755600Y-48646802D01*
X162758669Y-48661308D01*
X162760594Y-48683351D01*
X162761640Y-48715537D01*
X162762073Y-48760476D01*
X162762159Y-48820775D01*
X162762158Y-48825516D01*
X162762025Y-48884938D01*
X162761484Y-48929172D01*
X162760294Y-48960821D01*
X162758212Y-48982486D01*
X162754995Y-48996770D01*
X162750402Y-49006273D01*
X162744189Y-49013598D01*
X162741936Y-49015731D01*
X162714651Y-49029423D01*
X162683878Y-49028587D01*
X162656035Y-49013248D01*
X162653564Y-49010890D01*
X162647409Y-49003629D01*
X162642930Y-48994049D01*
X162639861Y-48979542D01*
X162637936Y-48957500D01*
X162636890Y-48925314D01*
X162636457Y-48880375D01*
X162636372Y-48820075D01*
X162636372Y-48815334D01*
X162636505Y-48755913D01*
X162637046Y-48711679D01*
X162638236Y-48680030D01*
X162640318Y-48658365D01*
X162643535Y-48644081D01*
X162648128Y-48634578D01*
X162654341Y-48627252D01*
X162656595Y-48625119D01*
X162683880Y-48611428D01*
X162714652Y-48612264D01*
G37*
G36*
X162445109Y-48612264D02*
G01*
X162472951Y-48627602D01*
X162475423Y-48629960D01*
X162481577Y-48637222D01*
X162486056Y-48646802D01*
X162489125Y-48661308D01*
X162491050Y-48683351D01*
X162492097Y-48715537D01*
X162492530Y-48760476D01*
X162492615Y-48820775D01*
X162492615Y-48825516D01*
X162492481Y-48884938D01*
X162491940Y-48929172D01*
X162490750Y-48960821D01*
X162488668Y-48982486D01*
X162485452Y-48996770D01*
X162480858Y-49006273D01*
X162474645Y-49013598D01*
X162472392Y-49015731D01*
X162445107Y-49029423D01*
X162414334Y-49028587D01*
X162386492Y-49013248D01*
X162384020Y-49010890D01*
X162377866Y-49003629D01*
X162373387Y-48994049D01*
X162370317Y-48979542D01*
X162368392Y-48957500D01*
X162367346Y-48925314D01*
X162366913Y-48880375D01*
X162366828Y-48820075D01*
X162366828Y-48815334D01*
X162366962Y-48755913D01*
X162367502Y-48711679D01*
X162368692Y-48680030D01*
X162370775Y-48658365D01*
X162373991Y-48644081D01*
X162378585Y-48634578D01*
X162384797Y-48627252D01*
X162387051Y-48625119D01*
X162414336Y-48611428D01*
X162445109Y-48612264D01*
G37*
G36*
X162175565Y-48612264D02*
G01*
X162203408Y-48627602D01*
X162205879Y-48629960D01*
X162212033Y-48637222D01*
X162216512Y-48646802D01*
X162219582Y-48661308D01*
X162221507Y-48683351D01*
X162222553Y-48715537D01*
X162222986Y-48760476D01*
X162223071Y-48820775D01*
X162223071Y-48825516D01*
X162222937Y-48884938D01*
X162222397Y-48929172D01*
X162221207Y-48960821D01*
X162219125Y-48982486D01*
X162215908Y-48996770D01*
X162211315Y-49006273D01*
X162205102Y-49013598D01*
X162202848Y-49015731D01*
X162175563Y-49029423D01*
X162144791Y-49028587D01*
X162116948Y-49013248D01*
X162114476Y-49010890D01*
X162108322Y-49003629D01*
X162103843Y-48994049D01*
X162100774Y-48979542D01*
X162098849Y-48957500D01*
X162097803Y-48925314D01*
X162097370Y-48880375D01*
X162097284Y-48820075D01*
X162097285Y-48815334D01*
X162097418Y-48755913D01*
X162097959Y-48711679D01*
X162099149Y-48680030D01*
X162101231Y-48658365D01*
X162104447Y-48644081D01*
X162109041Y-48634578D01*
X162115254Y-48627252D01*
X162117507Y-48625119D01*
X162144792Y-48611428D01*
X162175565Y-48612264D01*
G37*
D12*
%TO.C,REF\u002A\u002A*%
X169845406Y-63869949D02*
X169871127Y-63885647D01*
X169897778Y-63907227D01*
X169897778Y-64554684D01*
X169871127Y-64576264D01*
X169839767Y-64593739D01*
X169803966Y-64594575D01*
X169772528Y-64574082D01*
X169768652Y-64569416D01*
X169763186Y-64559949D01*
X169758979Y-64546267D01*
X169755867Y-64525748D01*
X169753687Y-64495768D01*
X169752276Y-64453704D01*
X169751471Y-64396932D01*
X169751107Y-64322830D01*
X169751022Y-64228773D01*
X169751022Y-63907227D01*
X169777673Y-63885647D01*
X169801386Y-63870877D01*
X169824400Y-63864067D01*
X169845406Y-63869949D01*
G36*
X169845406Y-63869949D02*
G01*
X169871127Y-63885647D01*
X169897778Y-63907227D01*
X169897778Y-64554684D01*
X169871127Y-64576264D01*
X169839767Y-64593739D01*
X169803966Y-64594575D01*
X169772528Y-64574082D01*
X169768652Y-64569416D01*
X169763186Y-64559949D01*
X169758979Y-64546267D01*
X169755867Y-64525748D01*
X169753687Y-64495768D01*
X169752276Y-64453704D01*
X169751471Y-64396932D01*
X169751107Y-64322830D01*
X169751022Y-64228773D01*
X169751022Y-63907227D01*
X169777673Y-63885647D01*
X169801386Y-63870877D01*
X169824400Y-63864067D01*
X169845406Y-63869949D01*
G37*
X176976137Y-63868463D02*
X177010291Y-63891776D01*
X177038000Y-63919485D01*
X177038000Y-64232537D01*
X177037959Y-64316567D01*
X177037701Y-64390789D01*
X177037030Y-64447541D01*
X177035752Y-64489512D01*
X177033673Y-64519389D01*
X177030599Y-64539861D01*
X177026334Y-64553614D01*
X177020684Y-64563337D01*
X177013455Y-64571717D01*
X176981991Y-64593181D01*
X176946826Y-64594947D01*
X176913822Y-64575267D01*
X176908516Y-64569398D01*
X176903066Y-64560314D01*
X176898900Y-64546973D01*
X176895846Y-64526757D01*
X176893732Y-64497049D01*
X176892386Y-64455232D01*
X176891638Y-64398689D01*
X176891314Y-64324802D01*
X176891245Y-64230956D01*
X176891284Y-64155294D01*
X176891539Y-64077385D01*
X176892183Y-64017375D01*
X176893387Y-63972648D01*
X176895324Y-63940585D01*
X176898164Y-63918571D01*
X176902079Y-63903987D01*
X176907242Y-63894218D01*
X176913822Y-63886645D01*
X176943006Y-63867623D01*
X176976137Y-63868463D01*
G36*
X176976137Y-63868463D02*
G01*
X177010291Y-63891776D01*
X177038000Y-63919485D01*
X177038000Y-64232537D01*
X177037959Y-64316567D01*
X177037701Y-64390789D01*
X177037030Y-64447541D01*
X177035752Y-64489512D01*
X177033673Y-64519389D01*
X177030599Y-64539861D01*
X177026334Y-64553614D01*
X177020684Y-64563337D01*
X177013455Y-64571717D01*
X176981991Y-64593181D01*
X176946826Y-64594947D01*
X176913822Y-64575267D01*
X176908516Y-64569398D01*
X176903066Y-64560314D01*
X176898900Y-64546973D01*
X176895846Y-64526757D01*
X176893732Y-64497049D01*
X176892386Y-64455232D01*
X176891638Y-64398689D01*
X176891314Y-64324802D01*
X176891245Y-64230956D01*
X176891284Y-64155294D01*
X176891539Y-64077385D01*
X176892183Y-64017375D01*
X176893387Y-63972648D01*
X176895324Y-63940585D01*
X176898164Y-63918571D01*
X176902079Y-63903987D01*
X176907242Y-63894218D01*
X176913822Y-63886645D01*
X176943006Y-63867623D01*
X176976137Y-63868463D01*
G37*
X176444562Y-58627850D02*
X176527313Y-58655053D01*
X176602406Y-58700484D01*
X176674298Y-58766302D01*
X176712846Y-58810567D01*
X176752256Y-58868961D01*
X176777446Y-58929586D01*
X176790861Y-58998865D01*
X176794948Y-59083222D01*
X176794669Y-59129307D01*
X176792460Y-59170450D01*
X176786894Y-59202582D01*
X176776586Y-59233122D01*
X176760148Y-59269489D01*
X176746200Y-59296728D01*
X176687665Y-59382429D01*
X176615619Y-59451617D01*
X176531947Y-59502741D01*
X176438531Y-59534250D01*
X176405434Y-59541225D01*
X176364960Y-59548094D01*
X176331999Y-59549919D01*
X176297698Y-59546947D01*
X176253200Y-59539426D01*
X176201934Y-59527002D01*
X176111434Y-59489112D01*
X176032345Y-59434836D01*
X175966528Y-59366770D01*
X175915840Y-59287511D01*
X175882140Y-59199654D01*
X175867286Y-59105795D01*
X175873136Y-59008530D01*
X175899399Y-58912220D01*
X175944418Y-58823494D01*
X176005373Y-58748419D01*
X176080184Y-58688641D01*
X176166768Y-58645809D01*
X176263043Y-58621571D01*
X176366928Y-58617576D01*
X176444562Y-58627850D01*
G36*
X176444562Y-58627850D02*
G01*
X176527313Y-58655053D01*
X176602406Y-58700484D01*
X176674298Y-58766302D01*
X176712846Y-58810567D01*
X176752256Y-58868961D01*
X176777446Y-58929586D01*
X176790861Y-58998865D01*
X176794948Y-59083222D01*
X176794669Y-59129307D01*
X176792460Y-59170450D01*
X176786894Y-59202582D01*
X176776586Y-59233122D01*
X176760148Y-59269489D01*
X176746200Y-59296728D01*
X176687665Y-59382429D01*
X176615619Y-59451617D01*
X176531947Y-59502741D01*
X176438531Y-59534250D01*
X176405434Y-59541225D01*
X176364960Y-59548094D01*
X176331999Y-59549919D01*
X176297698Y-59546947D01*
X176253200Y-59539426D01*
X176201934Y-59527002D01*
X176111434Y-59489112D01*
X176032345Y-59434836D01*
X175966528Y-59366770D01*
X175915840Y-59287511D01*
X175882140Y-59199654D01*
X175867286Y-59105795D01*
X175873136Y-59008530D01*
X175899399Y-58912220D01*
X175944418Y-58823494D01*
X176005373Y-58748419D01*
X176080184Y-58688641D01*
X176166768Y-58645809D01*
X176263043Y-58621571D01*
X176366928Y-58617576D01*
X176444562Y-58627850D01*
G37*
X169145767Y-63864068D02*
X169239890Y-63864158D01*
X169314405Y-63864498D01*
X169371811Y-63865239D01*
X169414611Y-63866535D01*
X169445304Y-63868537D01*
X169466391Y-63871396D01*
X169480373Y-63875266D01*
X169489750Y-63880298D01*
X169497022Y-63886645D01*
X169515828Y-63919362D01*
X169517275Y-63956939D01*
X169500917Y-63990178D01*
X169499557Y-63991631D01*
X169488354Y-63999992D01*
X169471252Y-64005547D01*
X169444082Y-64008840D01*
X169402678Y-64010418D01*
X169342873Y-64010822D01*
X169203511Y-64010822D01*
X169203511Y-64274589D01*
X169203436Y-64350417D01*
X169203028Y-64417083D01*
X169202046Y-64466867D01*
X169200250Y-64502784D01*
X169197399Y-64527850D01*
X169193253Y-64545081D01*
X169187571Y-64557492D01*
X169180114Y-64568100D01*
X169177824Y-64570906D01*
X169146646Y-64593548D01*
X169112266Y-64595112D01*
X169079334Y-64575267D01*
X169072355Y-64567191D01*
X169066883Y-64556593D01*
X169062863Y-64540749D01*
X169060072Y-64516773D01*
X169058288Y-64481774D01*
X169057289Y-64432864D01*
X169056852Y-64367154D01*
X169056756Y-64281756D01*
X169056756Y-64010822D01*
X168910820Y-64010822D01*
X168899720Y-64010821D01*
X168843202Y-64010596D01*
X168804358Y-64009457D01*
X168778965Y-64006657D01*
X168762804Y-64001450D01*
X168751652Y-63993089D01*
X168741289Y-63980826D01*
X168725441Y-63950138D01*
X168728543Y-63916358D01*
X168754187Y-63883822D01*
X168759129Y-63880105D01*
X168769338Y-63875269D01*
X168784764Y-63871506D01*
X168807886Y-63868683D01*
X168841183Y-63866670D01*
X168887137Y-63865333D01*
X168948228Y-63864542D01*
X169026935Y-63864163D01*
X169125740Y-63864067D01*
X169145767Y-63864068D01*
G36*
X169145767Y-63864068D02*
G01*
X169239890Y-63864158D01*
X169314405Y-63864498D01*
X169371811Y-63865239D01*
X169414611Y-63866535D01*
X169445304Y-63868537D01*
X169466391Y-63871396D01*
X169480373Y-63875266D01*
X169489750Y-63880298D01*
X169497022Y-63886645D01*
X169515828Y-63919362D01*
X169517275Y-63956939D01*
X169500917Y-63990178D01*
X169499557Y-63991631D01*
X169488354Y-63999992D01*
X169471252Y-64005547D01*
X169444082Y-64008840D01*
X169402678Y-64010418D01*
X169342873Y-64010822D01*
X169203511Y-64010822D01*
X169203511Y-64274589D01*
X169203436Y-64350417D01*
X169203028Y-64417083D01*
X169202046Y-64466867D01*
X169200250Y-64502784D01*
X169197399Y-64527850D01*
X169193253Y-64545081D01*
X169187571Y-64557492D01*
X169180114Y-64568100D01*
X169177824Y-64570906D01*
X169146646Y-64593548D01*
X169112266Y-64595112D01*
X169079334Y-64575267D01*
X169072355Y-64567191D01*
X169066883Y-64556593D01*
X169062863Y-64540749D01*
X169060072Y-64516773D01*
X169058288Y-64481774D01*
X169057289Y-64432864D01*
X169056852Y-64367154D01*
X169056756Y-64281756D01*
X169056756Y-64010822D01*
X168910820Y-64010822D01*
X168899720Y-64010821D01*
X168843202Y-64010596D01*
X168804358Y-64009457D01*
X168778965Y-64006657D01*
X168762804Y-64001450D01*
X168751652Y-63993089D01*
X168741289Y-63980826D01*
X168725441Y-63950138D01*
X168728543Y-63916358D01*
X168754187Y-63883822D01*
X168759129Y-63880105D01*
X168769338Y-63875269D01*
X168784764Y-63871506D01*
X168807886Y-63868683D01*
X168841183Y-63866670D01*
X168887137Y-63865333D01*
X168948228Y-63864542D01*
X169026935Y-63864163D01*
X169125740Y-63864067D01*
X169145767Y-63864068D01*
G37*
X168469734Y-63886645D02*
X168475366Y-63892835D01*
X168480456Y-63901041D01*
X168484543Y-63912817D01*
X168487721Y-63930276D01*
X168490087Y-63955530D01*
X168491738Y-63990690D01*
X168492769Y-64037869D01*
X168493277Y-64099177D01*
X168493359Y-64176727D01*
X168493109Y-64272631D01*
X168492625Y-64389000D01*
X168492557Y-64403175D01*
X168491971Y-64464937D01*
X168490648Y-64508620D01*
X168488103Y-64538001D01*
X168483848Y-64556855D01*
X168477396Y-64568959D01*
X168468262Y-64578089D01*
X168434804Y-64595506D01*
X168399856Y-64592604D01*
X168368953Y-64568100D01*
X168359944Y-64554897D01*
X168352492Y-64536361D01*
X168348124Y-64510333D01*
X168346069Y-64471787D01*
X168345556Y-64415700D01*
X168345556Y-64293045D01*
X167848845Y-64293045D01*
X167848845Y-64427871D01*
X167848772Y-64463662D01*
X167848009Y-64509992D01*
X167845833Y-64540526D01*
X167841536Y-64559557D01*
X167834412Y-64571374D01*
X167823755Y-64580271D01*
X167791504Y-64595341D01*
X167756217Y-64592673D01*
X167725486Y-64568100D01*
X167720831Y-64561845D01*
X167714895Y-64551321D01*
X167710364Y-64537391D01*
X167707048Y-64517317D01*
X167704759Y-64488360D01*
X167703308Y-64447780D01*
X167702505Y-64392840D01*
X167702162Y-64320799D01*
X167702089Y-64228920D01*
X167702089Y-63919485D01*
X167729798Y-63891776D01*
X167761177Y-63869533D01*
X167794406Y-63866844D01*
X167826267Y-63886645D01*
X167834553Y-63896415D01*
X167841965Y-63912307D01*
X167846302Y-63936275D01*
X167848338Y-63973148D01*
X167848845Y-64027756D01*
X167848845Y-64146289D01*
X168345556Y-64146289D01*
X168345556Y-64030776D01*
X168345994Y-63979078D01*
X168347958Y-63944554D01*
X168352474Y-63921978D01*
X168360567Y-63906126D01*
X168373265Y-63891776D01*
X168404643Y-63869533D01*
X168437872Y-63866844D01*
X168469734Y-63886645D01*
G36*
X168469734Y-63886645D02*
G01*
X168475366Y-63892835D01*
X168480456Y-63901041D01*
X168484543Y-63912817D01*
X168487721Y-63930276D01*
X168490087Y-63955530D01*
X168491738Y-63990690D01*
X168492769Y-64037869D01*
X168493277Y-64099177D01*
X168493359Y-64176727D01*
X168493109Y-64272631D01*
X168492625Y-64389000D01*
X168492557Y-64403175D01*
X168491971Y-64464937D01*
X168490648Y-64508620D01*
X168488103Y-64538001D01*
X168483848Y-64556855D01*
X168477396Y-64568959D01*
X168468262Y-64578089D01*
X168434804Y-64595506D01*
X168399856Y-64592604D01*
X168368953Y-64568100D01*
X168359944Y-64554897D01*
X168352492Y-64536361D01*
X168348124Y-64510333D01*
X168346069Y-64471787D01*
X168345556Y-64415700D01*
X168345556Y-64293045D01*
X167848845Y-64293045D01*
X167848845Y-64427871D01*
X167848772Y-64463662D01*
X167848009Y-64509992D01*
X167845833Y-64540526D01*
X167841536Y-64559557D01*
X167834412Y-64571374D01*
X167823755Y-64580271D01*
X167791504Y-64595341D01*
X167756217Y-64592673D01*
X167725486Y-64568100D01*
X167720831Y-64561845D01*
X167714895Y-64551321D01*
X167710364Y-64537391D01*
X167707048Y-64517317D01*
X167704759Y-64488360D01*
X167703308Y-64447780D01*
X167702505Y-64392840D01*
X167702162Y-64320799D01*
X167702089Y-64228920D01*
X167702089Y-63919485D01*
X167729798Y-63891776D01*
X167761177Y-63869533D01*
X167794406Y-63866844D01*
X167826267Y-63886645D01*
X167834553Y-63896415D01*
X167841965Y-63912307D01*
X167846302Y-63936275D01*
X167848338Y-63973148D01*
X167848845Y-64027756D01*
X167848845Y-64146289D01*
X168345556Y-64146289D01*
X168345556Y-64030776D01*
X168345994Y-63979078D01*
X168347958Y-63944554D01*
X168352474Y-63921978D01*
X168360567Y-63906126D01*
X168373265Y-63891776D01*
X168404643Y-63869533D01*
X168437872Y-63866844D01*
X168469734Y-63886645D01*
G37*
X173175133Y-64475396D02*
X173173163Y-64508175D01*
X173170235Y-64531095D01*
X173166158Y-64546897D01*
X173160743Y-64558319D01*
X173153803Y-64568100D01*
X173130406Y-64597845D01*
X172964714Y-64597251D01*
X172929918Y-64596953D01*
X172831435Y-64593522D01*
X172750473Y-64585839D01*
X172683379Y-64573282D01*
X172626496Y-64555227D01*
X172576169Y-64531052D01*
X172572810Y-64529135D01*
X172514998Y-64492417D01*
X172472644Y-64455451D01*
X172439828Y-64411966D01*
X172410628Y-64355689D01*
X172406346Y-64346073D01*
X172383769Y-64282887D01*
X172378034Y-64237333D01*
X172527279Y-64237333D01*
X172532892Y-64262061D01*
X172538618Y-64277939D01*
X172571548Y-64337847D01*
X172618886Y-64383600D01*
X172682652Y-64416736D01*
X172764861Y-64438790D01*
X172767655Y-64439292D01*
X172813940Y-64445255D01*
X172870336Y-64449483D01*
X172925274Y-64451089D01*
X173019156Y-64451089D01*
X173019156Y-64010822D01*
X172931667Y-64011270D01*
X172864747Y-64013746D01*
X172772349Y-64024998D01*
X172693034Y-64044537D01*
X172631060Y-64071511D01*
X172600120Y-64092240D01*
X172572000Y-64122006D01*
X172548660Y-64164434D01*
X172541533Y-64180400D01*
X172529709Y-64212902D01*
X172527279Y-64237333D01*
X172378034Y-64237333D01*
X172376797Y-64227509D01*
X172385399Y-64172483D01*
X172409541Y-64110351D01*
X172410337Y-64108658D01*
X172450788Y-64039236D01*
X172501473Y-63982638D01*
X172564198Y-63938070D01*
X172640774Y-63904741D01*
X172733009Y-63881861D01*
X172842712Y-63868636D01*
X172971691Y-63864275D01*
X172975263Y-63864270D01*
X173035283Y-63864410D01*
X173077214Y-63865446D01*
X173105328Y-63868040D01*
X173123897Y-63872853D01*
X173137194Y-63880544D01*
X173149491Y-63891776D01*
X173177200Y-63919485D01*
X173177200Y-64228920D01*
X173177175Y-64290526D01*
X173176950Y-64369311D01*
X173176332Y-64430021D01*
X173175775Y-64451089D01*
X173175133Y-64475396D01*
G36*
X173175133Y-64475396D02*
G01*
X173173163Y-64508175D01*
X173170235Y-64531095D01*
X173166158Y-64546897D01*
X173160743Y-64558319D01*
X173153803Y-64568100D01*
X173130406Y-64597845D01*
X172964714Y-64597251D01*
X172929918Y-64596953D01*
X172831435Y-64593522D01*
X172750473Y-64585839D01*
X172683379Y-64573282D01*
X172626496Y-64555227D01*
X172576169Y-64531052D01*
X172572810Y-64529135D01*
X172514998Y-64492417D01*
X172472644Y-64455451D01*
X172439828Y-64411966D01*
X172410628Y-64355689D01*
X172406346Y-64346073D01*
X172383769Y-64282887D01*
X172378034Y-64237333D01*
X172527279Y-64237333D01*
X172532892Y-64262061D01*
X172538618Y-64277939D01*
X172571548Y-64337847D01*
X172618886Y-64383600D01*
X172682652Y-64416736D01*
X172764861Y-64438790D01*
X172767655Y-64439292D01*
X172813940Y-64445255D01*
X172870336Y-64449483D01*
X172925274Y-64451089D01*
X173019156Y-64451089D01*
X173019156Y-64010822D01*
X172931667Y-64011270D01*
X172864747Y-64013746D01*
X172772349Y-64024998D01*
X172693034Y-64044537D01*
X172631060Y-64071511D01*
X172600120Y-64092240D01*
X172572000Y-64122006D01*
X172548660Y-64164434D01*
X172541533Y-64180400D01*
X172529709Y-64212902D01*
X172527279Y-64237333D01*
X172378034Y-64237333D01*
X172376797Y-64227509D01*
X172385399Y-64172483D01*
X172409541Y-64110351D01*
X172410337Y-64108658D01*
X172450788Y-64039236D01*
X172501473Y-63982638D01*
X172564198Y-63938070D01*
X172640774Y-63904741D01*
X172733009Y-63881861D01*
X172842712Y-63868636D01*
X172971691Y-63864275D01*
X172975263Y-63864270D01*
X173035283Y-63864410D01*
X173077214Y-63865446D01*
X173105328Y-63868040D01*
X173123897Y-63872853D01*
X173137194Y-63880544D01*
X173149491Y-63891776D01*
X173177200Y-63919485D01*
X173177200Y-64228920D01*
X173177175Y-64290526D01*
X173176950Y-64369311D01*
X173176332Y-64430021D01*
X173175775Y-64451089D01*
X173175133Y-64475396D01*
G37*
X180266817Y-64049427D02*
X180266870Y-64130041D01*
X180266622Y-64230956D01*
X180266583Y-64306617D01*
X180266328Y-64384526D01*
X180265684Y-64444536D01*
X180264480Y-64489264D01*
X180262543Y-64521326D01*
X180259703Y-64543340D01*
X180255788Y-64557924D01*
X180250626Y-64567694D01*
X180244045Y-64575267D01*
X180237077Y-64581501D01*
X180224079Y-64588801D01*
X180204931Y-64593554D01*
X180175528Y-64596292D01*
X180131762Y-64597545D01*
X180069528Y-64597845D01*
X180020582Y-64597469D01*
X179913722Y-64593041D01*
X179824494Y-64582953D01*
X179749696Y-64566365D01*
X179686125Y-64542435D01*
X179630579Y-64510321D01*
X179579854Y-64469182D01*
X179573866Y-64463330D01*
X179536999Y-64414821D01*
X179505899Y-64354013D01*
X179484417Y-64289769D01*
X179479136Y-64251026D01*
X179626353Y-64251026D01*
X179644635Y-64301961D01*
X179674305Y-64347878D01*
X179721002Y-64390287D01*
X179782392Y-64420090D01*
X179861538Y-64439226D01*
X179863028Y-64439464D01*
X179911999Y-64445256D01*
X179970693Y-64449396D01*
X180026734Y-64451004D01*
X180119867Y-64451089D01*
X180119867Y-64010822D01*
X180043667Y-64010808D01*
X180040639Y-64010817D01*
X179989519Y-64012782D01*
X179929416Y-64017507D01*
X179872708Y-64024035D01*
X179822750Y-64033331D01*
X179747998Y-64059600D01*
X179690489Y-64098899D01*
X179648988Y-64151933D01*
X179627771Y-64203200D01*
X179626353Y-64251026D01*
X179479136Y-64251026D01*
X179476400Y-64230956D01*
X179477679Y-64209739D01*
X179489991Y-64152323D01*
X179512520Y-64092413D01*
X179541750Y-64038363D01*
X179574167Y-63998532D01*
X179593708Y-63981510D01*
X179648420Y-63942322D01*
X179708723Y-63912193D01*
X179777919Y-63890232D01*
X179859311Y-63875550D01*
X179956200Y-63867259D01*
X180071889Y-63864467D01*
X180111371Y-63864066D01*
X180157082Y-63863653D01*
X180192883Y-63865457D01*
X180219974Y-63871739D01*
X180239556Y-63884759D01*
X180252830Y-63906778D01*
X180260998Y-63940055D01*
X180265260Y-63986851D01*
X180265857Y-64010822D01*
X180266817Y-64049427D01*
G36*
X180266817Y-64049427D02*
G01*
X180266870Y-64130041D01*
X180266622Y-64230956D01*
X180266583Y-64306617D01*
X180266328Y-64384526D01*
X180265684Y-64444536D01*
X180264480Y-64489264D01*
X180262543Y-64521326D01*
X180259703Y-64543340D01*
X180255788Y-64557924D01*
X180250626Y-64567694D01*
X180244045Y-64575267D01*
X180237077Y-64581501D01*
X180224079Y-64588801D01*
X180204931Y-64593554D01*
X180175528Y-64596292D01*
X180131762Y-64597545D01*
X180069528Y-64597845D01*
X180020582Y-64597469D01*
X179913722Y-64593041D01*
X179824494Y-64582953D01*
X179749696Y-64566365D01*
X179686125Y-64542435D01*
X179630579Y-64510321D01*
X179579854Y-64469182D01*
X179573866Y-64463330D01*
X179536999Y-64414821D01*
X179505899Y-64354013D01*
X179484417Y-64289769D01*
X179479136Y-64251026D01*
X179626353Y-64251026D01*
X179644635Y-64301961D01*
X179674305Y-64347878D01*
X179721002Y-64390287D01*
X179782392Y-64420090D01*
X179861538Y-64439226D01*
X179863028Y-64439464D01*
X179911999Y-64445256D01*
X179970693Y-64449396D01*
X180026734Y-64451004D01*
X180119867Y-64451089D01*
X180119867Y-64010822D01*
X180043667Y-64010808D01*
X180040639Y-64010817D01*
X179989519Y-64012782D01*
X179929416Y-64017507D01*
X179872708Y-64024035D01*
X179822750Y-64033331D01*
X179747998Y-64059600D01*
X179690489Y-64098899D01*
X179648988Y-64151933D01*
X179627771Y-64203200D01*
X179626353Y-64251026D01*
X179479136Y-64251026D01*
X179476400Y-64230956D01*
X179477679Y-64209739D01*
X179489991Y-64152323D01*
X179512520Y-64092413D01*
X179541750Y-64038363D01*
X179574167Y-63998532D01*
X179593708Y-63981510D01*
X179648420Y-63942322D01*
X179708723Y-63912193D01*
X179777919Y-63890232D01*
X179859311Y-63875550D01*
X179956200Y-63867259D01*
X180071889Y-63864467D01*
X180111371Y-63864066D01*
X180157082Y-63863653D01*
X180192883Y-63865457D01*
X180219974Y-63871739D01*
X180239556Y-63884759D01*
X180252830Y-63906778D01*
X180260998Y-63940055D01*
X180265260Y-63986851D01*
X180265857Y-64010822D01*
X180266817Y-64049427D01*
G37*
X175321893Y-63862892D02*
X175333301Y-63869029D01*
X175343850Y-63879691D01*
X175355136Y-63893811D01*
X175359589Y-63899772D01*
X175365588Y-63910268D01*
X175370167Y-63924093D01*
X175373519Y-63943998D01*
X175375833Y-63972732D01*
X175377301Y-64013045D01*
X175378113Y-64067687D01*
X175378460Y-64139407D01*
X175378534Y-64230956D01*
X175378511Y-64289486D01*
X175378292Y-64368573D01*
X175377683Y-64429516D01*
X175376492Y-64475062D01*
X175374529Y-64507963D01*
X175371603Y-64530968D01*
X175367523Y-64546826D01*
X175362097Y-64558286D01*
X175355136Y-64568100D01*
X175324708Y-64592493D01*
X175289765Y-64595372D01*
X175252784Y-64576282D01*
X175248600Y-64572807D01*
X175240424Y-64564279D01*
X175234364Y-64552728D01*
X175229981Y-64534896D01*
X175226839Y-64507524D01*
X175224502Y-64467354D01*
X175222531Y-64411128D01*
X175220489Y-64335589D01*
X175214845Y-64116458D01*
X174949556Y-64357099D01*
X174875722Y-64423875D01*
X174810542Y-64481991D01*
X174758348Y-64526949D01*
X174717273Y-64559871D01*
X174685455Y-64581879D01*
X174661026Y-64594094D01*
X174642124Y-64597639D01*
X174626883Y-64593636D01*
X174613439Y-64583207D01*
X174599927Y-64567474D01*
X174593682Y-64558991D01*
X174588050Y-64548413D01*
X174583839Y-64534255D01*
X174580887Y-64513803D01*
X174579032Y-64484342D01*
X174578113Y-64443161D01*
X174577968Y-64387544D01*
X174578435Y-64314779D01*
X174579352Y-64222151D01*
X174582667Y-63907199D01*
X174609318Y-63885633D01*
X174635383Y-63869441D01*
X174668241Y-63866670D01*
X174702772Y-63885623D01*
X174707084Y-63889208D01*
X174715216Y-63897737D01*
X174721245Y-63909329D01*
X174725606Y-63927235D01*
X174728734Y-63954706D01*
X174731063Y-63994994D01*
X174733029Y-64051351D01*
X174735067Y-64127029D01*
X174740711Y-64346878D01*
X174921334Y-64183084D01*
X175008072Y-64104451D01*
X175083843Y-64036058D01*
X175145980Y-63980708D01*
X175196078Y-63937338D01*
X175235735Y-63904881D01*
X175266548Y-63882273D01*
X175290114Y-63868448D01*
X175308030Y-63862343D01*
X175321893Y-63862892D01*
G36*
X175321893Y-63862892D02*
G01*
X175333301Y-63869029D01*
X175343850Y-63879691D01*
X175355136Y-63893811D01*
X175359589Y-63899772D01*
X175365588Y-63910268D01*
X175370167Y-63924093D01*
X175373519Y-63943998D01*
X175375833Y-63972732D01*
X175377301Y-64013045D01*
X175378113Y-64067687D01*
X175378460Y-64139407D01*
X175378534Y-64230956D01*
X175378511Y-64289486D01*
X175378292Y-64368573D01*
X175377683Y-64429516D01*
X175376492Y-64475062D01*
X175374529Y-64507963D01*
X175371603Y-64530968D01*
X175367523Y-64546826D01*
X175362097Y-64558286D01*
X175355136Y-64568100D01*
X175324708Y-64592493D01*
X175289765Y-64595372D01*
X175252784Y-64576282D01*
X175248600Y-64572807D01*
X175240424Y-64564279D01*
X175234364Y-64552728D01*
X175229981Y-64534896D01*
X175226839Y-64507524D01*
X175224502Y-64467354D01*
X175222531Y-64411128D01*
X175220489Y-64335589D01*
X175214845Y-64116458D01*
X174949556Y-64357099D01*
X174875722Y-64423875D01*
X174810542Y-64481991D01*
X174758348Y-64526949D01*
X174717273Y-64559871D01*
X174685455Y-64581879D01*
X174661026Y-64594094D01*
X174642124Y-64597639D01*
X174626883Y-64593636D01*
X174613439Y-64583207D01*
X174599927Y-64567474D01*
X174593682Y-64558991D01*
X174588050Y-64548413D01*
X174583839Y-64534255D01*
X174580887Y-64513803D01*
X174579032Y-64484342D01*
X174578113Y-64443161D01*
X174577968Y-64387544D01*
X174578435Y-64314779D01*
X174579352Y-64222151D01*
X174582667Y-63907199D01*
X174609318Y-63885633D01*
X174635383Y-63869441D01*
X174668241Y-63866670D01*
X174702772Y-63885623D01*
X174707084Y-63889208D01*
X174715216Y-63897737D01*
X174721245Y-63909329D01*
X174725606Y-63927235D01*
X174728734Y-63954706D01*
X174731063Y-63994994D01*
X174733029Y-64051351D01*
X174735067Y-64127029D01*
X174740711Y-64346878D01*
X174921334Y-64183084D01*
X175008072Y-64104451D01*
X175083843Y-64036058D01*
X175145980Y-63980708D01*
X175196078Y-63937338D01*
X175235735Y-63904881D01*
X175266548Y-63882273D01*
X175290114Y-63868448D01*
X175308030Y-63862343D01*
X175321893Y-63862892D01*
G37*
X176119150Y-63869179D02*
X176225157Y-63885494D01*
X176318969Y-63913545D01*
X176397765Y-63952452D01*
X176458719Y-64001334D01*
X176484789Y-64034195D01*
X176514297Y-64083394D01*
X176539568Y-64137252D01*
X176557218Y-64188419D01*
X176563858Y-64229544D01*
X176562298Y-64249259D01*
X176549357Y-64300592D01*
X176526194Y-64357118D01*
X176496302Y-64411035D01*
X176463173Y-64454539D01*
X176452977Y-64464887D01*
X176385892Y-64516662D01*
X176305766Y-64556554D01*
X176219556Y-64580956D01*
X176164592Y-64589068D01*
X176071139Y-64595673D01*
X175981358Y-64593586D01*
X175898869Y-64583340D01*
X175827286Y-64565470D01*
X175770228Y-64540508D01*
X175731311Y-64508988D01*
X175729936Y-64507012D01*
X175722848Y-64481786D01*
X175718609Y-64434535D01*
X175717200Y-64365071D01*
X175718060Y-64302838D01*
X175722780Y-64255456D01*
X175734470Y-64223353D01*
X175756239Y-64203800D01*
X175791198Y-64194070D01*
X175842456Y-64191433D01*
X175913123Y-64193161D01*
X175961743Y-64196173D01*
X176011939Y-64204366D01*
X176044433Y-64218419D01*
X176061892Y-64239654D01*
X176066983Y-64269394D01*
X176066877Y-64273936D01*
X176058175Y-64308730D01*
X176034165Y-64332147D01*
X175992900Y-64345347D01*
X175932431Y-64349489D01*
X175863956Y-64349489D01*
X175863956Y-64387841D01*
X175864006Y-64396976D01*
X175866227Y-64414227D01*
X175875494Y-64424521D01*
X175896875Y-64431459D01*
X175935436Y-64438641D01*
X175940910Y-64439575D01*
X176037860Y-64449478D01*
X176127852Y-64446559D01*
X176208760Y-64431829D01*
X176278459Y-64406299D01*
X176334824Y-64370978D01*
X176375729Y-64326879D01*
X176399051Y-64275012D01*
X176402663Y-64216388D01*
X176397145Y-64187494D01*
X176370461Y-64131604D01*
X176324273Y-64085945D01*
X176259291Y-64051108D01*
X176176229Y-64027690D01*
X176151555Y-64023241D01*
X176062226Y-64012742D01*
X175982419Y-64013971D01*
X175904326Y-64026906D01*
X175869183Y-64033696D01*
X175823745Y-64034713D01*
X175792430Y-64022182D01*
X175772277Y-63995395D01*
X175765893Y-63967148D01*
X175775379Y-63935924D01*
X175784708Y-63922499D01*
X175818943Y-63898967D01*
X175871565Y-63881095D01*
X175940081Y-63869599D01*
X176022000Y-63865192D01*
X176119150Y-63869179D01*
G36*
X176119150Y-63869179D02*
G01*
X176225157Y-63885494D01*
X176318969Y-63913545D01*
X176397765Y-63952452D01*
X176458719Y-64001334D01*
X176484789Y-64034195D01*
X176514297Y-64083394D01*
X176539568Y-64137252D01*
X176557218Y-64188419D01*
X176563858Y-64229544D01*
X176562298Y-64249259D01*
X176549357Y-64300592D01*
X176526194Y-64357118D01*
X176496302Y-64411035D01*
X176463173Y-64454539D01*
X176452977Y-64464887D01*
X176385892Y-64516662D01*
X176305766Y-64556554D01*
X176219556Y-64580956D01*
X176164592Y-64589068D01*
X176071139Y-64595673D01*
X175981358Y-64593586D01*
X175898869Y-64583340D01*
X175827286Y-64565470D01*
X175770228Y-64540508D01*
X175731311Y-64508988D01*
X175729936Y-64507012D01*
X175722848Y-64481786D01*
X175718609Y-64434535D01*
X175717200Y-64365071D01*
X175718060Y-64302838D01*
X175722780Y-64255456D01*
X175734470Y-64223353D01*
X175756239Y-64203800D01*
X175791198Y-64194070D01*
X175842456Y-64191433D01*
X175913123Y-64193161D01*
X175961743Y-64196173D01*
X176011939Y-64204366D01*
X176044433Y-64218419D01*
X176061892Y-64239654D01*
X176066983Y-64269394D01*
X176066877Y-64273936D01*
X176058175Y-64308730D01*
X176034165Y-64332147D01*
X175992900Y-64345347D01*
X175932431Y-64349489D01*
X175863956Y-64349489D01*
X175863956Y-64387841D01*
X175864006Y-64396976D01*
X175866227Y-64414227D01*
X175875494Y-64424521D01*
X175896875Y-64431459D01*
X175935436Y-64438641D01*
X175940910Y-64439575D01*
X176037860Y-64449478D01*
X176127852Y-64446559D01*
X176208760Y-64431829D01*
X176278459Y-64406299D01*
X176334824Y-64370978D01*
X176375729Y-64326879D01*
X176399051Y-64275012D01*
X176402663Y-64216388D01*
X176397145Y-64187494D01*
X176370461Y-64131604D01*
X176324273Y-64085945D01*
X176259291Y-64051108D01*
X176176229Y-64027690D01*
X176151555Y-64023241D01*
X176062226Y-64012742D01*
X175982419Y-64013971D01*
X175904326Y-64026906D01*
X175869183Y-64033696D01*
X175823745Y-64034713D01*
X175792430Y-64022182D01*
X175772277Y-63995395D01*
X175765893Y-63967148D01*
X175775379Y-63935924D01*
X175784708Y-63922499D01*
X175818943Y-63898967D01*
X175871565Y-63881095D01*
X175940081Y-63869599D01*
X176022000Y-63865192D01*
X176119150Y-63869179D01*
G37*
X174169803Y-63893811D02*
X174174752Y-63900495D01*
X174180596Y-63911066D01*
X174185057Y-63925153D01*
X174188321Y-63945478D01*
X174190574Y-63974765D01*
X174192002Y-64015737D01*
X174192792Y-64071117D01*
X174193129Y-64143628D01*
X174193200Y-64235994D01*
X174193171Y-64301911D01*
X174192939Y-64380228D01*
X174192319Y-64440496D01*
X174191126Y-64485393D01*
X174189179Y-64517602D01*
X174186294Y-64539800D01*
X174182288Y-64554669D01*
X174176979Y-64564889D01*
X174170183Y-64573138D01*
X174165668Y-64577795D01*
X174157438Y-64584282D01*
X174146078Y-64589194D01*
X174128810Y-64592749D01*
X174102855Y-64595167D01*
X174065436Y-64596667D01*
X174013773Y-64597467D01*
X173945089Y-64597787D01*
X173856606Y-64597845D01*
X173836931Y-64597838D01*
X173749906Y-64597572D01*
X173682254Y-64596806D01*
X173631299Y-64595392D01*
X173594367Y-64593180D01*
X173568783Y-64590022D01*
X173551871Y-64585769D01*
X173540957Y-64580271D01*
X173530464Y-64570285D01*
X173517203Y-64539168D01*
X173518386Y-64503280D01*
X173534550Y-64471733D01*
X173536739Y-64469457D01*
X173545427Y-64463189D01*
X173558769Y-64458523D01*
X173579752Y-64455227D01*
X173611363Y-64453068D01*
X173656590Y-64451814D01*
X173718420Y-64451231D01*
X173799839Y-64451089D01*
X174046445Y-64451089D01*
X174046445Y-64293045D01*
X173884006Y-64293045D01*
X173848338Y-64292964D01*
X173792568Y-64292167D01*
X173753430Y-64290162D01*
X173726976Y-64286521D01*
X173709259Y-64280812D01*
X173696329Y-64272607D01*
X173692686Y-64269423D01*
X173674278Y-64238448D01*
X173673644Y-64202112D01*
X173691183Y-64168493D01*
X173691245Y-64168424D01*
X173700916Y-64159798D01*
X173714209Y-64153742D01*
X173734917Y-64149811D01*
X173766828Y-64147556D01*
X173813734Y-64146531D01*
X173879424Y-64146289D01*
X174047571Y-64146289D01*
X174044186Y-64081378D01*
X174040800Y-64016467D01*
X173798723Y-64013414D01*
X173773707Y-64013086D01*
X173692087Y-64011606D01*
X173629768Y-64009222D01*
X173584154Y-64005227D01*
X173552652Y-63998913D01*
X173532667Y-63989574D01*
X173521604Y-63976503D01*
X173516869Y-63958992D01*
X173515867Y-63936335D01*
X173515873Y-63933970D01*
X173517027Y-63913939D01*
X173521824Y-63898146D01*
X173532632Y-63886090D01*
X173551817Y-63877267D01*
X173581745Y-63871175D01*
X173624783Y-63867311D01*
X173683299Y-63865174D01*
X173759657Y-63864260D01*
X173856226Y-63864067D01*
X174146406Y-63864067D01*
X174169803Y-63893811D01*
G36*
X174169803Y-63893811D02*
G01*
X174174752Y-63900495D01*
X174180596Y-63911066D01*
X174185057Y-63925153D01*
X174188321Y-63945478D01*
X174190574Y-63974765D01*
X174192002Y-64015737D01*
X174192792Y-64071117D01*
X174193129Y-64143628D01*
X174193200Y-64235994D01*
X174193171Y-64301911D01*
X174192939Y-64380228D01*
X174192319Y-64440496D01*
X174191126Y-64485393D01*
X174189179Y-64517602D01*
X174186294Y-64539800D01*
X174182288Y-64554669D01*
X174176979Y-64564889D01*
X174170183Y-64573138D01*
X174165668Y-64577795D01*
X174157438Y-64584282D01*
X174146078Y-64589194D01*
X174128810Y-64592749D01*
X174102855Y-64595167D01*
X174065436Y-64596667D01*
X174013773Y-64597467D01*
X173945089Y-64597787D01*
X173856606Y-64597845D01*
X173836931Y-64597838D01*
X173749906Y-64597572D01*
X173682254Y-64596806D01*
X173631299Y-64595392D01*
X173594367Y-64593180D01*
X173568783Y-64590022D01*
X173551871Y-64585769D01*
X173540957Y-64580271D01*
X173530464Y-64570285D01*
X173517203Y-64539168D01*
X173518386Y-64503280D01*
X173534550Y-64471733D01*
X173536739Y-64469457D01*
X173545427Y-64463189D01*
X173558769Y-64458523D01*
X173579752Y-64455227D01*
X173611363Y-64453068D01*
X173656590Y-64451814D01*
X173718420Y-64451231D01*
X173799839Y-64451089D01*
X174046445Y-64451089D01*
X174046445Y-64293045D01*
X173884006Y-64293045D01*
X173848338Y-64292964D01*
X173792568Y-64292167D01*
X173753430Y-64290162D01*
X173726976Y-64286521D01*
X173709259Y-64280812D01*
X173696329Y-64272607D01*
X173692686Y-64269423D01*
X173674278Y-64238448D01*
X173673644Y-64202112D01*
X173691183Y-64168493D01*
X173691245Y-64168424D01*
X173700916Y-64159798D01*
X173714209Y-64153742D01*
X173734917Y-64149811D01*
X173766828Y-64147556D01*
X173813734Y-64146531D01*
X173879424Y-64146289D01*
X174047571Y-64146289D01*
X174044186Y-64081378D01*
X174040800Y-64016467D01*
X173798723Y-64013414D01*
X173773707Y-64013086D01*
X173692087Y-64011606D01*
X173629768Y-64009222D01*
X173584154Y-64005227D01*
X173552652Y-63998913D01*
X173532667Y-63989574D01*
X173521604Y-63976503D01*
X173516869Y-63958992D01*
X173515867Y-63936335D01*
X173515873Y-63933970D01*
X173517027Y-63913939D01*
X173521824Y-63898146D01*
X173532632Y-63886090D01*
X173551817Y-63877267D01*
X173581745Y-63871175D01*
X173624783Y-63867311D01*
X173683299Y-63865174D01*
X173759657Y-63864260D01*
X173856226Y-63864067D01*
X174146406Y-63864067D01*
X174169803Y-63893811D01*
G37*
X178846734Y-63864083D02*
X178923831Y-63864275D01*
X178982777Y-63864860D01*
X179026364Y-63866051D01*
X179057383Y-63868064D01*
X179078625Y-63871112D01*
X179092882Y-63875409D01*
X179102945Y-63881172D01*
X179111606Y-63888612D01*
X179113391Y-63890293D01*
X179120635Y-63897832D01*
X179126277Y-63906850D01*
X179130517Y-63919984D01*
X179133556Y-63939872D01*
X179135594Y-63969151D01*
X179136830Y-64010458D01*
X179137465Y-64066431D01*
X179137700Y-64139707D01*
X179137734Y-64232923D01*
X179137697Y-64305713D01*
X179137448Y-64383889D01*
X179136812Y-64444103D01*
X179135615Y-64488982D01*
X179133684Y-64521152D01*
X179130846Y-64543239D01*
X179126927Y-64557870D01*
X179121755Y-64567670D01*
X179115156Y-64575267D01*
X179111822Y-64578444D01*
X179103300Y-64584554D01*
X179091298Y-64589229D01*
X179073087Y-64592659D01*
X179045940Y-64595036D01*
X179007129Y-64596552D01*
X178953924Y-64597398D01*
X178883598Y-64597765D01*
X178793422Y-64597845D01*
X178751314Y-64597833D01*
X178670167Y-64597651D01*
X178607675Y-64597098D01*
X178561109Y-64595982D01*
X178527741Y-64594113D01*
X178504844Y-64591298D01*
X178489688Y-64587346D01*
X178479546Y-64582066D01*
X178471689Y-64575267D01*
X178456963Y-64553667D01*
X178449111Y-64524467D01*
X178454610Y-64500560D01*
X178471689Y-64473667D01*
X178476668Y-64469059D01*
X178486443Y-64462772D01*
X178500559Y-64458146D01*
X178522054Y-64454930D01*
X178553968Y-64452870D01*
X178599342Y-64451712D01*
X178661213Y-64451202D01*
X178742622Y-64451089D01*
X178990978Y-64451089D01*
X178990978Y-64293045D01*
X178829801Y-64293045D01*
X178793983Y-64292899D01*
X178728359Y-64291176D01*
X178681118Y-64286741D01*
X178649383Y-64278637D01*
X178630277Y-64265906D01*
X178620923Y-64247592D01*
X178618445Y-64222738D01*
X178619242Y-64202482D01*
X178624494Y-64180656D01*
X178637288Y-64165304D01*
X178660628Y-64155309D01*
X178697517Y-64149553D01*
X178750959Y-64146919D01*
X178823958Y-64146289D01*
X178992105Y-64146289D01*
X178988719Y-64081378D01*
X178985334Y-64016467D01*
X178737617Y-64013418D01*
X178675026Y-64012539D01*
X178606565Y-64011095D01*
X178555661Y-64009164D01*
X178519408Y-64006514D01*
X178494901Y-64002910D01*
X178479235Y-63998121D01*
X178469506Y-63991913D01*
X178463491Y-63985510D01*
X178450482Y-63953828D01*
X178454043Y-63918142D01*
X178473818Y-63887084D01*
X178477069Y-63884161D01*
X178486049Y-63877810D01*
X178498153Y-63872957D01*
X178516159Y-63869403D01*
X178542847Y-63866946D01*
X178580997Y-63865385D01*
X178633386Y-63864518D01*
X178702794Y-63864146D01*
X178792001Y-63864067D01*
X178846734Y-63864083D01*
G36*
X178846734Y-63864083D02*
G01*
X178923831Y-63864275D01*
X178982777Y-63864860D01*
X179026364Y-63866051D01*
X179057383Y-63868064D01*
X179078625Y-63871112D01*
X179092882Y-63875409D01*
X179102945Y-63881172D01*
X179111606Y-63888612D01*
X179113391Y-63890293D01*
X179120635Y-63897832D01*
X179126277Y-63906850D01*
X179130517Y-63919984D01*
X179133556Y-63939872D01*
X179135594Y-63969151D01*
X179136830Y-64010458D01*
X179137465Y-64066431D01*
X179137700Y-64139707D01*
X179137734Y-64232923D01*
X179137697Y-64305713D01*
X179137448Y-64383889D01*
X179136812Y-64444103D01*
X179135615Y-64488982D01*
X179133684Y-64521152D01*
X179130846Y-64543239D01*
X179126927Y-64557870D01*
X179121755Y-64567670D01*
X179115156Y-64575267D01*
X179111822Y-64578444D01*
X179103300Y-64584554D01*
X179091298Y-64589229D01*
X179073087Y-64592659D01*
X179045940Y-64595036D01*
X179007129Y-64596552D01*
X178953924Y-64597398D01*
X178883598Y-64597765D01*
X178793422Y-64597845D01*
X178751314Y-64597833D01*
X178670167Y-64597651D01*
X178607675Y-64597098D01*
X178561109Y-64595982D01*
X178527741Y-64594113D01*
X178504844Y-64591298D01*
X178489688Y-64587346D01*
X178479546Y-64582066D01*
X178471689Y-64575267D01*
X178456963Y-64553667D01*
X178449111Y-64524467D01*
X178454610Y-64500560D01*
X178471689Y-64473667D01*
X178476668Y-64469059D01*
X178486443Y-64462772D01*
X178500559Y-64458146D01*
X178522054Y-64454930D01*
X178553968Y-64452870D01*
X178599342Y-64451712D01*
X178661213Y-64451202D01*
X178742622Y-64451089D01*
X178990978Y-64451089D01*
X178990978Y-64293045D01*
X178829801Y-64293045D01*
X178793983Y-64292899D01*
X178728359Y-64291176D01*
X178681118Y-64286741D01*
X178649383Y-64278637D01*
X178630277Y-64265906D01*
X178620923Y-64247592D01*
X178618445Y-64222738D01*
X178619242Y-64202482D01*
X178624494Y-64180656D01*
X178637288Y-64165304D01*
X178660628Y-64155309D01*
X178697517Y-64149553D01*
X178750959Y-64146919D01*
X178823958Y-64146289D01*
X178992105Y-64146289D01*
X178988719Y-64081378D01*
X178985334Y-64016467D01*
X178737617Y-64013418D01*
X178675026Y-64012539D01*
X178606565Y-64011095D01*
X178555661Y-64009164D01*
X178519408Y-64006514D01*
X178494901Y-64002910D01*
X178479235Y-63998121D01*
X178469506Y-63991913D01*
X178463491Y-63985510D01*
X178450482Y-63953828D01*
X178454043Y-63918142D01*
X178473818Y-63887084D01*
X178477069Y-63884161D01*
X178486049Y-63877810D01*
X178498153Y-63872957D01*
X178516159Y-63869403D01*
X178542847Y-63866946D01*
X178580997Y-63865385D01*
X178633386Y-63864518D01*
X178702794Y-63864146D01*
X178792001Y-63864067D01*
X178846734Y-63864083D01*
G37*
X170279702Y-63873478D02*
X170297663Y-63891989D01*
X170318263Y-63923071D01*
X170343095Y-63968756D01*
X170373750Y-64031078D01*
X170411820Y-64112071D01*
X170426454Y-64143454D01*
X170456203Y-64206638D01*
X170482297Y-64261244D01*
X170503292Y-64304290D01*
X170517739Y-64332793D01*
X170524191Y-64343770D01*
X170525550Y-64343189D01*
X170535542Y-64329242D01*
X170552833Y-64299704D01*
X170575430Y-64258087D01*
X170601338Y-64207903D01*
X170617311Y-64176414D01*
X170646261Y-64121061D01*
X170668749Y-64082044D01*
X170686965Y-64056566D01*
X170703096Y-64041831D01*
X170719330Y-64035042D01*
X170737857Y-64033400D01*
X170748360Y-64033875D01*
X170764476Y-64038082D01*
X170779790Y-64048946D01*
X170796388Y-64069219D01*
X170816357Y-64101654D01*
X170841783Y-64149004D01*
X170874752Y-64214022D01*
X170884485Y-64233277D01*
X170908943Y-64279946D01*
X170929178Y-64316109D01*
X170943311Y-64338497D01*
X170949460Y-64343845D01*
X170950827Y-64340573D01*
X170960202Y-64319664D01*
X170977062Y-64282725D01*
X170999979Y-64232874D01*
X171027520Y-64173226D01*
X171058255Y-64106898D01*
X171084970Y-64049677D01*
X171114593Y-63987688D01*
X171137664Y-63941949D01*
X171155643Y-63909908D01*
X171169990Y-63889014D01*
X171182166Y-63876718D01*
X171193632Y-63870466D01*
X171203042Y-63867574D01*
X171228147Y-63867425D01*
X171255290Y-63882768D01*
X171256590Y-63883753D01*
X171278674Y-63906388D01*
X171289723Y-63928613D01*
X171289769Y-63929253D01*
X171285228Y-63946915D01*
X171272364Y-63981481D01*
X171252605Y-64029826D01*
X171227381Y-64088825D01*
X171198119Y-64155355D01*
X171166250Y-64226291D01*
X171133201Y-64298507D01*
X171100401Y-64368880D01*
X171069280Y-64434285D01*
X171041265Y-64491597D01*
X171017786Y-64537692D01*
X171000272Y-64569446D01*
X170990151Y-64583733D01*
X170955743Y-64597102D01*
X170914046Y-64590741D01*
X170908681Y-64586044D01*
X170892852Y-64563893D01*
X170870650Y-64527132D01*
X170844233Y-64479415D01*
X170815760Y-64424393D01*
X170735986Y-64265150D01*
X170662799Y-64411742D01*
X170653103Y-64431032D01*
X170626125Y-64483380D01*
X170602096Y-64528170D01*
X170583332Y-64561154D01*
X170572146Y-64578089D01*
X170571000Y-64579332D01*
X170542879Y-64594619D01*
X170507817Y-64596302D01*
X170476776Y-64583733D01*
X170474350Y-64580884D01*
X170462090Y-64560259D01*
X170442352Y-64522708D01*
X170416448Y-64470880D01*
X170385685Y-64407423D01*
X170351375Y-64334985D01*
X170314825Y-64256216D01*
X170294585Y-64212093D01*
X170257812Y-64131365D01*
X170229355Y-64067687D01*
X170208331Y-64018752D01*
X170193854Y-63982257D01*
X170185039Y-63955895D01*
X170181004Y-63937361D01*
X170180862Y-63924352D01*
X170183730Y-63914561D01*
X170198387Y-63893678D01*
X170224990Y-63873377D01*
X170225745Y-63873035D01*
X170245335Y-63866034D01*
X170262790Y-63865504D01*
X170279702Y-63873478D01*
G36*
X170279702Y-63873478D02*
G01*
X170297663Y-63891989D01*
X170318263Y-63923071D01*
X170343095Y-63968756D01*
X170373750Y-64031078D01*
X170411820Y-64112071D01*
X170426454Y-64143454D01*
X170456203Y-64206638D01*
X170482297Y-64261244D01*
X170503292Y-64304290D01*
X170517739Y-64332793D01*
X170524191Y-64343770D01*
X170525550Y-64343189D01*
X170535542Y-64329242D01*
X170552833Y-64299704D01*
X170575430Y-64258087D01*
X170601338Y-64207903D01*
X170617311Y-64176414D01*
X170646261Y-64121061D01*
X170668749Y-64082044D01*
X170686965Y-64056566D01*
X170703096Y-64041831D01*
X170719330Y-64035042D01*
X170737857Y-64033400D01*
X170748360Y-64033875D01*
X170764476Y-64038082D01*
X170779790Y-64048946D01*
X170796388Y-64069219D01*
X170816357Y-64101654D01*
X170841783Y-64149004D01*
X170874752Y-64214022D01*
X170884485Y-64233277D01*
X170908943Y-64279946D01*
X170929178Y-64316109D01*
X170943311Y-64338497D01*
X170949460Y-64343845D01*
X170950827Y-64340573D01*
X170960202Y-64319664D01*
X170977062Y-64282725D01*
X170999979Y-64232874D01*
X171027520Y-64173226D01*
X171058255Y-64106898D01*
X171084970Y-64049677D01*
X171114593Y-63987688D01*
X171137664Y-63941949D01*
X171155643Y-63909908D01*
X171169990Y-63889014D01*
X171182166Y-63876718D01*
X171193632Y-63870466D01*
X171203042Y-63867574D01*
X171228147Y-63867425D01*
X171255290Y-63882768D01*
X171256590Y-63883753D01*
X171278674Y-63906388D01*
X171289723Y-63928613D01*
X171289769Y-63929253D01*
X171285228Y-63946915D01*
X171272364Y-63981481D01*
X171252605Y-64029826D01*
X171227381Y-64088825D01*
X171198119Y-64155355D01*
X171166250Y-64226291D01*
X171133201Y-64298507D01*
X171100401Y-64368880D01*
X171069280Y-64434285D01*
X171041265Y-64491597D01*
X171017786Y-64537692D01*
X171000272Y-64569446D01*
X170990151Y-64583733D01*
X170955743Y-64597102D01*
X170914046Y-64590741D01*
X170908681Y-64586044D01*
X170892852Y-64563893D01*
X170870650Y-64527132D01*
X170844233Y-64479415D01*
X170815760Y-64424393D01*
X170735986Y-64265150D01*
X170662799Y-64411742D01*
X170653103Y-64431032D01*
X170626125Y-64483380D01*
X170602096Y-64528170D01*
X170583332Y-64561154D01*
X170572146Y-64578089D01*
X170571000Y-64579332D01*
X170542879Y-64594619D01*
X170507817Y-64596302D01*
X170476776Y-64583733D01*
X170474350Y-64580884D01*
X170462090Y-64560259D01*
X170442352Y-64522708D01*
X170416448Y-64470880D01*
X170385685Y-64407423D01*
X170351375Y-64334985D01*
X170314825Y-64256216D01*
X170294585Y-64212093D01*
X170257812Y-64131365D01*
X170229355Y-64067687D01*
X170208331Y-64018752D01*
X170193854Y-63982257D01*
X170185039Y-63955895D01*
X170181004Y-63937361D01*
X170180862Y-63924352D01*
X170183730Y-63914561D01*
X170198387Y-63893678D01*
X170224990Y-63873377D01*
X170225745Y-63873035D01*
X170245335Y-63866034D01*
X170262790Y-63865504D01*
X170279702Y-63873478D01*
G37*
X177830853Y-63864936D02*
X177897100Y-63870366D01*
X177952400Y-63879964D01*
X178003283Y-63894825D01*
X178074595Y-63927958D01*
X178125752Y-63970640D01*
X178156575Y-64022705D01*
X178166889Y-64083983D01*
X178165952Y-64115232D01*
X178160160Y-64140029D01*
X178145353Y-64161699D01*
X178117380Y-64189049D01*
X178109402Y-64196378D01*
X178085692Y-64217281D01*
X178063298Y-64234251D01*
X178039265Y-64248205D01*
X178010637Y-64260056D01*
X177974460Y-64270720D01*
X177927780Y-64281111D01*
X177867641Y-64292146D01*
X177791090Y-64304738D01*
X177695171Y-64319804D01*
X177676808Y-64322838D01*
X177614478Y-64336458D01*
X177569260Y-64352192D01*
X177542976Y-64369263D01*
X177537447Y-64386897D01*
X177540068Y-64391168D01*
X177558000Y-64406233D01*
X177586126Y-64422867D01*
X177598926Y-64428857D01*
X177620224Y-64436050D01*
X177646610Y-64440827D01*
X177682454Y-64443646D01*
X177732128Y-64444964D01*
X177800000Y-64445237D01*
X177817785Y-64445164D01*
X177885406Y-64444053D01*
X177950345Y-64441828D01*
X178005970Y-64438762D01*
X178045651Y-64435127D01*
X178081162Y-64431059D01*
X178110415Y-64430276D01*
X178129315Y-64434876D01*
X178144429Y-64445551D01*
X178148085Y-64449144D01*
X178164427Y-64480918D01*
X178163107Y-64516572D01*
X178144150Y-64547190D01*
X178123780Y-64558796D01*
X178087796Y-64571491D01*
X178045372Y-64581541D01*
X178041922Y-64582140D01*
X177999252Y-64587356D01*
X177941866Y-64591730D01*
X177876849Y-64594818D01*
X177811289Y-64596177D01*
X177795057Y-64596218D01*
X177696744Y-64593741D01*
X177616692Y-64585735D01*
X177551513Y-64571203D01*
X177497817Y-64549149D01*
X177452216Y-64518576D01*
X177411323Y-64478486D01*
X177391202Y-64452259D01*
X177379576Y-64422712D01*
X177376667Y-64382995D01*
X177376808Y-64371026D01*
X177380681Y-64338345D01*
X177393065Y-64311819D01*
X177418230Y-64280971D01*
X177439442Y-64258831D01*
X177465838Y-64236285D01*
X177495555Y-64217917D01*
X177531785Y-64202661D01*
X177577717Y-64189449D01*
X177636544Y-64177214D01*
X177711456Y-64164889D01*
X177805645Y-64151406D01*
X177850957Y-64144396D01*
X177918911Y-64129837D01*
X177968047Y-64113337D01*
X177997614Y-64095439D01*
X178006864Y-64076685D01*
X177995048Y-64057615D01*
X177961416Y-64038771D01*
X177958370Y-64037557D01*
X177912011Y-64025479D01*
X177849361Y-64017279D01*
X177775927Y-64013119D01*
X177697217Y-64013161D01*
X177618739Y-64017569D01*
X177546000Y-64026505D01*
X177542073Y-64027154D01*
X177493257Y-64034861D01*
X177461005Y-64038473D01*
X177440008Y-64037876D01*
X177424954Y-64032954D01*
X177410534Y-64023596D01*
X177409364Y-64022725D01*
X177384847Y-63992351D01*
X177380054Y-63956850D01*
X177395860Y-63922269D01*
X177400406Y-63917813D01*
X177430020Y-63902673D01*
X177477002Y-63889550D01*
X177537306Y-63878750D01*
X177606888Y-63870581D01*
X177681703Y-63865351D01*
X177757706Y-63863367D01*
X177830853Y-63864936D01*
G36*
X177830853Y-63864936D02*
G01*
X177897100Y-63870366D01*
X177952400Y-63879964D01*
X178003283Y-63894825D01*
X178074595Y-63927958D01*
X178125752Y-63970640D01*
X178156575Y-64022705D01*
X178166889Y-64083983D01*
X178165952Y-64115232D01*
X178160160Y-64140029D01*
X178145353Y-64161699D01*
X178117380Y-64189049D01*
X178109402Y-64196378D01*
X178085692Y-64217281D01*
X178063298Y-64234251D01*
X178039265Y-64248205D01*
X178010637Y-64260056D01*
X177974460Y-64270720D01*
X177927780Y-64281111D01*
X177867641Y-64292146D01*
X177791090Y-64304738D01*
X177695171Y-64319804D01*
X177676808Y-64322838D01*
X177614478Y-64336458D01*
X177569260Y-64352192D01*
X177542976Y-64369263D01*
X177537447Y-64386897D01*
X177540068Y-64391168D01*
X177558000Y-64406233D01*
X177586126Y-64422867D01*
X177598926Y-64428857D01*
X177620224Y-64436050D01*
X177646610Y-64440827D01*
X177682454Y-64443646D01*
X177732128Y-64444964D01*
X177800000Y-64445237D01*
X177817785Y-64445164D01*
X177885406Y-64444053D01*
X177950345Y-64441828D01*
X178005970Y-64438762D01*
X178045651Y-64435127D01*
X178081162Y-64431059D01*
X178110415Y-64430276D01*
X178129315Y-64434876D01*
X178144429Y-64445551D01*
X178148085Y-64449144D01*
X178164427Y-64480918D01*
X178163107Y-64516572D01*
X178144150Y-64547190D01*
X178123780Y-64558796D01*
X178087796Y-64571491D01*
X178045372Y-64581541D01*
X178041922Y-64582140D01*
X177999252Y-64587356D01*
X177941866Y-64591730D01*
X177876849Y-64594818D01*
X177811289Y-64596177D01*
X177795057Y-64596218D01*
X177696744Y-64593741D01*
X177616692Y-64585735D01*
X177551513Y-64571203D01*
X177497817Y-64549149D01*
X177452216Y-64518576D01*
X177411323Y-64478486D01*
X177391202Y-64452259D01*
X177379576Y-64422712D01*
X177376667Y-64382995D01*
X177376808Y-64371026D01*
X177380681Y-64338345D01*
X177393065Y-64311819D01*
X177418230Y-64280971D01*
X177439442Y-64258831D01*
X177465838Y-64236285D01*
X177495555Y-64217917D01*
X177531785Y-64202661D01*
X177577717Y-64189449D01*
X177636544Y-64177214D01*
X177711456Y-64164889D01*
X177805645Y-64151406D01*
X177850957Y-64144396D01*
X177918911Y-64129837D01*
X177968047Y-64113337D01*
X177997614Y-64095439D01*
X178006864Y-64076685D01*
X177995048Y-64057615D01*
X177961416Y-64038771D01*
X177958370Y-64037557D01*
X177912011Y-64025479D01*
X177849361Y-64017279D01*
X177775927Y-64013119D01*
X177697217Y-64013161D01*
X177618739Y-64017569D01*
X177546000Y-64026505D01*
X177542073Y-64027154D01*
X177493257Y-64034861D01*
X177461005Y-64038473D01*
X177440008Y-64037876D01*
X177424954Y-64032954D01*
X177410534Y-64023596D01*
X177409364Y-64022725D01*
X177384847Y-63992351D01*
X177380054Y-63956850D01*
X177395860Y-63922269D01*
X177400406Y-63917813D01*
X177430020Y-63902673D01*
X177477002Y-63889550D01*
X177537306Y-63878750D01*
X177606888Y-63870581D01*
X177681703Y-63865351D01*
X177757706Y-63863367D01*
X177830853Y-63864936D01*
G37*
X173978711Y-59557033D02*
X174074268Y-59574523D01*
X174238558Y-59619564D01*
X174392589Y-59682656D01*
X174538509Y-59764915D01*
X174678466Y-59867457D01*
X174814608Y-59991399D01*
X174858473Y-60036661D01*
X174970758Y-60168865D01*
X175063972Y-60306832D01*
X175140719Y-60454750D01*
X175203603Y-60616803D01*
X175207420Y-60628391D01*
X175257507Y-60814392D01*
X175290899Y-61010521D01*
X175307584Y-61212568D01*
X175307551Y-61416325D01*
X175290791Y-61617581D01*
X175257292Y-61812128D01*
X175207044Y-61995756D01*
X175163190Y-62113053D01*
X175085348Y-62275951D01*
X174991828Y-62429866D01*
X174884822Y-62571671D01*
X174766519Y-62698239D01*
X174639111Y-62806441D01*
X174561606Y-62859120D01*
X174434725Y-62928750D01*
X174297243Y-62987468D01*
X174155716Y-63032587D01*
X174016702Y-63061422D01*
X174002597Y-63063106D01*
X173959153Y-63066434D01*
X173901723Y-63069275D01*
X173836122Y-63071373D01*
X173768167Y-63072468D01*
X173641378Y-63070140D01*
X173493673Y-63057136D01*
X173355779Y-63032133D01*
X173222014Y-62994318D01*
X173198562Y-62985889D01*
X173150612Y-62966408D01*
X173094140Y-62941473D01*
X173032379Y-62912722D01*
X172968563Y-62881790D01*
X172905926Y-62850315D01*
X172847703Y-62819934D01*
X172797127Y-62792283D01*
X172757433Y-62768999D01*
X172731854Y-62751718D01*
X172723625Y-62742079D01*
X172725076Y-62738984D01*
X172736250Y-62719079D01*
X172757134Y-62683420D01*
X172786265Y-62634459D01*
X172822181Y-62574646D01*
X172863420Y-62506433D01*
X172908517Y-62432271D01*
X173089785Y-62135008D01*
X173136315Y-62179539D01*
X173227723Y-62257865D01*
X173341334Y-62332439D01*
X173459122Y-62386474D01*
X173579559Y-62419290D01*
X173701117Y-62430211D01*
X173742585Y-62428868D01*
X173860080Y-62410612D01*
X173970089Y-62371617D01*
X174071430Y-62312670D01*
X174162921Y-62234557D01*
X174243380Y-62138064D01*
X174311627Y-62023978D01*
X174327908Y-61989724D01*
X174373982Y-61866240D01*
X174409106Y-61727918D01*
X174433197Y-61578561D01*
X174446173Y-61421973D01*
X174447949Y-61261956D01*
X174438443Y-61102314D01*
X174417572Y-60946850D01*
X174385252Y-60799366D01*
X174341399Y-60663667D01*
X174303982Y-60577076D01*
X174239185Y-60463688D01*
X174163772Y-60370070D01*
X174077418Y-60295959D01*
X173979795Y-60241094D01*
X173870577Y-60205212D01*
X173749439Y-60188051D01*
X173680038Y-60186880D01*
X173557168Y-60201141D01*
X173441664Y-60236241D01*
X173334953Y-60291682D01*
X173238464Y-60366964D01*
X173222720Y-60381440D01*
X173192150Y-60407962D01*
X173169809Y-60425138D01*
X173159691Y-60429787D01*
X173157706Y-60427597D01*
X173143241Y-60408721D01*
X173119400Y-60375397D01*
X173088029Y-60330380D01*
X173050974Y-60276425D01*
X173010083Y-60216285D01*
X172967202Y-60152718D01*
X172924178Y-60088476D01*
X172882857Y-60026315D01*
X172845086Y-59968991D01*
X172812712Y-59919257D01*
X172787582Y-59879868D01*
X172771542Y-59853580D01*
X172766439Y-59843147D01*
X172771050Y-59838941D01*
X172790267Y-59833933D01*
X172799838Y-59831386D01*
X172827809Y-59820249D01*
X172869448Y-59801802D01*
X172920995Y-59777725D01*
X172978690Y-59749699D01*
X172989957Y-59744154D01*
X173167687Y-59664889D01*
X173337490Y-59605385D01*
X173501430Y-59565245D01*
X173661571Y-59544071D01*
X173819977Y-59541466D01*
X173978711Y-59557033D01*
G36*
X173978711Y-59557033D02*
G01*
X174074268Y-59574523D01*
X174238558Y-59619564D01*
X174392589Y-59682656D01*
X174538509Y-59764915D01*
X174678466Y-59867457D01*
X174814608Y-59991399D01*
X174858473Y-60036661D01*
X174970758Y-60168865D01*
X175063972Y-60306832D01*
X175140719Y-60454750D01*
X175203603Y-60616803D01*
X175207420Y-60628391D01*
X175257507Y-60814392D01*
X175290899Y-61010521D01*
X175307584Y-61212568D01*
X175307551Y-61416325D01*
X175290791Y-61617581D01*
X175257292Y-61812128D01*
X175207044Y-61995756D01*
X175163190Y-62113053D01*
X175085348Y-62275951D01*
X174991828Y-62429866D01*
X174884822Y-62571671D01*
X174766519Y-62698239D01*
X174639111Y-62806441D01*
X174561606Y-62859120D01*
X174434725Y-62928750D01*
X174297243Y-62987468D01*
X174155716Y-63032587D01*
X174016702Y-63061422D01*
X174002597Y-63063106D01*
X173959153Y-63066434D01*
X173901723Y-63069275D01*
X173836122Y-63071373D01*
X173768167Y-63072468D01*
X173641378Y-63070140D01*
X173493673Y-63057136D01*
X173355779Y-63032133D01*
X173222014Y-62994318D01*
X173198562Y-62985889D01*
X173150612Y-62966408D01*
X173094140Y-62941473D01*
X173032379Y-62912722D01*
X172968563Y-62881790D01*
X172905926Y-62850315D01*
X172847703Y-62819934D01*
X172797127Y-62792283D01*
X172757433Y-62768999D01*
X172731854Y-62751718D01*
X172723625Y-62742079D01*
X172725076Y-62738984D01*
X172736250Y-62719079D01*
X172757134Y-62683420D01*
X172786265Y-62634459D01*
X172822181Y-62574646D01*
X172863420Y-62506433D01*
X172908517Y-62432271D01*
X173089785Y-62135008D01*
X173136315Y-62179539D01*
X173227723Y-62257865D01*
X173341334Y-62332439D01*
X173459122Y-62386474D01*
X173579559Y-62419290D01*
X173701117Y-62430211D01*
X173742585Y-62428868D01*
X173860080Y-62410612D01*
X173970089Y-62371617D01*
X174071430Y-62312670D01*
X174162921Y-62234557D01*
X174243380Y-62138064D01*
X174311627Y-62023978D01*
X174327908Y-61989724D01*
X174373982Y-61866240D01*
X174409106Y-61727918D01*
X174433197Y-61578561D01*
X174446173Y-61421973D01*
X174447949Y-61261956D01*
X174438443Y-61102314D01*
X174417572Y-60946850D01*
X174385252Y-60799366D01*
X174341399Y-60663667D01*
X174303982Y-60577076D01*
X174239185Y-60463688D01*
X174163772Y-60370070D01*
X174077418Y-60295959D01*
X173979795Y-60241094D01*
X173870577Y-60205212D01*
X173749439Y-60188051D01*
X173680038Y-60186880D01*
X173557168Y-60201141D01*
X173441664Y-60236241D01*
X173334953Y-60291682D01*
X173238464Y-60366964D01*
X173222720Y-60381440D01*
X173192150Y-60407962D01*
X173169809Y-60425138D01*
X173159691Y-60429787D01*
X173157706Y-60427597D01*
X173143241Y-60408721D01*
X173119400Y-60375397D01*
X173088029Y-60330380D01*
X173050974Y-60276425D01*
X173010083Y-60216285D01*
X172967202Y-60152718D01*
X172924178Y-60088476D01*
X172882857Y-60026315D01*
X172845086Y-59968991D01*
X172812712Y-59919257D01*
X172787582Y-59879868D01*
X172771542Y-59853580D01*
X172766439Y-59843147D01*
X172771050Y-59838941D01*
X172790267Y-59833933D01*
X172799838Y-59831386D01*
X172827809Y-59820249D01*
X172869448Y-59801802D01*
X172920995Y-59777725D01*
X172978690Y-59749699D01*
X172989957Y-59744154D01*
X173167687Y-59664889D01*
X173337490Y-59605385D01*
X173501430Y-59565245D01*
X173661571Y-59544071D01*
X173819977Y-59541466D01*
X173978711Y-59557033D01*
G37*
X170175994Y-61837711D02*
X170175268Y-61915158D01*
X170166689Y-62066594D01*
X170147833Y-62203283D01*
X170117837Y-62329276D01*
X170075836Y-62448625D01*
X170020969Y-62565381D01*
X169954167Y-62676179D01*
X169863363Y-62789739D01*
X169759708Y-62885211D01*
X169643887Y-62962073D01*
X169516586Y-63019797D01*
X169378489Y-63057858D01*
X169340793Y-63063666D01*
X169261752Y-63069396D01*
X169173629Y-63069583D01*
X169084236Y-63064539D01*
X169001384Y-63054578D01*
X168932887Y-63040012D01*
X168902035Y-63030364D01*
X168824730Y-63000123D01*
X168747679Y-62962617D01*
X168678200Y-62921614D01*
X168623615Y-62880879D01*
X168600916Y-62861505D01*
X168578201Y-62843662D01*
X168566779Y-62836778D01*
X168565537Y-62838424D01*
X168562728Y-62856205D01*
X168560776Y-62889370D01*
X168560045Y-62932733D01*
X168560045Y-63028689D01*
X167701896Y-63028689D01*
X167736161Y-62967974D01*
X167741355Y-62958868D01*
X167749715Y-62944249D01*
X167757288Y-62930173D01*
X167764112Y-62915540D01*
X167770227Y-62899249D01*
X167775673Y-62880198D01*
X167780487Y-62857286D01*
X167784708Y-62829413D01*
X167788377Y-62795478D01*
X167791531Y-62754379D01*
X167794211Y-62705015D01*
X167796454Y-62646286D01*
X167798299Y-62577090D01*
X167799787Y-62496326D01*
X167800955Y-62402894D01*
X167801844Y-62295692D01*
X167802491Y-62173620D01*
X167802936Y-62035576D01*
X167803218Y-61880459D01*
X167803375Y-61707168D01*
X167803448Y-61514603D01*
X167803474Y-61301662D01*
X167803485Y-61165530D01*
X168605200Y-61165530D01*
X168605200Y-62315721D01*
X168675756Y-62362089D01*
X168716417Y-62385791D01*
X168770546Y-62411639D01*
X168819689Y-62429829D01*
X168883165Y-62445551D01*
X168979331Y-62456541D01*
X169063900Y-62448365D01*
X169137219Y-62420805D01*
X169199637Y-62373642D01*
X169251502Y-62306658D01*
X169293160Y-62219633D01*
X169324962Y-62112350D01*
X169327545Y-62100009D01*
X169336000Y-62038772D01*
X169341663Y-61961692D01*
X169344576Y-61874002D01*
X169344783Y-61780934D01*
X169342330Y-61687720D01*
X169337261Y-61599594D01*
X169329619Y-61521788D01*
X169319448Y-61459533D01*
X169318167Y-61453666D01*
X169289126Y-61343121D01*
X169254610Y-61252575D01*
X169213456Y-61179953D01*
X169164499Y-61123181D01*
X169106574Y-61080184D01*
X169074620Y-61064615D01*
X169001784Y-61045722D01*
X168920443Y-61042465D01*
X168835319Y-61054389D01*
X168751133Y-61081040D01*
X168672608Y-61121962D01*
X168605200Y-61165530D01*
X167803485Y-61165530D01*
X167803493Y-61067245D01*
X167803689Y-59382378D01*
X168709017Y-59382378D01*
X168684585Y-59419067D01*
X168678318Y-59428647D01*
X168652208Y-59474981D01*
X168634469Y-59522102D01*
X168622908Y-59577251D01*
X168615331Y-59647667D01*
X168614839Y-59654650D01*
X168613062Y-59692641D01*
X168611444Y-59746576D01*
X168609999Y-59813703D01*
X168608740Y-59891271D01*
X168607680Y-59976528D01*
X168606829Y-60066724D01*
X168606203Y-60159107D01*
X168605812Y-60250925D01*
X168605670Y-60339427D01*
X168605790Y-60421862D01*
X168606183Y-60495479D01*
X168606862Y-60557526D01*
X168607841Y-60605251D01*
X168609132Y-60635904D01*
X168610747Y-60646733D01*
X168618957Y-60642333D01*
X168640647Y-60627362D01*
X168670014Y-60605448D01*
X168718879Y-60571236D01*
X168807125Y-60524714D01*
X168905916Y-60491046D01*
X169018510Y-60469231D01*
X169148164Y-60458265D01*
X169240670Y-60457219D01*
X169362011Y-60467014D01*
X169472099Y-60491174D01*
X169575389Y-60530785D01*
X169676338Y-60586932D01*
X169721503Y-60617883D01*
X169826911Y-60709115D01*
X169918538Y-60818106D01*
X169996332Y-60944726D01*
X170060241Y-61088845D01*
X170110214Y-61250332D01*
X170146198Y-61429059D01*
X170168143Y-61624895D01*
X170173900Y-61780934D01*
X170175994Y-61837711D01*
G36*
X170175994Y-61837711D02*
G01*
X170175268Y-61915158D01*
X170166689Y-62066594D01*
X170147833Y-62203283D01*
X170117837Y-62329276D01*
X170075836Y-62448625D01*
X170020969Y-62565381D01*
X169954167Y-62676179D01*
X169863363Y-62789739D01*
X169759708Y-62885211D01*
X169643887Y-62962073D01*
X169516586Y-63019797D01*
X169378489Y-63057858D01*
X169340793Y-63063666D01*
X169261752Y-63069396D01*
X169173629Y-63069583D01*
X169084236Y-63064539D01*
X169001384Y-63054578D01*
X168932887Y-63040012D01*
X168902035Y-63030364D01*
X168824730Y-63000123D01*
X168747679Y-62962617D01*
X168678200Y-62921614D01*
X168623615Y-62880879D01*
X168600916Y-62861505D01*
X168578201Y-62843662D01*
X168566779Y-62836778D01*
X168565537Y-62838424D01*
X168562728Y-62856205D01*
X168560776Y-62889370D01*
X168560045Y-62932733D01*
X168560045Y-63028689D01*
X167701896Y-63028689D01*
X167736161Y-62967974D01*
X167741355Y-62958868D01*
X167749715Y-62944249D01*
X167757288Y-62930173D01*
X167764112Y-62915540D01*
X167770227Y-62899249D01*
X167775673Y-62880198D01*
X167780487Y-62857286D01*
X167784708Y-62829413D01*
X167788377Y-62795478D01*
X167791531Y-62754379D01*
X167794211Y-62705015D01*
X167796454Y-62646286D01*
X167798299Y-62577090D01*
X167799787Y-62496326D01*
X167800955Y-62402894D01*
X167801844Y-62295692D01*
X167802491Y-62173620D01*
X167802936Y-62035576D01*
X167803218Y-61880459D01*
X167803375Y-61707168D01*
X167803448Y-61514603D01*
X167803474Y-61301662D01*
X167803485Y-61165530D01*
X168605200Y-61165530D01*
X168605200Y-62315721D01*
X168675756Y-62362089D01*
X168716417Y-62385791D01*
X168770546Y-62411639D01*
X168819689Y-62429829D01*
X168883165Y-62445551D01*
X168979331Y-62456541D01*
X169063900Y-62448365D01*
X169137219Y-62420805D01*
X169199637Y-62373642D01*
X169251502Y-62306658D01*
X169293160Y-62219633D01*
X169324962Y-62112350D01*
X169327545Y-62100009D01*
X169336000Y-62038772D01*
X169341663Y-61961692D01*
X169344576Y-61874002D01*
X169344783Y-61780934D01*
X169342330Y-61687720D01*
X169337261Y-61599594D01*
X169329619Y-61521788D01*
X169319448Y-61459533D01*
X169318167Y-61453666D01*
X169289126Y-61343121D01*
X169254610Y-61252575D01*
X169213456Y-61179953D01*
X169164499Y-61123181D01*
X169106574Y-61080184D01*
X169074620Y-61064615D01*
X169001784Y-61045722D01*
X168920443Y-61042465D01*
X168835319Y-61054389D01*
X168751133Y-61081040D01*
X168672608Y-61121962D01*
X168605200Y-61165530D01*
X167803485Y-61165530D01*
X167803493Y-61067245D01*
X167803689Y-59382378D01*
X168709017Y-59382378D01*
X168684585Y-59419067D01*
X168678318Y-59428647D01*
X168652208Y-59474981D01*
X168634469Y-59522102D01*
X168622908Y-59577251D01*
X168615331Y-59647667D01*
X168614839Y-59654650D01*
X168613062Y-59692641D01*
X168611444Y-59746576D01*
X168609999Y-59813703D01*
X168608740Y-59891271D01*
X168607680Y-59976528D01*
X168606829Y-60066724D01*
X168606203Y-60159107D01*
X168605812Y-60250925D01*
X168605670Y-60339427D01*
X168605790Y-60421862D01*
X168606183Y-60495479D01*
X168606862Y-60557526D01*
X168607841Y-60605251D01*
X168609132Y-60635904D01*
X168610747Y-60646733D01*
X168618957Y-60642333D01*
X168640647Y-60627362D01*
X168670014Y-60605448D01*
X168718879Y-60571236D01*
X168807125Y-60524714D01*
X168905916Y-60491046D01*
X169018510Y-60469231D01*
X169148164Y-60458265D01*
X169240670Y-60457219D01*
X169362011Y-60467014D01*
X169472099Y-60491174D01*
X169575389Y-60530785D01*
X169676338Y-60586932D01*
X169721503Y-60617883D01*
X169826911Y-60709115D01*
X169918538Y-60818106D01*
X169996332Y-60944726D01*
X170060241Y-61088845D01*
X170110214Y-61250332D01*
X170146198Y-61429059D01*
X170168143Y-61624895D01*
X170173900Y-61780934D01*
X170175994Y-61837711D01*
G37*
X172717755Y-62238467D02*
X172717261Y-62272363D01*
X172713632Y-62347202D01*
X172706022Y-62409401D01*
X172693688Y-62465984D01*
X172649313Y-62592076D01*
X172586400Y-62706679D01*
X172506238Y-62807568D01*
X172409740Y-62893924D01*
X172297822Y-62964932D01*
X172171397Y-63019776D01*
X172031378Y-63057638D01*
X171995149Y-63063351D01*
X171916155Y-63069313D01*
X171827841Y-63069646D01*
X171738075Y-63064659D01*
X171654722Y-63054666D01*
X171585651Y-63039978D01*
X171499187Y-63009749D01*
X171389286Y-62955057D01*
X171291956Y-62887543D01*
X171229867Y-62836556D01*
X171226605Y-62932622D01*
X171223343Y-63028689D01*
X170800450Y-63028689D01*
X170789543Y-63028686D01*
X170695056Y-63028380D01*
X170608331Y-63027616D01*
X170531837Y-63026451D01*
X170468043Y-63024942D01*
X170419418Y-63023147D01*
X170388433Y-63021121D01*
X170377556Y-63018922D01*
X170377578Y-63018463D01*
X170384614Y-63002910D01*
X170400434Y-62980071D01*
X170404734Y-62974638D01*
X170415777Y-62960606D01*
X170425311Y-62947186D01*
X170433461Y-62932722D01*
X170440352Y-62915556D01*
X170446111Y-62894034D01*
X170450862Y-62866498D01*
X170454731Y-62831292D01*
X170457844Y-62786760D01*
X170460325Y-62731246D01*
X170462300Y-62663093D01*
X170463894Y-62580645D01*
X170465234Y-62482246D01*
X170466444Y-62366239D01*
X170467649Y-62230968D01*
X170468595Y-62119586D01*
X171269378Y-62119586D01*
X171269378Y-62315462D01*
X171314048Y-62371973D01*
X171326785Y-62387212D01*
X171373604Y-62429844D01*
X171434255Y-62465672D01*
X171444897Y-62470850D01*
X171483676Y-62487745D01*
X171518692Y-62497909D01*
X171558722Y-62503325D01*
X171612541Y-62505978D01*
X171630648Y-62506383D01*
X171706011Y-62503540D01*
X171766743Y-62491620D01*
X171818452Y-62469037D01*
X171866746Y-62434211D01*
X171871803Y-62429798D01*
X171920272Y-62374160D01*
X171948459Y-62310333D01*
X171957752Y-62235282D01*
X171950520Y-62163693D01*
X171925796Y-62100645D01*
X171881249Y-62042758D01*
X171826319Y-61995808D01*
X171753894Y-61955961D01*
X171667340Y-61928263D01*
X171564670Y-61912096D01*
X171443894Y-61906842D01*
X171435007Y-61906857D01*
X171379660Y-61907655D01*
X171332736Y-61909488D01*
X171298953Y-61912111D01*
X171283028Y-61915274D01*
X171278943Y-61921741D01*
X171274572Y-61943875D01*
X171271604Y-61982988D01*
X171269914Y-62040939D01*
X171269378Y-62119586D01*
X170468595Y-62119586D01*
X170468975Y-62074778D01*
X170470228Y-61932012D01*
X170471651Y-61786942D01*
X170473176Y-61661027D01*
X170474933Y-61552436D01*
X170477051Y-61459334D01*
X170479660Y-61379891D01*
X170482890Y-61312273D01*
X170486869Y-61254649D01*
X170491728Y-61205185D01*
X170497597Y-61162050D01*
X170504604Y-61123410D01*
X170512880Y-61087434D01*
X170522554Y-61052289D01*
X170533756Y-61016142D01*
X170546616Y-60977161D01*
X170562090Y-60934091D01*
X170604994Y-60841871D01*
X170658735Y-60762099D01*
X170727576Y-60687965D01*
X170805185Y-60624405D01*
X170909761Y-60562725D01*
X171029244Y-60515202D01*
X171164508Y-60481567D01*
X171316426Y-60461552D01*
X171485872Y-60454889D01*
X171543890Y-60455287D01*
X171609398Y-60457335D01*
X171670693Y-60461704D01*
X171732097Y-60469035D01*
X171797932Y-60479969D01*
X171872520Y-60495147D01*
X171960184Y-60515209D01*
X172065245Y-60540797D01*
X172093806Y-60547820D01*
X172169054Y-60565776D01*
X172239388Y-60581820D01*
X172300567Y-60595028D01*
X172348354Y-60604474D01*
X172378511Y-60609231D01*
X172406783Y-60612910D01*
X172433060Y-60618187D01*
X172443059Y-60622942D01*
X172439952Y-60631781D01*
X172429194Y-60659072D01*
X172411864Y-60701906D01*
X172389126Y-60757425D01*
X172362147Y-60822772D01*
X172332090Y-60895089D01*
X172325493Y-60910879D01*
X172286907Y-61001484D01*
X172255768Y-61071217D01*
X172231917Y-61120405D01*
X172215198Y-61149374D01*
X172205454Y-61158452D01*
X172197766Y-61156405D01*
X172171415Y-61146760D01*
X172132982Y-61131190D01*
X172087822Y-61111815D01*
X171993293Y-61073814D01*
X171856480Y-61032780D01*
X171715289Y-61007612D01*
X171677314Y-61003611D01*
X171574059Y-61001447D01*
X171486952Y-61014622D01*
X171415129Y-61043756D01*
X171357731Y-61089466D01*
X171313896Y-61152372D01*
X171282762Y-61233092D01*
X171263470Y-61332245D01*
X171256050Y-61391224D01*
X171417936Y-61384445D01*
X171544495Y-61382813D01*
X171695951Y-61389194D01*
X171844396Y-61403777D01*
X171980578Y-61425882D01*
X172045245Y-61440821D01*
X172177490Y-61483741D01*
X172299762Y-61540340D01*
X172409685Y-61609017D01*
X172504883Y-61688170D01*
X172582980Y-61776196D01*
X172641599Y-61871493D01*
X172665595Y-61923864D01*
X172691232Y-61994590D01*
X172707478Y-62065812D01*
X172715822Y-62144712D01*
X172717690Y-62235282D01*
X172717755Y-62238467D01*
G36*
X172717755Y-62238467D02*
G01*
X172717261Y-62272363D01*
X172713632Y-62347202D01*
X172706022Y-62409401D01*
X172693688Y-62465984D01*
X172649313Y-62592076D01*
X172586400Y-62706679D01*
X172506238Y-62807568D01*
X172409740Y-62893924D01*
X172297822Y-62964932D01*
X172171397Y-63019776D01*
X172031378Y-63057638D01*
X171995149Y-63063351D01*
X171916155Y-63069313D01*
X171827841Y-63069646D01*
X171738075Y-63064659D01*
X171654722Y-63054666D01*
X171585651Y-63039978D01*
X171499187Y-63009749D01*
X171389286Y-62955057D01*
X171291956Y-62887543D01*
X171229867Y-62836556D01*
X171226605Y-62932622D01*
X171223343Y-63028689D01*
X170800450Y-63028689D01*
X170789543Y-63028686D01*
X170695056Y-63028380D01*
X170608331Y-63027616D01*
X170531837Y-63026451D01*
X170468043Y-63024942D01*
X170419418Y-63023147D01*
X170388433Y-63021121D01*
X170377556Y-63018922D01*
X170377578Y-63018463D01*
X170384614Y-63002910D01*
X170400434Y-62980071D01*
X170404734Y-62974638D01*
X170415777Y-62960606D01*
X170425311Y-62947186D01*
X170433461Y-62932722D01*
X170440352Y-62915556D01*
X170446111Y-62894034D01*
X170450862Y-62866498D01*
X170454731Y-62831292D01*
X170457844Y-62786760D01*
X170460325Y-62731246D01*
X170462300Y-62663093D01*
X170463894Y-62580645D01*
X170465234Y-62482246D01*
X170466444Y-62366239D01*
X170467649Y-62230968D01*
X170468595Y-62119586D01*
X171269378Y-62119586D01*
X171269378Y-62315462D01*
X171314048Y-62371973D01*
X171326785Y-62387212D01*
X171373604Y-62429844D01*
X171434255Y-62465672D01*
X171444897Y-62470850D01*
X171483676Y-62487745D01*
X171518692Y-62497909D01*
X171558722Y-62503325D01*
X171612541Y-62505978D01*
X171630648Y-62506383D01*
X171706011Y-62503540D01*
X171766743Y-62491620D01*
X171818452Y-62469037D01*
X171866746Y-62434211D01*
X171871803Y-62429798D01*
X171920272Y-62374160D01*
X171948459Y-62310333D01*
X171957752Y-62235282D01*
X171950520Y-62163693D01*
X171925796Y-62100645D01*
X171881249Y-62042758D01*
X171826319Y-61995808D01*
X171753894Y-61955961D01*
X171667340Y-61928263D01*
X171564670Y-61912096D01*
X171443894Y-61906842D01*
X171435007Y-61906857D01*
X171379660Y-61907655D01*
X171332736Y-61909488D01*
X171298953Y-61912111D01*
X171283028Y-61915274D01*
X171278943Y-61921741D01*
X171274572Y-61943875D01*
X171271604Y-61982988D01*
X171269914Y-62040939D01*
X171269378Y-62119586D01*
X170468595Y-62119586D01*
X170468975Y-62074778D01*
X170470228Y-61932012D01*
X170471651Y-61786942D01*
X170473176Y-61661027D01*
X170474933Y-61552436D01*
X170477051Y-61459334D01*
X170479660Y-61379891D01*
X170482890Y-61312273D01*
X170486869Y-61254649D01*
X170491728Y-61205185D01*
X170497597Y-61162050D01*
X170504604Y-61123410D01*
X170512880Y-61087434D01*
X170522554Y-61052289D01*
X170533756Y-61016142D01*
X170546616Y-60977161D01*
X170562090Y-60934091D01*
X170604994Y-60841871D01*
X170658735Y-60762099D01*
X170727576Y-60687965D01*
X170805185Y-60624405D01*
X170909761Y-60562725D01*
X171029244Y-60515202D01*
X171164508Y-60481567D01*
X171316426Y-60461552D01*
X171485872Y-60454889D01*
X171543890Y-60455287D01*
X171609398Y-60457335D01*
X171670693Y-60461704D01*
X171732097Y-60469035D01*
X171797932Y-60479969D01*
X171872520Y-60495147D01*
X171960184Y-60515209D01*
X172065245Y-60540797D01*
X172093806Y-60547820D01*
X172169054Y-60565776D01*
X172239388Y-60581820D01*
X172300567Y-60595028D01*
X172348354Y-60604474D01*
X172378511Y-60609231D01*
X172406783Y-60612910D01*
X172433060Y-60618187D01*
X172443059Y-60622942D01*
X172439952Y-60631781D01*
X172429194Y-60659072D01*
X172411864Y-60701906D01*
X172389126Y-60757425D01*
X172362147Y-60822772D01*
X172332090Y-60895089D01*
X172325493Y-60910879D01*
X172286907Y-61001484D01*
X172255768Y-61071217D01*
X172231917Y-61120405D01*
X172215198Y-61149374D01*
X172205454Y-61158452D01*
X172197766Y-61156405D01*
X172171415Y-61146760D01*
X172132982Y-61131190D01*
X172087822Y-61111815D01*
X171993293Y-61073814D01*
X171856480Y-61032780D01*
X171715289Y-61007612D01*
X171677314Y-61003611D01*
X171574059Y-61001447D01*
X171486952Y-61014622D01*
X171415129Y-61043756D01*
X171357731Y-61089466D01*
X171313896Y-61152372D01*
X171282762Y-61233092D01*
X171263470Y-61332245D01*
X171256050Y-61391224D01*
X171417936Y-61384445D01*
X171544495Y-61382813D01*
X171695951Y-61389194D01*
X171844396Y-61403777D01*
X171980578Y-61425882D01*
X172045245Y-61440821D01*
X172177490Y-61483741D01*
X172299762Y-61540340D01*
X172409685Y-61609017D01*
X172504883Y-61688170D01*
X172582980Y-61776196D01*
X172641599Y-61871493D01*
X172665595Y-61923864D01*
X172691232Y-61994590D01*
X172707478Y-62065812D01*
X172715822Y-62144712D01*
X172717690Y-62235282D01*
X172717755Y-62238467D01*
G37*
X180265614Y-59706792D02*
X180266059Y-59838011D01*
X180266362Y-59985216D01*
X180266548Y-60149349D01*
X180266642Y-60331352D01*
X180266671Y-60532165D01*
X180266661Y-60752732D01*
X180266636Y-60993992D01*
X180266622Y-61256889D01*
X180266622Y-61299040D01*
X180266646Y-61559668D01*
X180266685Y-61798796D01*
X180266708Y-62017360D01*
X180266687Y-62216295D01*
X180266593Y-62396535D01*
X180266395Y-62559015D01*
X180266063Y-62704670D01*
X180265569Y-62834434D01*
X180264883Y-62949243D01*
X180263976Y-63050030D01*
X180262817Y-63137730D01*
X180261378Y-63213279D01*
X180259629Y-63277611D01*
X180257540Y-63331661D01*
X180255083Y-63376363D01*
X180252227Y-63412652D01*
X180248943Y-63441463D01*
X180245202Y-63463731D01*
X180240974Y-63480390D01*
X180236229Y-63492375D01*
X180230939Y-63500621D01*
X180225073Y-63506062D01*
X180218602Y-63509634D01*
X180211497Y-63512270D01*
X180203728Y-63514906D01*
X180195266Y-63518477D01*
X180190908Y-63520145D01*
X180182395Y-63522111D01*
X180169694Y-63523911D01*
X180151885Y-63525555D01*
X180128049Y-63527047D01*
X180097266Y-63528397D01*
X180058617Y-63529611D01*
X180011182Y-63530697D01*
X179954043Y-63531661D01*
X179886279Y-63532511D01*
X179806971Y-63533253D01*
X179715199Y-63533897D01*
X179610044Y-63534447D01*
X179490587Y-63534913D01*
X179355908Y-63535300D01*
X179205088Y-63535616D01*
X179037206Y-63535869D01*
X178851345Y-63536066D01*
X178646583Y-63536213D01*
X178422002Y-63536318D01*
X178176682Y-63536389D01*
X177909704Y-63536432D01*
X177871321Y-63536437D01*
X177605922Y-63536480D01*
X177362050Y-63536525D01*
X177138783Y-63536548D01*
X176935196Y-63536524D01*
X176750367Y-63536430D01*
X176583373Y-63536243D01*
X176433290Y-63535939D01*
X176299196Y-63535494D01*
X176180166Y-63534885D01*
X176075279Y-63534089D01*
X175983610Y-63533080D01*
X175904237Y-63531837D01*
X175836237Y-63530335D01*
X175778686Y-63528551D01*
X175730662Y-63526461D01*
X175691240Y-63524042D01*
X175659499Y-63521270D01*
X175634514Y-63518121D01*
X175615364Y-63514572D01*
X175601123Y-63510598D01*
X175590871Y-63506178D01*
X175583682Y-63501286D01*
X175578635Y-63495900D01*
X175574805Y-63489996D01*
X175571271Y-63483549D01*
X175567108Y-63476537D01*
X175566025Y-63474687D01*
X175563813Y-63469180D01*
X175561786Y-63460868D01*
X175559938Y-63448809D01*
X175558261Y-63432063D01*
X175556745Y-63409687D01*
X175555383Y-63380740D01*
X175554167Y-63344280D01*
X175553089Y-63299367D01*
X175552140Y-63245057D01*
X175551312Y-63180410D01*
X175550597Y-63104484D01*
X175549987Y-63016338D01*
X175549942Y-63007493D01*
X175841378Y-63007493D01*
X175845260Y-63008765D01*
X175868520Y-63010791D01*
X175910874Y-63012626D01*
X175970132Y-63014227D01*
X176044107Y-63015549D01*
X176130610Y-63016548D01*
X176227452Y-63017180D01*
X176332445Y-63017400D01*
X177030651Y-63017400D01*
X178185090Y-63017400D01*
X178184456Y-62941200D01*
X178185574Y-62899160D01*
X178191304Y-62863334D01*
X178203890Y-62825772D01*
X178225568Y-62777577D01*
X178228789Y-62770897D01*
X178254188Y-62721359D01*
X178280996Y-62673369D01*
X178303917Y-62636466D01*
X178308485Y-62629834D01*
X178330516Y-62598593D01*
X178362693Y-62553654D01*
X178403457Y-62497147D01*
X178451245Y-62431204D01*
X178504498Y-62357957D01*
X178561655Y-62279536D01*
X178621155Y-62198072D01*
X178681437Y-62115698D01*
X178740940Y-62034544D01*
X178798105Y-61956742D01*
X178851370Y-61884423D01*
X178899174Y-61819718D01*
X178939957Y-61764759D01*
X178972158Y-61721676D01*
X178994216Y-61692602D01*
X179004571Y-61679667D01*
X179009044Y-61675351D01*
X179013236Y-61673312D01*
X179016643Y-61675926D01*
X179019325Y-61684986D01*
X179021341Y-61702285D01*
X179022748Y-61729614D01*
X179023605Y-61768765D01*
X179023970Y-61821533D01*
X179023903Y-61889707D01*
X179023460Y-61975082D01*
X179022702Y-62079449D01*
X179021685Y-62204600D01*
X179021308Y-62249300D01*
X179020169Y-62370395D01*
X179018972Y-62471688D01*
X179017636Y-62555262D01*
X179016077Y-62623204D01*
X179014215Y-62677599D01*
X179011966Y-62720532D01*
X179009248Y-62754089D01*
X179005979Y-62780355D01*
X179002078Y-62801416D01*
X178997461Y-62819357D01*
X178989192Y-62845770D01*
X178965583Y-62907772D01*
X178939685Y-62960573D01*
X178914535Y-62997645D01*
X178913339Y-62999075D01*
X178911168Y-63003424D01*
X178913328Y-63007026D01*
X178921644Y-63009951D01*
X178937940Y-63012269D01*
X178964041Y-63014051D01*
X179001771Y-63015367D01*
X179052956Y-63016286D01*
X179119420Y-63016878D01*
X179202987Y-63017215D01*
X179305483Y-63017365D01*
X179428732Y-63017400D01*
X179960296Y-63017400D01*
X179921523Y-62959783D01*
X179915432Y-62950893D01*
X179904976Y-62936069D01*
X179895579Y-62922422D01*
X179887183Y-62908765D01*
X179879733Y-62893911D01*
X179873173Y-62876670D01*
X179867446Y-62855855D01*
X179862495Y-62830280D01*
X179858266Y-62798755D01*
X179854701Y-62760093D01*
X179851744Y-62713107D01*
X179849340Y-62656608D01*
X179847431Y-62589409D01*
X179845962Y-62510322D01*
X179844876Y-62418160D01*
X179844118Y-62311734D01*
X179843630Y-62189857D01*
X179843358Y-62051341D01*
X179843243Y-61894999D01*
X179843231Y-61719642D01*
X179843265Y-61524082D01*
X179843289Y-61307133D01*
X179843280Y-61184513D01*
X179843243Y-60979447D01*
X179843227Y-60795116D01*
X179843288Y-60630334D01*
X179843484Y-60483916D01*
X179843870Y-60354674D01*
X179844505Y-60241422D01*
X179845444Y-60142975D01*
X179846745Y-60058144D01*
X179848464Y-59985744D01*
X179850659Y-59924589D01*
X179853385Y-59873492D01*
X179856701Y-59831267D01*
X179860662Y-59796727D01*
X179865325Y-59768686D01*
X179870747Y-59745958D01*
X179876986Y-59727356D01*
X179884097Y-59711693D01*
X179892138Y-59697784D01*
X179901166Y-59684441D01*
X179911236Y-59670479D01*
X179922407Y-59654711D01*
X179962197Y-59596867D01*
X178902314Y-59596867D01*
X178940311Y-59659966D01*
X178954993Y-59685005D01*
X178969531Y-59712586D01*
X178981627Y-59740700D01*
X178991532Y-59771551D01*
X178999494Y-59807344D01*
X179005761Y-59850283D01*
X179010582Y-59902574D01*
X179014206Y-59966419D01*
X179016881Y-60044025D01*
X179018857Y-60137594D01*
X179020382Y-60249333D01*
X179021704Y-60381445D01*
X179022613Y-60501434D01*
X179023020Y-60618063D01*
X179022767Y-60713531D01*
X179021857Y-60787556D01*
X179020293Y-60839855D01*
X179018079Y-60870149D01*
X179015220Y-60878156D01*
X179012161Y-60874858D01*
X178994006Y-60853408D01*
X178964275Y-60816889D01*
X178924639Y-60767442D01*
X178876771Y-60707207D01*
X178822343Y-60638327D01*
X178763027Y-60562943D01*
X178700495Y-60483196D01*
X178636421Y-60401228D01*
X178572475Y-60319180D01*
X178510331Y-60239194D01*
X178451661Y-60163411D01*
X178398137Y-60093973D01*
X178351430Y-60033021D01*
X178313214Y-59982696D01*
X178285161Y-59945140D01*
X178268943Y-59922495D01*
X178223635Y-59850212D01*
X178183661Y-59770463D01*
X178162130Y-59702188D01*
X178158827Y-59644844D01*
X178164116Y-59596867D01*
X177032356Y-59597117D01*
X177071867Y-59627722D01*
X177081248Y-59635089D01*
X177144183Y-59689438D01*
X177212997Y-59757259D01*
X177289596Y-59840516D01*
X177375888Y-59941178D01*
X177393052Y-59961847D01*
X177433833Y-60011409D01*
X177483588Y-60072326D01*
X177540955Y-60142898D01*
X177604569Y-60221424D01*
X177673069Y-60306204D01*
X177745090Y-60395537D01*
X177819270Y-60487722D01*
X177834517Y-60506702D01*
X177894246Y-60581060D01*
X177968653Y-60673848D01*
X178041131Y-60764388D01*
X178110314Y-60850978D01*
X178174841Y-60931918D01*
X178233347Y-61005506D01*
X178284470Y-61070044D01*
X178326847Y-61123829D01*
X178359115Y-61165162D01*
X178379910Y-61192342D01*
X178387869Y-61203668D01*
X178386111Y-61207771D01*
X178373230Y-61228334D01*
X178348885Y-61264561D01*
X178314247Y-61314824D01*
X178270486Y-61377492D01*
X178218775Y-61450936D01*
X178160284Y-61533527D01*
X178096184Y-61623636D01*
X178027646Y-61719631D01*
X177955843Y-61819885D01*
X177881944Y-61922768D01*
X177807121Y-62026650D01*
X177732545Y-62129901D01*
X177659387Y-62230892D01*
X177588819Y-62327994D01*
X177522011Y-62419577D01*
X177460135Y-62504011D01*
X177404361Y-62579667D01*
X177355862Y-62644916D01*
X177315807Y-62698128D01*
X177285369Y-62737673D01*
X177264944Y-62763026D01*
X177218899Y-62817295D01*
X177168612Y-62873775D01*
X177121815Y-62923669D01*
X177030651Y-63017400D01*
X176332445Y-63017400D01*
X176401356Y-63017349D01*
X176499607Y-63017091D01*
X176589030Y-63016637D01*
X176667333Y-63016010D01*
X176732223Y-63015235D01*
X176781411Y-63014335D01*
X176812604Y-63013334D01*
X176823511Y-63012257D01*
X176822322Y-63009037D01*
X176812176Y-62991452D01*
X176795040Y-62965158D01*
X176786540Y-62952691D01*
X176777329Y-62938622D01*
X176769233Y-62924351D01*
X176762185Y-62908479D01*
X176756117Y-62889609D01*
X176750961Y-62866341D01*
X176746651Y-62837278D01*
X176743119Y-62801021D01*
X176740297Y-62756170D01*
X176738118Y-62701328D01*
X176736514Y-62635097D01*
X176735419Y-62556077D01*
X176734765Y-62462871D01*
X176734484Y-62354079D01*
X176734509Y-62228303D01*
X176734772Y-62084145D01*
X176735206Y-61920207D01*
X176735745Y-61735089D01*
X176736279Y-61556232D01*
X176736805Y-61397374D01*
X176737350Y-61258316D01*
X176737945Y-61137665D01*
X176738619Y-61034028D01*
X176739403Y-60946011D01*
X176740326Y-60872223D01*
X176741419Y-60811269D01*
X176742712Y-60761757D01*
X176744235Y-60722293D01*
X176746019Y-60691484D01*
X176748092Y-60667938D01*
X176750486Y-60650260D01*
X176753230Y-60637059D01*
X176756356Y-60626940D01*
X176759892Y-60618511D01*
X176763791Y-60610375D01*
X176783438Y-60573544D01*
X176802225Y-60543391D01*
X176803272Y-60541908D01*
X176817602Y-60519659D01*
X176823511Y-60506702D01*
X176822504Y-60506249D01*
X176805305Y-60504803D01*
X176768656Y-60503480D01*
X176714962Y-60502316D01*
X176646630Y-60501347D01*
X176566064Y-60500611D01*
X176475670Y-60500142D01*
X176377853Y-60499978D01*
X175932195Y-60499978D01*
X175929120Y-61676845D01*
X175926045Y-62853711D01*
X175899407Y-62912622D01*
X175887485Y-62937183D01*
X175870246Y-62967434D01*
X175857074Y-62984560D01*
X175849076Y-62992591D01*
X175841378Y-63007493D01*
X175549942Y-63007493D01*
X175549474Y-62915029D01*
X175549050Y-62799617D01*
X175548706Y-62669160D01*
X175548434Y-62522716D01*
X175548227Y-62359344D01*
X175548076Y-62178101D01*
X175547972Y-61978048D01*
X175547908Y-61758241D01*
X175547876Y-61517739D01*
X175547867Y-61255602D01*
X175547867Y-59064031D01*
X175586249Y-59025649D01*
X175613355Y-59001911D01*
X175640253Y-58990111D01*
X175676560Y-58987267D01*
X175728489Y-58987267D01*
X175728489Y-59075206D01*
X175730427Y-59125102D01*
X175749199Y-59235523D01*
X175786217Y-59336987D01*
X175839369Y-59428152D01*
X175906546Y-59507673D01*
X175985638Y-59574205D01*
X176074534Y-59626406D01*
X176171125Y-59662930D01*
X176273300Y-59682434D01*
X176378950Y-59683573D01*
X176485964Y-59665005D01*
X176592232Y-59625384D01*
X176689219Y-59567516D01*
X176774293Y-59492684D01*
X176843015Y-59404615D01*
X176893918Y-59305616D01*
X176925535Y-59197993D01*
X176936400Y-59084054D01*
X176936400Y-58987267D01*
X178556753Y-58987267D01*
X178767897Y-58987280D01*
X178972020Y-58987330D01*
X179155686Y-58987430D01*
X179319991Y-58987592D01*
X179466029Y-58987829D01*
X179594894Y-58988153D01*
X179707683Y-58988575D01*
X179805488Y-58989109D01*
X179889404Y-58989767D01*
X179960527Y-58990561D01*
X180019950Y-58991504D01*
X180068768Y-58992608D01*
X180108077Y-58993884D01*
X180138969Y-58995347D01*
X180162541Y-58997007D01*
X180179886Y-58998878D01*
X180192099Y-59000972D01*
X180200275Y-59003300D01*
X180205508Y-59005876D01*
X180211504Y-59009445D01*
X180218279Y-59012978D01*
X180224478Y-59016488D01*
X180230126Y-59020918D01*
X180235247Y-59027208D01*
X180239869Y-59036301D01*
X180244015Y-59049139D01*
X180247713Y-59066662D01*
X180250987Y-59089813D01*
X180253863Y-59119534D01*
X180256367Y-59156765D01*
X180258524Y-59202449D01*
X180260360Y-59257527D01*
X180261900Y-59322941D01*
X180263170Y-59399633D01*
X180264195Y-59488544D01*
X180265001Y-59590617D01*
X180265034Y-59596867D01*
X180265614Y-59706792D01*
G36*
X180265614Y-59706792D02*
G01*
X180266059Y-59838011D01*
X180266362Y-59985216D01*
X180266548Y-60149349D01*
X180266642Y-60331352D01*
X180266671Y-60532165D01*
X180266661Y-60752732D01*
X180266636Y-60993992D01*
X180266622Y-61256889D01*
X180266622Y-61299040D01*
X180266646Y-61559668D01*
X180266685Y-61798796D01*
X180266708Y-62017360D01*
X180266687Y-62216295D01*
X180266593Y-62396535D01*
X180266395Y-62559015D01*
X180266063Y-62704670D01*
X180265569Y-62834434D01*
X180264883Y-62949243D01*
X180263976Y-63050030D01*
X180262817Y-63137730D01*
X180261378Y-63213279D01*
X180259629Y-63277611D01*
X180257540Y-63331661D01*
X180255083Y-63376363D01*
X180252227Y-63412652D01*
X180248943Y-63441463D01*
X180245202Y-63463731D01*
X180240974Y-63480390D01*
X180236229Y-63492375D01*
X180230939Y-63500621D01*
X180225073Y-63506062D01*
X180218602Y-63509634D01*
X180211497Y-63512270D01*
X180203728Y-63514906D01*
X180195266Y-63518477D01*
X180190908Y-63520145D01*
X180182395Y-63522111D01*
X180169694Y-63523911D01*
X180151885Y-63525555D01*
X180128049Y-63527047D01*
X180097266Y-63528397D01*
X180058617Y-63529611D01*
X180011182Y-63530697D01*
X179954043Y-63531661D01*
X179886279Y-63532511D01*
X179806971Y-63533253D01*
X179715199Y-63533897D01*
X179610044Y-63534447D01*
X179490587Y-63534913D01*
X179355908Y-63535300D01*
X179205088Y-63535616D01*
X179037206Y-63535869D01*
X178851345Y-63536066D01*
X178646583Y-63536213D01*
X178422002Y-63536318D01*
X178176682Y-63536389D01*
X177909704Y-63536432D01*
X177871321Y-63536437D01*
X177605922Y-63536480D01*
X177362050Y-63536525D01*
X177138783Y-63536548D01*
X176935196Y-63536524D01*
X176750367Y-63536430D01*
X176583373Y-63536243D01*
X176433290Y-63535939D01*
X176299196Y-63535494D01*
X176180166Y-63534885D01*
X176075279Y-63534089D01*
X175983610Y-63533080D01*
X175904237Y-63531837D01*
X175836237Y-63530335D01*
X175778686Y-63528551D01*
X175730662Y-63526461D01*
X175691240Y-63524042D01*
X175659499Y-63521270D01*
X175634514Y-63518121D01*
X175615364Y-63514572D01*
X175601123Y-63510598D01*
X175590871Y-63506178D01*
X175583682Y-63501286D01*
X175578635Y-63495900D01*
X175574805Y-63489996D01*
X175571271Y-63483549D01*
X175567108Y-63476537D01*
X175566025Y-63474687D01*
X175563813Y-63469180D01*
X175561786Y-63460868D01*
X175559938Y-63448809D01*
X175558261Y-63432063D01*
X175556745Y-63409687D01*
X175555383Y-63380740D01*
X175554167Y-63344280D01*
X175553089Y-63299367D01*
X175552140Y-63245057D01*
X175551312Y-63180410D01*
X175550597Y-63104484D01*
X175549987Y-63016338D01*
X175549942Y-63007493D01*
X175841378Y-63007493D01*
X175845260Y-63008765D01*
X175868520Y-63010791D01*
X175910874Y-63012626D01*
X175970132Y-63014227D01*
X176044107Y-63015549D01*
X176130610Y-63016548D01*
X176227452Y-63017180D01*
X176332445Y-63017400D01*
X177030651Y-63017400D01*
X178185090Y-63017400D01*
X178184456Y-62941200D01*
X178185574Y-62899160D01*
X178191304Y-62863334D01*
X178203890Y-62825772D01*
X178225568Y-62777577D01*
X178228789Y-62770897D01*
X178254188Y-62721359D01*
X178280996Y-62673369D01*
X178303917Y-62636466D01*
X178308485Y-62629834D01*
X178330516Y-62598593D01*
X178362693Y-62553654D01*
X178403457Y-62497147D01*
X178451245Y-62431204D01*
X178504498Y-62357957D01*
X178561655Y-62279536D01*
X178621155Y-62198072D01*
X178681437Y-62115698D01*
X178740940Y-62034544D01*
X178798105Y-61956742D01*
X178851370Y-61884423D01*
X178899174Y-61819718D01*
X178939957Y-61764759D01*
X178972158Y-61721676D01*
X178994216Y-61692602D01*
X179004571Y-61679667D01*
X179009044Y-61675351D01*
X179013236Y-61673312D01*
X179016643Y-61675926D01*
X179019325Y-61684986D01*
X179021341Y-61702285D01*
X179022748Y-61729614D01*
X179023605Y-61768765D01*
X179023970Y-61821533D01*
X179023903Y-61889707D01*
X179023460Y-61975082D01*
X179022702Y-62079449D01*
X179021685Y-62204600D01*
X179021308Y-62249300D01*
X179020169Y-62370395D01*
X179018972Y-62471688D01*
X179017636Y-62555262D01*
X179016077Y-62623204D01*
X179014215Y-62677599D01*
X179011966Y-62720532D01*
X179009248Y-62754089D01*
X179005979Y-62780355D01*
X179002078Y-62801416D01*
X178997461Y-62819357D01*
X178989192Y-62845770D01*
X178965583Y-62907772D01*
X178939685Y-62960573D01*
X178914535Y-62997645D01*
X178913339Y-62999075D01*
X178911168Y-63003424D01*
X178913328Y-63007026D01*
X178921644Y-63009951D01*
X178937940Y-63012269D01*
X178964041Y-63014051D01*
X179001771Y-63015367D01*
X179052956Y-63016286D01*
X179119420Y-63016878D01*
X179202987Y-63017215D01*
X179305483Y-63017365D01*
X179428732Y-63017400D01*
X179960296Y-63017400D01*
X179921523Y-62959783D01*
X179915432Y-62950893D01*
X179904976Y-62936069D01*
X179895579Y-62922422D01*
X179887183Y-62908765D01*
X179879733Y-62893911D01*
X179873173Y-62876670D01*
X179867446Y-62855855D01*
X179862495Y-62830280D01*
X179858266Y-62798755D01*
X179854701Y-62760093D01*
X179851744Y-62713107D01*
X179849340Y-62656608D01*
X179847431Y-62589409D01*
X179845962Y-62510322D01*
X179844876Y-62418160D01*
X179844118Y-62311734D01*
X179843630Y-62189857D01*
X179843358Y-62051341D01*
X179843243Y-61894999D01*
X179843231Y-61719642D01*
X179843265Y-61524082D01*
X179843289Y-61307133D01*
X179843280Y-61184513D01*
X179843243Y-60979447D01*
X179843227Y-60795116D01*
X179843288Y-60630334D01*
X179843484Y-60483916D01*
X179843870Y-60354674D01*
X179844505Y-60241422D01*
X179845444Y-60142975D01*
X179846745Y-60058144D01*
X179848464Y-59985744D01*
X179850659Y-59924589D01*
X179853385Y-59873492D01*
X179856701Y-59831267D01*
X179860662Y-59796727D01*
X179865325Y-59768686D01*
X179870747Y-59745958D01*
X179876986Y-59727356D01*
X179884097Y-59711693D01*
X179892138Y-59697784D01*
X179901166Y-59684441D01*
X179911236Y-59670479D01*
X179922407Y-59654711D01*
X179962197Y-59596867D01*
X178902314Y-59596867D01*
X178940311Y-59659966D01*
X178954993Y-59685005D01*
X178969531Y-59712586D01*
X178981627Y-59740700D01*
X178991532Y-59771551D01*
X178999494Y-59807344D01*
X179005761Y-59850283D01*
X179010582Y-59902574D01*
X179014206Y-59966419D01*
X179016881Y-60044025D01*
X179018857Y-60137594D01*
X179020382Y-60249333D01*
X179021704Y-60381445D01*
X179022613Y-60501434D01*
X179023020Y-60618063D01*
X179022767Y-60713531D01*
X179021857Y-60787556D01*
X179020293Y-60839855D01*
X179018079Y-60870149D01*
X179015220Y-60878156D01*
X179012161Y-60874858D01*
X178994006Y-60853408D01*
X178964275Y-60816889D01*
X178924639Y-60767442D01*
X178876771Y-60707207D01*
X178822343Y-60638327D01*
X178763027Y-60562943D01*
X178700495Y-60483196D01*
X178636421Y-60401228D01*
X178572475Y-60319180D01*
X178510331Y-60239194D01*
X178451661Y-60163411D01*
X178398137Y-60093973D01*
X178351430Y-60033021D01*
X178313214Y-59982696D01*
X178285161Y-59945140D01*
X178268943Y-59922495D01*
X178223635Y-59850212D01*
X178183661Y-59770463D01*
X178162130Y-59702188D01*
X178158827Y-59644844D01*
X178164116Y-59596867D01*
X177032356Y-59597117D01*
X177071867Y-59627722D01*
X177081248Y-59635089D01*
X177144183Y-59689438D01*
X177212997Y-59757259D01*
X177289596Y-59840516D01*
X177375888Y-59941178D01*
X177393052Y-59961847D01*
X177433833Y-60011409D01*
X177483588Y-60072326D01*
X177540955Y-60142898D01*
X177604569Y-60221424D01*
X177673069Y-60306204D01*
X177745090Y-60395537D01*
X177819270Y-60487722D01*
X177834517Y-60506702D01*
X177894246Y-60581060D01*
X177968653Y-60673848D01*
X178041131Y-60764388D01*
X178110314Y-60850978D01*
X178174841Y-60931918D01*
X178233347Y-61005506D01*
X178284470Y-61070044D01*
X178326847Y-61123829D01*
X178359115Y-61165162D01*
X178379910Y-61192342D01*
X178387869Y-61203668D01*
X178386111Y-61207771D01*
X178373230Y-61228334D01*
X178348885Y-61264561D01*
X178314247Y-61314824D01*
X178270486Y-61377492D01*
X178218775Y-61450936D01*
X178160284Y-61533527D01*
X178096184Y-61623636D01*
X178027646Y-61719631D01*
X177955843Y-61819885D01*
X177881944Y-61922768D01*
X177807121Y-62026650D01*
X177732545Y-62129901D01*
X177659387Y-62230892D01*
X177588819Y-62327994D01*
X177522011Y-62419577D01*
X177460135Y-62504011D01*
X177404361Y-62579667D01*
X177355862Y-62644916D01*
X177315807Y-62698128D01*
X177285369Y-62737673D01*
X177264944Y-62763026D01*
X177218899Y-62817295D01*
X177168612Y-62873775D01*
X177121815Y-62923669D01*
X177030651Y-63017400D01*
X176332445Y-63017400D01*
X176401356Y-63017349D01*
X176499607Y-63017091D01*
X176589030Y-63016637D01*
X176667333Y-63016010D01*
X176732223Y-63015235D01*
X176781411Y-63014335D01*
X176812604Y-63013334D01*
X176823511Y-63012257D01*
X176822322Y-63009037D01*
X176812176Y-62991452D01*
X176795040Y-62965158D01*
X176786540Y-62952691D01*
X176777329Y-62938622D01*
X176769233Y-62924351D01*
X176762185Y-62908479D01*
X176756117Y-62889609D01*
X176750961Y-62866341D01*
X176746651Y-62837278D01*
X176743119Y-62801021D01*
X176740297Y-62756170D01*
X176738118Y-62701328D01*
X176736514Y-62635097D01*
X176735419Y-62556077D01*
X176734765Y-62462871D01*
X176734484Y-62354079D01*
X176734509Y-62228303D01*
X176734772Y-62084145D01*
X176735206Y-61920207D01*
X176735745Y-61735089D01*
X176736279Y-61556232D01*
X176736805Y-61397374D01*
X176737350Y-61258316D01*
X176737945Y-61137665D01*
X176738619Y-61034028D01*
X176739403Y-60946011D01*
X176740326Y-60872223D01*
X176741419Y-60811269D01*
X176742712Y-60761757D01*
X176744235Y-60722293D01*
X176746019Y-60691484D01*
X176748092Y-60667938D01*
X176750486Y-60650260D01*
X176753230Y-60637059D01*
X176756356Y-60626940D01*
X176759892Y-60618511D01*
X176763791Y-60610375D01*
X176783438Y-60573544D01*
X176802225Y-60543391D01*
X176803272Y-60541908D01*
X176817602Y-60519659D01*
X176823511Y-60506702D01*
X176822504Y-60506249D01*
X176805305Y-60504803D01*
X176768656Y-60503480D01*
X176714962Y-60502316D01*
X176646630Y-60501347D01*
X176566064Y-60500611D01*
X176475670Y-60500142D01*
X176377853Y-60499978D01*
X175932195Y-60499978D01*
X175929120Y-61676845D01*
X175926045Y-62853711D01*
X175899407Y-62912622D01*
X175887485Y-62937183D01*
X175870246Y-62967434D01*
X175857074Y-62984560D01*
X175849076Y-62992591D01*
X175841378Y-63007493D01*
X175549942Y-63007493D01*
X175549474Y-62915029D01*
X175549050Y-62799617D01*
X175548706Y-62669160D01*
X175548434Y-62522716D01*
X175548227Y-62359344D01*
X175548076Y-62178101D01*
X175547972Y-61978048D01*
X175547908Y-61758241D01*
X175547876Y-61517739D01*
X175547867Y-61255602D01*
X175547867Y-59064031D01*
X175586249Y-59025649D01*
X175613355Y-59001911D01*
X175640253Y-58990111D01*
X175676560Y-58987267D01*
X175728489Y-58987267D01*
X175728489Y-59075206D01*
X175730427Y-59125102D01*
X175749199Y-59235523D01*
X175786217Y-59336987D01*
X175839369Y-59428152D01*
X175906546Y-59507673D01*
X175985638Y-59574205D01*
X176074534Y-59626406D01*
X176171125Y-59662930D01*
X176273300Y-59682434D01*
X176378950Y-59683573D01*
X176485964Y-59665005D01*
X176592232Y-59625384D01*
X176689219Y-59567516D01*
X176774293Y-59492684D01*
X176843015Y-59404615D01*
X176893918Y-59305616D01*
X176925535Y-59197993D01*
X176936400Y-59084054D01*
X176936400Y-58987267D01*
X178556753Y-58987267D01*
X178767897Y-58987280D01*
X178972020Y-58987330D01*
X179155686Y-58987430D01*
X179319991Y-58987592D01*
X179466029Y-58987829D01*
X179594894Y-58988153D01*
X179707683Y-58988575D01*
X179805488Y-58989109D01*
X179889404Y-58989767D01*
X179960527Y-58990561D01*
X180019950Y-58991504D01*
X180068768Y-58992608D01*
X180108077Y-58993884D01*
X180138969Y-58995347D01*
X180162541Y-58997007D01*
X180179886Y-58998878D01*
X180192099Y-59000972D01*
X180200275Y-59003300D01*
X180205508Y-59005876D01*
X180211504Y-59009445D01*
X180218279Y-59012978D01*
X180224478Y-59016488D01*
X180230126Y-59020918D01*
X180235247Y-59027208D01*
X180239869Y-59036301D01*
X180244015Y-59049139D01*
X180247713Y-59066662D01*
X180250987Y-59089813D01*
X180253863Y-59119534D01*
X180256367Y-59156765D01*
X180258524Y-59202449D01*
X180260360Y-59257527D01*
X180261900Y-59322941D01*
X180263170Y-59399633D01*
X180264195Y-59488544D01*
X180265001Y-59590617D01*
X180265034Y-59596867D01*
X180265614Y-59706792D01*
G37*
%TD*%
M02*
